<?xml version="1.0" encoding="utf-8"?>
<!-- Generator: Adobe Illustrator 28.0.0, SVG Export Plug-In . SVG Version: 6.00 Build 0)  -->
<svg version="1.1" id="Layer_1" xmlns="http://www.w3.org/2000/svg" xmlns:xlink="http://www.w3.org/1999/xlink" x="0px" y="0px"
	 viewBox="0 0 840 290" style="enable-background:new 0 0 840 290;" xml:space="preserve">
<style type="text/css">
	.st0{fill:#005AAA;}
	.st1{fill:#FFFFFF;}
	.st2{fill:none;stroke:#005AAA;stroke-width:1.25;stroke-linecap:round;stroke-linejoin:round;stroke-miterlimit:8.3333;}
	.st3{fill:none;stroke:#005AAA;stroke-width:1.6667;stroke-linecap:round;stroke-linejoin:round;stroke-miterlimit:8.3333;}
	.st4{fill:#FAA619;}
	.st5{fill-rule:evenodd;clip-rule:evenodd;fill:#005398;}
	.st6{fill:#005398;}
</style>
<g>
	<path class="st0" d="M90.4,161.5l-1,2.1l-1.6,0.1l-1.1,2.7l-1.4,2.9v4.1l-6.1,0.1l-1,0.6l-2.7-0.1l-1.7-1.7l-2.1,0.2l-1.8,0.7
		l-2.2-0.3L67,174l-0.6,2.8l-0.1,3.6l1.4,1.2l-0.1,3.6l2.8,2.6l0.3-4.1l2.8,1.4l0.2-1.9l1.7,1.2l0.1,1.8l1.8,0.3l2.5,2.2l1.2,2.5
		l3.2,1.1l0.4,1.5l5.8,4.2l7.8,1l2.1,2.6l3.9-0.8l2.4-0.5l4-0.3l0.7-2.3l-2.5-5.5l-4-5.3l-0.2-3.9l-0.1-2l-2-2.2l0.1-2.6l1-1.8
		l-0.5-2.3l-1.8,0.4l0.2-4.4l-2.7-4.9l0.2-1.5l-1.1-1.7l0.9-1.4l1.9-0.3l0.6-2.6l2.3-0.7l0.1-2.5l-0.8-1.2l0.9-2.3l2-1.1l1.6,0.2
		l0.2,3.6l0.8,0.5l-0.8,0.8l0.6,1.3l-0.1,2l-1,1.3l1.3,4.5l1.2-2.2l1,0.4l1.4,1.4l4.3,0.4l-0.1,1.5l1.6-0.4l0.7,1.7l1.4,0.9l1.1,0.2
		l-0.2,1.8l1.2-1.8l0.2,3l1.6,1.2l0.1-2.4l1.1-0.4l0.1-2.3l2.1-1.5l0.1-1.8l2.4,0.6l0.8-3.1l1.9-2.5l0.9-2.3l1.7,0.7l-0.1,1.8
		l-1,0.8l1.1,1l-1.6,0.7l-1.3,0.6l0.1,1.2l-0.5,0.8l-1.2,0.9l-0.6,1.9l-1.3,1.3c0,0,1.9,1.1,2.4,0.9c0.5-0.1,4-0.3,4-0.3l0.4-1.5
		l1.3-0.6l2.1-0.2l0.6-3.6l1.5-2.4l-2-2.2l-0.7,0.1l-0.5,1l0.1-2.9l-1.4-1.2l0.1-2l-1.6-1.1l-0.2,1.5l-0.7,0.6l-0.8-0.7l1.1-2.1
		l-0.1-1l-1.1,0.3l-1.6,0.6l-0.1-1.3l0.8,0.2l1.5-0.6l-0.4-2.1l3.7-0.3l1.8-1.7l-0.1-2.5l1.1-0.3v-1l-1-0.2l-0.1-1.3l1.1-0.8
		l2.3-0.9v-1l-4.5,0.9l-1.3-0.2l0.2-2l-0.8,0.3l-1.3,1.7l-0.6,1.8l-2.6,1.5l-2.2-0.3l-0.7-1.8l-1.3-0.1l-0.7,1.6l-2.3,0.1l-3.6-2.1
		l-3.7-0.8l-2.3,1.1l-3.9,0.8l-3,1.8l-0.7,0.6l1.1,0.4l2.1-0.7l2.1-0.6l1,0.4l-0.4,0.8l-1.9,0.1l-4.4,0.9L104,142l-1.2,1.9l-0.4,1.3
		l-1.2,1.3l0.4,2.5l-0.7,1.8l-0.4,1.2l-0.2,1.3l-0.8,0.8l-0.1,1.6l-1.4-0.5v3.3l-0.9,2.1l0.4,1.5l-1,0.9l-2.2-0.3l-2-1.2L90.4,161.5
		L90.4,161.5z"/>
	<path class="st0" d="M105.4,157.7l-1.2-0.7l-0.2,2.1l0.7,1.7l-1.5,0.9l-0.1,2.6l1,2.2l1,3.5l0.3-3.3l1.1-2.3l-1.6,0.6l0.1-2
		l0.9-2.2l-0.9-2L105.4,157.7L105.4,157.7z"/>
	<path class="st0" d="M106.2,161.7l-0.4,1.3l1.2,0.9l-0.4-1.2L106.2,161.7L106.2,161.7z M73.6,192.5l0.2,2.1l1.1,0.9l-0.1,1l1.3,0.2
		l-0.1-1.6l-0.9-2L73.6,192.5z M91.2,218.2l1.6,0.2l0.1,0.8l1.2,1.2l-1.3,1.6l-1.7-2.5L91.2,218.2L91.2,218.2z M183.6,194.8l0.5-0.8
		l0.9,0.2l1.8,2.2l-0.2,1.5l0.8,0.4v4.4l-1.2,0.8l-1.8,1.1l-1.3,0.1l0.1-3.1l-0.8-0.9l0.1-2.1l1.5-1.1l-0.1-2l-0.9-0.7L183.6,194.8
		L183.6,194.8z M164.1,185.6l-4.7-0.2l3.5,1.6l4.4,2.5l6-1.1l0.6-2.7l1.5-0.8l0.8,2.8v3.6l0.4,2.9l-1.5,2.4l-0.1,2l2.5,1.6l1.2,2.2
		l-0.1,2.6l-1.8,1.7l-0.3,4.4l-0.9,1.3l-0.6,3.1l-3.7,3.6l-2.6,1.2l-1.5,1.6l-2.4-0.1l-1.5,1.9l-3-1.3l-2.6-2.1l-0.6-2.2l-1.9-0.1
		l-2.4-3.9l0.9-2.3l-1.6-3.4l-3.3-1.6l-2.9-3.1l-5.9-0.6l-1.1-1.2l-5.2,0.1l-2.5-1.6l0.2-1.5l-2.8-3.2l1-1.6l1-3.4l3.8-1.6l1.4-2.1
		l1.6-0.3l1.1-0.6l2.6,0.5l1.2-0.9l4.4-0.5l1.2,0.9l5.4-1.4l0.8-0.6l1.9,0.6l1.8-1.6l1.8-0.7l1.6-1.2l-0.6-0.7l-2.2,0.1l-2.2,1.7
		l-1.6-0.1l-0.6-2l3.1-2.2l2.7-0.2l0.5-1.6l-2.9-0.8L156,175l-1,0.9l0.6,0.7l-0.7,0.5l-1.7-0.7v1.5l-0.2,1.6l0.3,0.8l-0.5,0.6
		l0.6,0.9l-1.2,0.8l-0.1-0.7l0.2-0.8l-1.4-0.9l-1.6-1.1c0,0-2.2-0.4-2.2,0.1s0.4,1.5,0.4,1.5l1.9,1.2l1.3,0.4l0.1,0.8l-0.6-0.5
		l-0.5,0.6l-0.5,1.1l-0.5-0.7l-0.1-1.3l-1.4-0.6l-1.9-0.1l-2.4-0.1l-0.1,2.5l-0.9,0.9l-2.3,0.4l-0.8,0.2l-0.8-0.8l-0.8-0.8l0.5-1.5
		l0.4-0.5l1.1-0.4l1.8-0.1l0.8-1.2l-1.7-1.1l1.3-1.2l2-0.5l0.4-2.1l1-0.4v0.6l-0.5,0.2l0.1,0.4l2.7-0.5l1.4-0.5l0.2-1.9l2.7-1.2
		l-0.2-1l-1.5-0.3l-0.6-1.9l-1,0.1l-0.8,0.9l0.2,2l-1.4,2.3H145v-1.3l-1.7,1.5l0.1-1.9l0.3-1.7l2.1-1.6l0.9-3.9l1.3-0.9h2.3l1-0.7
		l-0.4-1.7l0.1-1.6l0.6-0.6l0.2-1.2l-1.3-0.3v-1l0.8-0.8l-0.6-1.9l-2.8-0.5l0.2-0.8l0.9-0.6l1.6-0.5l-0.9-2v-2.2l-1.4-0.1l-1.1-1
		l0.6-0.8l0.5-2.2l-2.7-0.2l-0.8,0.5l-2.9-2.3l-0.9-1.6l0.8-1.2l2.1-0.5l0.6-1.1l-1.6-1l0.4-0.9l1.2,0.7l3.1,0.4l1.2-1.6l-0.2-1.6
		l3.3-0.4c0,0,0.1,1,0.4,0.8c0.3-0.2-0.6,1.3-0.6,1.3l-1.7,1.7l1,0.9l0.3,0.6l1.3,0.4l0.1,0.9l1.8-0.5l1.1-0.3c0,0-0.3-3.4,0.2-3.3
		c0.6,0,2.8-0.5,2.8-0.5l2.4,0.3l1,1.6l3.1,0.1l-0.4-2.7l2.2-0.6l2.9,0.5l-2.5,1.6l-1.6,2.8l1.2,0.9l0.1,1.1l0.9-2.6l-0.2-0.9
		l1.1-0.4l0.5,2.2l1.2-1.8l-0.6-0.9l1.2-0.7l1.4,1l1.7,0.5l2.2-0.1l1.7,2.5v0.6l1.9,0.6l0.2,2.1l1.1-0.7l1.6-1.4l1.4,0.4l1.8,2.4
		l-0.5,3.8l2.3-0.2l0.2-1.9l0.9-0.2l0.4-0.8l0.7-0.5l0.5-1.2l0.4,2.9l-0.8,0.7l-0.5,0.8l-0.4,1.2l-1.6,0.4l-3,0.1l-0.8,2.2l0.2,1.5
		l-1.5,1.7l-0.3,1.1l-1.9,1.6l0.2,1.1l1.3,0.5l0.6,1.7l0.7,0.1l0.5,1.2l0.3,2.7l0.9,0.3l0.2,1l1.3,0.5l0.7,1.8l-0.8,0.7l-1.7,0.1
		l-3.2,1.5l-1-0.6l-1.6-0.2l-0.1,1.3h-2.5l-2.3,2.8l-1.6,3l-1.6-0.2l-0.8,1.6l-2.6,0.6v1.2l1.1,0.7l1.6-0.1l1.4-2.6l3.2-0.8l0.8,3.1
		l-1.9,2.8v2.5l-0.9,2.5l-0.3,0.6l-0.5-0.4l-1.9,0.6l-2-1l-0.7,0.6L164.1,185.6L164.1,185.6z"/>
	<path class="st0" d="M177.6,180.6l-0.8,1l0.1,1.6l0.7,0.7l0.7-0.5l-0.2-1.8l0.3-0.4L177.6,180.6z M186.2,164.2l0.7-1.4l1.8,0.1
		l0.1,0.8c0,0,1.3-0.2,1.2,0c-0.1,0.3-0.2,0.7-0.2,0.7l-0.7,1.1l-0.7-0.2L186.2,164.2L186.2,164.2z M190,152.9l0.1-4.7l1.5-0.3
		l0.5-2.8l-0.7-2.3l1.5-1.7l-0.9-2.4l-1.9-1l-2.7,0.2l-0.3-2.7l-2.3-1.4l0.1-1.2l1.3,0.2l-1.7-1.1l1.7-0.3l0.3-2.3l-2.3-1.2
		l-0.5-2.7l-2.5,0.4l-0.2-0.7l0.6-0.3l0.3-1.8l-1.9-1.2l-0.1-2.5l-2.9-1.9l-0.4-2.4l-0.9-0.8l-1-0.3l-1.1-2l0.6-1l-0.6-1.2l-2.4-0.7
		l1.3-1.8l-2.1-2.1v-0.6l3.4,0.4l0.4,0.8l0.1,2.7l1.6,1.1l2.2,0.8l2.5,3.4h-1.4h-0.8l1.7,2.6l0.5,1.2l1.5,0.3l0.3,1.4l-0.1,1.6
		l1.2,0.3l1.3,1.9l1.4,1.3l1.2,3l0.7-0.4l2.9,7.3l1.6-1.2c0,0-0.9-1.1-0.8-1.6c0.1-0.5-1-2.1-0.8-2.1s1-0.3,1-0.3s1.2,1.3,1.1,1.6
		c-0.1,0.3,0.7,1.8,0.7,1.8l0.3,3.8l0.6,2l-0.3,3.4l-0.8,1l0.4,1.2l-0.2,4.3l-1.2,0.8l-1.6,3.6L190,152.9L190,152.9z"/>
	<path class="st0" d="M187,121.3l1.3,0.2l0.7,1.3l-0.1,1.6c0,0-0.6,0.1-0.8-0.2c-0.1-0.3-0.5-1.1-0.5-1.1s-0.9-0.3-0.8-0.6
		C187,122.3,187,121.3,187,121.3z M189.7,124.7l0.8,0.4l0.5,0.8l-0.5,2.3l-0.7-0.2l-0.1-1.2l-0.7-0.6L189.7,124.7L189.7,124.7z
		 M154.2,133.2l1.6,0.2l0.7-0.2l1,0.2l0.4,1.4l2.9-2.3l2.5-0.8c0,0,2.2,1.6,2.4,1.6s1.5,0.1,1.5,0.1l4-0.1l-2.9-2.3l-1.8-0.1
		l-0.6,0.4v-0.9l-2.7-0.7l-1.5,0.4l-0.4,1.1l-1.7,1.1l-2.1-0.3l-0.4-0.7l-0.6-0.1l-0.2,0.8l-0.9-0.1l-0.1,0.8l-1,0.2
		C154.2,132.9,154.2,133.2,154.2,133.2z M172.7,134.9l0.8-0.7l1.6,0.1l0.4,0.8l-0.9,0.9h-1l-0.1-0.5L172.7,134.9L172.7,134.9z
		 M176.2,135.4l0.6-1.6l0.9-0.5v-1.6l0.7-0.6l0.1-1.1l-0.6-0.3l1.7-1l-0.7-0.8l1.6-0.9l0.7,0.2l0.3,2.6H180l0.4,1.3l-0.7,0.1
		l-0.1,1.7l1-0.8l1.1,0.1l1.4,0.4l-0.5,1.5l-3-0.4l0.1,0.8l-1,0.5L176.2,135.4L176.2,135.4z M159.7,97.2c-0.1,0.6-0.1,1.1-0.1,1.7
		l2.7,4l1.9,0.2l0.5,0.5h1.7l-1.4-1.9l-1.4-0.5l-1.3-2.4l-1.9-0.8l-0.1-0.7L159.7,97.2L159.7,97.2z M167.1,105.1l-0.1,1.4l0.9,0.7
		h2.7l-0.8-1.2l-1.3-0.3l-0.2-0.7L167.1,105.1z M186.1,95.8l-1.8-0.1l-0.8-0.9l-1.8,0.5l-2.2,0.3l-0.3,1l-2.6,1.4v0.9l1.4,1.2
		l1.8,1.4l0.3,2.4l1.2,2.1l-1.3,1.5l1.8,1.2l0.2,1.9l1.8-0.6l2.8,1.3l-0.3,1.4l-0.7,1.6l2.8,3.8l1.2-0.4l0.7,0.8l0.8-0.4l0.3,1.7
		c0,0,0.2,1.2,0.6,1.3c0.5,0.1,2,0.1,2,0.1v0.5l2.1,0.7c0,0,0.1,0.7,0.2,1.1c0,0.3,0.9,0.5,0.9,0.5l1.4,1.2l0.8,2.1
		c0,0,1.1,0.7,1.5,0.7c0.3,0,1.6,0,1.6,0l0.7-1.6l2.3-1.1l-0.1-1.8l-1.7-3.7l-5.6-8l-1.1-2l-3.8-4l0.8-1.6l-0.6-0.7h-1.1
		c0,0-0.5-1.9-0.5-2.1s-2-2.9-2-2.9l-0.3-1.5l-0.6,0.2l-0.6,0.5l-0.6-0.3l-1.1-0.3L186.1,95.8L186.1,95.8z M181.1,89.6l2.4,0.9
		l0.9,1.6l1.4,0.2l-0.7-0.6l0.1-2.2l-0.6-0.8l-3.1,0.2L181.1,89.6z M221.8,165.4c0,0-1.3,1.1-1.4,1.3c0,0.2,0,1.2,0,1.2l1-0.1
		l0.6-0.6L221.8,165.4L221.8,165.4z M213.1,173.1l-0.3,0.6h-1.1v2.7l1.2-0.8l0.4-0.8l0.6-0.2l0.1-1l-0.7,0.2L213.1,173.1
		L213.1,173.1z M215.3,185.2l-1-0.1l-0.4,0.9h-0.8l-0.3,1l-0.7,0.4l0.2,1.1l1.3-0.1l1.4-1.6L215.3,185.2L215.3,185.2z M217.7,183.4
		l-0.9-0.5l-0.4,1.7l0.8,0.7L217.7,183.4L217.7,183.4z M218.3,181l0.7,0.3l-1,0.9l-0.2-0.4L218.3,181L218.3,181z M140.5,174.7
		l-0.3,0.2l-0.2,0.8l0.4,0.2l-0.4,0.6l-0.1,1.1l-0.4,0.7l0.7-0.2l0.8-0.3l0.3-0.2l-0.4-0.4l0.2-0.9l-0.2-0.6v-1L140.5,174.7
		L140.5,174.7z M139.7,176.4v0.5l-0.2,0.6l-0.4-0.3v-0.6L139.7,176.4L139.7,176.4z M162,172.9c0,0-0.7,0.8-0.4,0.8s0.8,0.6,0.8,0.6
		l1.2,0.1l0.1,1.3l1.1-0.4l0.8-0.1l0.9-1.7l-0.8-0.9l-2.1,0.1l-1.4-0.1L162,172.9L162,172.9z M159.3,170.7l1.3,0.1l1.6,0.7l-0.4,0.9
		l-1.7-0.2l-0.3-0.8L159.3,170.7L159.3,170.7z M125,150.6l0.9,0.4l0.5,1.5l-0.2,0.8l0.7,0.4v3.3l-1.5,0.3l-0.5-1l0.7-0.9l-0.1-2
		l-0.9,1.4l-2.3,1.1l0.5-1.5l1.2-0.6l1.2-1.1l-0.5-1.2l-1.9-0.4l0.4-1C123.2,150,125,150.6,125,150.6z M144,258.7
		c20.7,8.8,28.9,16,28.6,21c-0.1,3.2-8.6-6.7-13.7-10.2c-5.8-4.4-11.9-8.3-18.1-9.6c-6-1.1-50.2,16.5-71.5,1.2
		C91.8,259.6,120.6,248.7,144,258.7z M51.4,109.5c0,0.8-2.3,4.1-2.1,3.8c8.5-13,12.7-10.5,21.9-18.5c-1.5,14.6-18.1,23.7-26.2,29.9
		c-3.8-21.6,0.8-40.5,12.1-56.9C54,84.1,53.2,85.1,51.4,109.5z"/>
	<path class="st0" d="M54.7,103.2c0.9-15,10.9-24.4,22.4-30.6C73.8,82.4,68.6,95.4,54.7,103.2z M41.4,139.3
		c3-7.9,10.7-17.2,18.9-21.5c-1.1,15.3-14.6,25.9-21.7,39.4c-8.2-19.3-12-45.6-0.2-64.4C38.6,107.5,43,127.1,41.4,139.3L41.4,139.3z
		"/>
	<path class="st0" d="M39.8,166.6c2.6-8.4,4.8-16,11.6-22.6c4.5,12.4-3.6,26.5-8.9,37.9c-13-14.6-21.7-30.2-17.8-53.5
		C29.6,141.6,33.1,154.6,39.8,166.6z"/>
	<path class="st0" d="M47,197.8c-0.2-15.4,1.3-21.3,5.8-30.5c7.1,14.9,2.9,31.9,1.8,47.9c-20.1-13.8-29.3-28.6-31.6-51.9
		C31.5,176.5,41.9,185,47,197.8L47,197.8z"/>
	<path class="st0" d="M76.4,240.3c-14.2-2.5-30.3-7.3-37-21.9l-7.1-18.6c7.9,11.9,16.3,13.5,29.6,26.9c-4.8-17.6-1.1-21.5-2.6-33.1
		C71.6,205.7,71.9,224.3,76.4,240.3L76.4,240.3z"/>
	<path class="st0" d="M103.4,253.4c-12-0.7-24.3,6.2-35.2,0c-6.4-3.7-12.4-10.2-16.8-16c8.2,5.5,25.1,3.1,35.2,9.7
		c-9.6-8-5.1-19.4-12-31c0-0.2,0-0.2,0-0.2C90.8,222.5,91,248.6,103.4,253.4L103.4,253.4z M149.4,258.7c-20.7,8.8-28.9,16-28.6,21
		c0.2,3.2,8.6-6.7,13.6-10.2c5.8-4.4,11.9-8.3,18.1-9.6c6-1.1,50.2,16.5,71.5,1.2C201.6,259.6,172.8,248.7,149.4,258.7z
		 M241.9,109.5c0.1,0.8,2.3,4.1,2.1,3.8c-8.5-13-12.7-10.5-21.9-18.5c1.5,14.6,18.1,23.7,26.2,29.9c3.8-21.6-0.8-40.5-12.1-56.9
		C239.3,84.1,240.2,85.1,241.9,109.5z"/>
	<path class="st0" d="M238.7,103.2c-1-15-10.9-24.4-22.5-30.6C219.6,82.4,224.8,95.4,238.7,103.2z M251.9,139.3
		c-3-7.9-10.7-17.2-18.9-21.5c1.1,15.3,14.6,25.9,21.7,39.4c8.2-19.3,12-45.6,0.2-64.4C254.8,107.5,250.4,127.1,251.9,139.3
		L251.9,139.3z"/>
	<path class="st0" d="M253.6,166.6c-2.6-8.4-4.8-16-11.6-22.6c-4.5,12.4,3.6,26.5,8.9,37.9c13.1-14.6,21.7-30.2,17.8-53.5
		C263.8,141.6,260.3,154.6,253.6,166.6z"/>
	<path class="st0" d="M246.3,197.8c0.2-15.4-1.3-21.3-5.8-30.5c-7.1,14.9-2.9,31.9-1.8,47.9c20.1-13.8,29.3-28.6,31.6-51.9
		C261.9,176.5,251.5,185,246.3,197.8L246.3,197.8z"/>
	<path class="st0" d="M216.9,240.3c14.2-2.5,30.3-7.3,37-21.9l7.1-18.6c-7.9,11.9-16.3,13.5-29.6,26.9c4.8-17.6,1.1-21.5,2.6-33.1
		C221.8,205.7,221.4,224.3,216.9,240.3L216.9,240.3z"/>
	<path class="st0" d="M190,253.4c12-0.7,24.3,6.2,35.2,0c6.4-3.7,12.3-10.2,16.8-16c-8.2,5.5-25.1,3.1-35.2,9.7
		c9.7-8,5.1-19.4,12-31v-0.2C202.6,222.5,202.4,248.6,190,253.4L190,253.4z"/>
	<path class="st0" d="M216.5,156.9c-0.2-18-7.3-35.2-19.9-48.1L207.3,98c15.5,15.7,24.2,36.8,24.4,58.8L216.5,156.9L216.5,156.9z
		 M196.6,206.5c12.6-12.8,19.8-30.1,19.9-48.1h15.2c-0.2,22-8.9,43.1-24.4,58.8L196.6,206.5z M147.4,227.5
		c18-0.2,35.2-7.3,48.1-19.9l10.8,10.8c-15.2,14.9-35.9,24.2-58.8,24.4v-15.3H147.4z M97.8,207.6c12.8,12.6,30.1,19.8,48.1,19.9
		v15.2c-22-0.2-43.1-8.9-58.8-24.4L97.8,207.6z M76.8,158.4c0.2,18,7.3,35.2,19.9,48.1l-10.8,10.8c-15.4-15.8-24.2-36.9-24.4-58.9
		H76.8z M96.7,108.8c-12.6,12.8-19.8,30.1-19.9,48.1H61.5c0.2-22,8.9-43.1,24.4-58.8C85.9,98,96.7,108.8,96.7,108.8z M145.9,87.8
		c-18,0.2-35.2,7.3-48.1,19.9L87,96.9c15.7-15.5,36.8-24.2,58.8-24.4L145.9,87.8L145.9,87.8z M195.5,107.7
		c-12.8-12.6-30.1-19.8-48.1-19.9V72.5c22.9,0.2,43.6,9.5,58.8,24.4L195.5,107.7z M199.7,156.9c-0.2-13.5-5.6-26.5-15-36.2
		l10.8-10.8c12.3,12.6,19.3,29.4,19.5,47H199.7z M184.7,194.6c9.5-9.7,14.8-22.7,15-36.2h15.2c-0.2,17.6-7.2,34.4-19.5,47
		L184.7,194.6z M147.4,210.7c13.5-0.2,26.5-5.6,36.2-15l10.8,10.8c-12.6,12.3-29.4,19.3-47,19.5V210.7L147.4,210.7z M109.7,195.7
		c9.7,9.5,22.7,14.8,36.2,15V226c-17.6-0.2-34.4-7.2-47-19.5L109.7,195.7z M93.5,158.4c0.2,13.5,5.6,26.5,15,36.2l-10.8,10.8
		c-12.2-12.6-19.2-29.4-19.4-47H93.5z M108.6,120.7c-9.5,9.7-14.8,22.7-15,36.2H78.3c0.2-17.6,7.2-34.4,19.5-47L108.6,120.7z
		 M145.9,104.5c-13.5,0.2-26.5,5.6-36.2,15l-10.8-10.8c12.6-12.3,29.4-19.3,47-19.5V104.5z M183.6,119.6c-9.7-9.5-22.7-14.8-36.2-15
		V89.3c17.6,0.2,34.4,7.2,47,19.5L183.6,119.6z M183,156.9c-0.2-9.1-3.8-17.8-10.1-24.3l10.8-10.8c9.2,9.4,14.4,22,14.6,35.1H183z
		 M172.9,182.8c6.3-6.6,9.9-15.2,10.1-24.3h15.2c-0.2,13.1-5.4,25.7-14.6,35.1L172.9,182.8z M147.4,194c9.1-0.2,17.8-3.8,24.3-10.1
		l10.8,10.8c-9.4,9.2-22,14.4-35.1,14.6C147.4,209.2,147.4,194,147.4,194z M121.5,183.9c6.6,6.3,15.2,9.9,24.3,10.1v15.2
		c-13.1-0.2-25.7-5.4-35.1-14.6L121.5,183.9z M110.3,158.4c0.2,9.1,3.8,17.8,10.1,24.3l-10.8,10.8c-9.2-9.4-14.4-22-14.6-35.1
		C95.1,158.4,110.3,158.4,110.3,158.4z M120.4,132.5c-6.3,6.6-9.9,15.2-10.1,24.3H95.1c0.2-13.1,5.4-25.7,14.6-35.1
		C109.7,121.8,120.4,132.5,120.4,132.5z M145.9,121.3c-9.1,0.2-17.8,3.8-24.3,10.1l-10.8-10.8c9.4-9.2,22-14.4,35.1-14.6V121.3z
		 M171.8,131.4c-6.6-6.3-15.2-9.9-24.3-10.1v-15.2c13.1,0.2,25.7,5.4,35.1,14.6L171.8,131.4L171.8,131.4z M166.2,156.9
		c-0.2-4.6-2-9.1-5.2-12.5l10.8-10.8c6,6.3,9.5,14.6,9.6,23.2h-15.2V156.9z M161,170.9c3.2-3.4,5-7.8,5.2-12.5h15.2
		c-0.2,8.7-3.6,17-9.6,23.2L161,170.9L161,170.9z M147.4,177.2c4.6-0.2,9.1-2,12.5-5.2l10.8,10.8c-6.3,6-14.6,9.5-23.3,9.6
		C147.4,192.4,147.4,177.2,147.4,177.2z M133.4,172c3.4,3.2,7.8,5,12.5,5.2v15.2c-8.7-0.2-17-3.6-23.2-9.6L133.4,172z M127.1,158.4
		c0.2,4.6,2,9.1,5.2,12.5l-10.8,10.8c-6-6.3-9.5-14.6-9.6-23.2L127.1,158.4L127.1,158.4z M132.3,144.4c-3.2,3.4-5,7.8-5.2,12.5
		h-15.2c0.2-8.7,3.6-17,9.6-23.2L132.3,144.4z M145.9,138.1c-4.6,0.2-9.1,2-12.5,5.2l-10.8-10.8c6.3-6,14.6-9.5,23.2-9.6v15.2H145.9
		z M159.9,143.3c-3.4-3.2-7.8-5-12.5-5.2v-15.2c8.7,0.2,17,3.6,23.3,9.6L159.9,143.3z M146.6,175.6c-9.9,0-18-8.1-18-18
		s8.1-18,18-18s18,8.1,18,18C164.6,167.6,156.6,175.6,146.6,175.6z M146.6,71c-47.8,0-86.7,38.9-86.7,86.7s38.9,86.7,86.7,86.7
		s86.7-38.9,86.7-86.7C233.3,109.8,194.4,71,146.6,71z"/>
	<path class="st1" d="M207.7,70.5l-41.4-11l7.1-14c0.2-0.3,0.1-0.7-0.1-0.9c-0.2-0.2-0.6-0.3-0.9-0.1l-14,7.1l-11-41.4
		c-0.1-0.3-0.4-0.6-0.7-0.6c-0.4,0-0.7,0.2-0.7,0.6l-11,41.4l-14-7.1c-0.3-0.2-0.7-0.1-0.9,0.1c-0.2,0.2-0.3,0.6-0.1,0.9l7.1,14
		l-41.4,11c-0.4,0.1-0.7,0.5-0.6,0.9c0.1,0.3,0.3,0.5,0.6,0.6l41.4,11L120,97c-0.2,0.4-0.1,0.8,0.3,1c0.2,0.1,0.5,0.1,0.8,0l14-7.1
		l11,41.4c0.1,0.3,0.4,0.6,0.7,0.6c0.4,0,0.7-0.2,0.7-0.6l11-41.4l14,7.1c0.4,0.2,0.8,0.1,1-0.3c0.1-0.2,0.1-0.5,0-0.8l-7.1-14
		l41.4-11c0.4-0.1,0.7-0.5,0.6-0.9C208.2,70.7,208,70.5,207.7,70.5L207.7,70.5z"/>
	<path class="st2" d="M146.6,132.6c-0.8,0-1.5-0.5-1.6-1.3l-10.1-40.5l-13,7.4c-0.8,0.5-1.8,0.2-2.3-0.6c-0.3-0.5-0.3-1.2,0-1.7
		l7.4-13L86.5,72.8c-0.9-0.2-1.5-1.1-1.2-2c0.1-0.6,0.6-1.1,1.2-1.2L127,59.5l-7.4-13c-0.5-0.8-0.2-1.8,0.6-2.3
		c0.5-0.3,1.2-0.3,1.7,0l13,7.4L145,11.1c0.2-0.9,1.1-1.5,2-1.2c0.6,0.1,1.1,0.6,1.2,1.2l10.1,40.5l13-7.4c0.8-0.5,1.8-0.2,2.3,0.6
		c0.3,0.5,0.3,1.1,0,1.7l-7.4,13l40.5,10.1c0.9,0.2,1.5,1.1,1.2,2c-0.1,0.6-0.6,1.1-1.2,1.2l-40.5,10.1l7.4,13
		c0.4,0.7,0.3,1.5-0.3,2c-0.5,0.5-1.4,0.6-2,0.3l-13-7.4l-10.1,40.5C148,132,147.3,132.6,146.6,132.6z"/>
	<path class="st3" d="M146.6,132.6c-0.8,0-1.5-0.5-1.6-1.3l-10.1-40.5l-13,7.4c-0.8,0.5-1.8,0.2-2.3-0.6c-0.3-0.5-0.3-1.2,0-1.7
		l7.4-13L86.5,72.8c-0.9-0.2-1.5-1.1-1.2-2c0.1-0.6,0.6-1.1,1.2-1.2L127,59.5l-7.4-13c-0.5-0.8-0.2-1.8,0.6-2.3
		c0.5-0.3,1.2-0.3,1.7,0l13,7.4L145,11.1c0.2-0.9,1.1-1.5,2-1.2c0.6,0.1,1.1,0.6,1.2,1.2l10.1,40.5l13-7.4c0.8-0.5,1.8-0.2,2.3,0.6
		c0.3,0.5,0.3,1.1,0,1.7l-7.4,13l40.5,10.1c0.9,0.2,1.5,1.1,1.2,2c-0.1,0.6-0.6,1.1-1.2,1.2l-40.5,10.1l7.4,13
		c0.4,0.7,0.3,1.5-0.3,2c-0.5,0.5-1.4,0.6-2,0.3l-13-7.4l-10.1,40.5C148,132,147.3,132.6,146.6,132.6z"/>
	<path class="st4" d="M89,71.2l40.5-10.1l17.1,10.1H89z M204.1,71.2l-40.5,10.1l-17.1-10.1H204.1L204.1,71.2z M146.6,128.7
		l-10.1-40.5l10.1-17.1V128.7z"/>
	<path class="st4" d="M146.6,13.7l10.1,40.5l-10.1,17.1C146.6,71.2,146.6,13.7,146.6,13.7z"/>
	<path class="st4" d="M122.6,47.2l15.5,8.9l8.5,15.1L122.6,47.2z M170.8,95.4l-15.5-8.9l-8.8-15.3C146.6,71.2,170.8,95.4,170.8,95.4
		z M122.6,95.4l8.9-15.5l15-8.7L122.6,95.4z M170.8,47.2l-8.9,15.5l-15.3,8.6C146.6,71.2,170.8,47.2,170.8,47.2z"/>
</g>
<g>
	<path class="st5" d="M702.1,131.4h4.9v40.2h-4.9V131.4z"/>
	<path class="st5" d="M508.2,196.9h4.9v40.2h-4.9V196.9z"/>
	<path class="st5" d="M621.6,196.9h4.9v40.2h-4.9V196.9z"/>
	<path class="st6" d="M323.9,76.7h-0.2l-10.8,29.7H312L296.9,66h4.9l10.8,28.9h0.1l10.6-29.3h0.9L335,94.9h0.1L345.9,66h4.9
		l-15.2,40.4h-0.9L323.9,76.7L323.9,76.7z M362.6,97.9c2.9,3.1,6.8,4.6,11.6,4.6c4.7,0,8.5-1.6,11.4-4.7c3-3.2,4.4-7.1,4.4-11.7
		c0-4.7-1.5-8.6-4.5-11.7c-3-3.2-6.8-4.8-11.4-4.8s-8.5,1.6-11.4,4.7c-3,3.2-4.4,7.1-4.4,11.8C358.3,90.9,359.8,94.8,362.6,97.9z
		 M358.9,100.9c-3.7-3.9-5.6-8.8-5.6-14.8c0-5.8,2-10.7,6.1-14.7c4.1-4.1,9.1-6.1,14.8-6.1c6,0,10.9,2,14.8,6c4,4,5.9,8.9,5.9,14.8
		s-1.9,10.8-5.9,14.8c-3.9,4-8.8,5.9-14.8,5.9C367.8,106.7,362.6,104.8,358.9,100.9L358.9,100.9z M417.3,66c3.7,0,7,1.1,9.7,3.4
		c2.8,2.2,4.2,5.2,4.2,9.2c0,2.9-1,5.5-2.9,7.8s-4.6,3.9-8,4.8l13.1,15h-6.1l-14.2-16.9v-0.8c8.6-0.3,13.2-4.5,13.2-9.6
		c0-5.6-3.9-8.9-9.7-8.9h-8.7v36.2H403V66H417.3L417.3,66z M439.5,65.9h4.9V102h21v4.1h-25.9V65.9z M495.9,74.4
		c-2.5-3-6.1-4.4-11.1-4.4h-9v32h9.6c4.7-0.1,8.3-1.5,10.6-4.4c2.4-2.9,3.6-6.8,3.6-11.6C499.7,81.3,498.4,77.4,495.9,74.4z
		 M471,106.1V65.9h13.7c6.1,0,10.9,1.8,14.4,5.5c3.6,3.7,5.4,8.5,5.4,14.5s-1.7,10.9-5.1,14.7c-3.4,3.7-8.1,5.6-14,5.6L471,106.1
		L471,106.1z M321.6,162.9h-1L306,143.4l-0.1,0.1v28h-4.7V131h1l18.9,25.5l18.8-25.5h1v40.5h-4.7v-14.2c0.1-6.3,0.1-11,0.1-14.3
		l-0.2-0.1L321.6,162.9L321.6,162.9z M378,167.5v4.1h-27.2v-40.2h25.7v4.1h-20.7v13H375v4h-19.2v15L378,167.5L378,167.5z
		 M411.4,135.5h-12.8v36.1h-4.9v-36.1h-12.9v-4.1h30.6L411.4,135.5L411.4,135.5z M444.3,167.5v4.1h-27.2v-40.2h25.7v4.1h-20.7v13
		h19.2v4h-19.2v15L444.3,167.5L444.3,167.5z M458.8,163.4c2.9,3.1,6.8,4.6,11.6,4.6c4.7,0,8.5-1.6,11.4-4.7c3-3.2,4.4-7.1,4.4-11.7
		c0-4.7-1.5-8.6-4.5-11.7c-3-3.2-6.8-4.8-11.4-4.8s-8.5,1.6-11.4,4.7c-3,3.2-4.4,7.1-4.4,11.8C454.5,156.4,456,160.3,458.8,163.4z
		 M455,166.4c-3.7-3.9-5.6-8.8-5.6-14.8c0-5.8,2-10.7,6.1-14.7c4.1-4.1,9.1-6.1,14.8-6.1c6,0,10.9,2,14.8,6c4,4,5.9,8.9,5.9,14.8
		c0,5.9-1.9,10.8-5.9,14.8c-3.9,4-8.8,5.9-14.8,5.9C463.9,172.2,458.8,170.3,455,166.4L455,166.4z M513.5,131.5c3.7,0,7,1.1,9.7,3.3
		c2.8,2.2,4.2,5.2,4.2,9.2c0,2.9-1,5.5-2.9,7.9c-1.9,2.3-4.6,3.9-8,4.8l13.1,15h-6.1l-14.2-16.9V154c8.6-0.3,13.2-4.5,13.2-9.6
		c0-5.6-3.9-8.9-9.7-8.9h-8.7v36.2h-4.9v-40.2H513.5L513.5,131.5z M543.4,163.4c2.9,3.1,6.8,4.6,11.6,4.6c4.7,0,8.5-1.6,11.4-4.7
		c3-3.2,4.4-7.1,4.4-11.7c0-4.7-1.5-8.6-4.5-11.7c-3-3.2-6.8-4.8-11.4-4.8s-8.5,1.6-11.4,4.7c-3,3.2-4.4,7.1-4.4,11.8
		C539,156.4,540.5,160.3,543.4,163.4L543.4,163.4z M539.6,166.4c-3.7-3.9-5.6-8.8-5.6-14.8c0-5.8,2-10.7,6.1-14.7
		c4.1-4.1,9.1-6.1,14.8-6.1c6,0,10.9,2,14.8,6c4,4,5.9,8.9,5.9,14.8c0,5.9-1.9,10.8-5.9,14.8c-3.9,4-8.8,5.9-14.8,5.9
		C548.5,172.2,543.4,170.3,539.6,166.4L539.6,166.4z M583.7,131.4h4.9v36.1h21v4.1h-25.9V131.4z M620.4,163.4
		c2.9,3.1,6.8,4.6,11.6,4.6c4.7,0,8.5-1.6,11.4-4.7c3-3.2,4.4-7.1,4.4-11.7c0-4.7-1.5-8.6-4.5-11.7c-3-3.2-6.8-4.8-11.4-4.8
		s-8.5,1.6-11.4,4.7c-3,3.2-4.4,7.1-4.4,11.8C616.1,156.4,617.6,160.3,620.4,163.4z M616.7,166.4c-3.7-3.9-5.6-8.8-5.6-14.8
		c0-5.8,2-10.7,6.1-14.7c4.1-4.1,9.1-6.1,14.8-6.1c6,0,10.9,2,14.8,6c4,4,5.9,8.9,5.9,14.8c0,5.9-1.9,10.8-5.9,14.8
		c-3.9,4-8.8,5.9-14.8,5.9C625.5,172.2,620.4,170.3,616.7,166.4z M665.1,136.7c4-4.1,9.1-6.1,15.2-6.1c4.6,0,8.1,0.7,10.8,2.2v4.6
		c-3.3-1.7-6.9-2.6-10.6-2.6c-4.7,0-8.6,1.5-11.7,4.6c-3.1,3-4.7,7.1-4.7,12.3c0,4.8,1.4,8.8,4.1,11.8c2.7,3,6.7,4.5,11.8,4.5
		c2.9,0,5.6-0.5,8.1-1.6v-14.9h4.6v18.1c-3.4,1.6-7.9,2.4-13.4,2.4c-6.4,0-11.3-1.9-14.9-5.8c-3.5-3.8-5.3-8.7-5.3-14.6
		C659.1,145.8,661.1,140.7,665.1,136.7L665.1,136.7z"/>
	<path class="st6" d="M748.2,169.4c-3.1,1.9-7,2.8-11.8,2.8c-6.5,0-11.6-1.9-15.2-5.7c-3.6-3.8-5.5-8.8-5.5-14.8s2-11,6-15
		s8.9-6,15-6c4.3,0,7.7,0.6,10,1.8v4.5c-3-1.4-6.2-2.2-9.5-2.1c-4.7,0-8.6,1.5-11.7,4.6c-3.1,3-4.7,7.1-4.7,12.3
		c0,4.9,1.4,8.9,4.3,11.9s6.8,4.4,11.9,4.4c3.8,0,7.6-1,11.3-3.1L748.2,169.4L748.2,169.4z M768.6,140.6l-7.8,18.4h15.9l-7.8-18.4
		H768.6z M782,171.6l-3.8-9.1h-18.9l-3.8,9.1h-4.8l17.8-40.6h0.9l17.6,40.6H782L782,171.6z M792.6,131.4h4.9v36.1h21v4.1h-25.9
		V131.4L792.6,131.4z M308.9,228.9c2.9,3.1,6.8,4.6,11.6,4.6c4.7,0,8.5-1.6,11.4-4.7c3-3.2,4.4-7.1,4.4-11.7c0-4.7-1.5-8.6-4.5-11.7
		c-3-3.2-6.8-4.8-11.4-4.8s-8.5,1.6-11.4,4.7c-3,3.2-4.4,7.1-4.4,11.8C304.6,221.9,306,225.8,308.9,228.9L308.9,228.9z M305.1,231.9
		c-3.7-3.9-5.6-8.8-5.6-14.8c0-5.8,2-10.7,6.1-14.7c4.1-4.1,9.1-6.1,14.8-6.1c6,0,10.9,2,14.8,6c4,4,5.9,8.9,5.9,14.8
		c0,5.9-1.9,10.8-5.9,14.8c-3.9,4-8.8,5.9-14.8,5.9C314,237.8,308.9,235.8,305.1,231.9z M363.6,197c3.7,0,7,1.1,9.7,3.4
		c2.8,2.2,4.2,5.2,4.2,9.2c0,2.9-1,5.5-2.9,7.8s-4.6,3.9-8,4.8l13.1,15h-6.1l-14.2-16.9v-0.8c8.6-0.3,13.2-4.5,13.2-9.6
		c0-5.6-3.9-8.9-9.7-8.9h-8.7v36.2h-4.9V197H363.6L363.6,197z M390.1,202.2c4-4.1,9.1-6.1,15.1-6.1c4.6,0,8.2,0.7,10.8,2.2v4.6
		c-3.3-1.7-6.9-2.6-10.6-2.6c-4.7,0-8.6,1.5-11.7,4.6c-3.1,3-4.7,7.1-4.7,12.3c0,4.8,1.4,8.8,4.1,11.8s6.7,4.5,11.8,4.5
		c2.9,0,5.6-0.6,8.1-1.6V217h4.6v18.1c-3.4,1.6-7.9,2.4-13.4,2.4c-6.4,0-11.3-1.9-14.9-5.8c-3.5-3.8-5.3-8.7-5.3-14.6
		C384.1,211.3,386.1,206.2,390.1,202.2L390.1,202.2z M440.4,206.1l-7.9,18.4h15.9l-7.8-18.4H440.4z M453.8,237.1L450,228h-18.9
		l-3.8,9.1h-4.8l17.8-40.6h0.9l17.6,40.6H453.8L453.8,237.1z M468.6,237.1h-4.8v-40.7h1.1l27.9,30.6h0.2v-30.1h4.8v40.5h-1.1
		l-28-30.7h-0.1V237.1z"/>
	<path class="st6" d="M644.6,228.9c2.9,3.1,6.8,4.6,11.6,4.6c4.7,0,8.5-1.6,11.4-4.7c3-3.2,4.4-7.1,4.4-11.7c0-4.7-1.5-8.6-4.5-11.7
		c-3-3.2-6.8-4.8-11.4-4.8c-4.6,0-8.5,1.6-11.4,4.7c-3,3.2-4.4,7.1-4.4,11.8C640.3,221.9,641.7,225.8,644.6,228.9z M640.8,231.9
		c-3.7-3.9-5.6-8.8-5.6-14.8c0-5.8,2-10.7,6.1-14.7c4.1-4.1,9.1-6.1,14.8-6.1c6,0,10.9,2,14.8,6c4,4,5.9,8.9,5.9,14.8
		c0,5.9-1.9,10.8-5.9,14.8c-3.9,4-8.8,5.9-14.8,5.9C649.7,237.8,644.6,235.8,640.8,231.9z M689.8,237.1H685v-40.7h1.1L714,227h0.2
		v-30.1h4.8v40.5h-1.1l-28-30.7h-0.2L689.8,237.1L689.8,237.1z"/>
	<path class="st6" d="M548.8,196.9v0.7l-21.4,35.5h21.4v4.1h-29v-0.6l21.6-35.5h-19.2V197L548.8,196.9L548.8,196.9z M569,206.1
		l-7.8,18.4h15.9l-7.8-18.4H569z M582.4,237.1l-3.8-9.1h-19l-3.8,9.1H551l17.8-40.6h0.9l17.6,40.6H582.4z M615.3,201h-12.8v36.1
		h-4.9V201h-12.9v-4.1h30.6L615.3,201L615.3,201z"/>
</g>
</svg>
