<?xml version="1.0" encoding="UTF-8"?><svg id="uuid-d65af43d-0f72-420c-bfb8-dbbe953b97a3" xmlns="http://www.w3.org/2000/svg" width="406.35mm" height="266.59mm" viewBox="0 0 1151.86 755.69"><path d="M440.49,326.09l-3.81,9.02h-4.96s14.18-32.52,14.18-32.52h6.61l.73,32.52h-4.79l-.07-9.02h-7.89ZM448.28,321.88c-.07-6.94-.07-12.42.07-15.43h-.13c-1.03,3.07-3.31,8.76-6.01,15.43h6.07Z"/><path d="M485.05,326.21c-1.02,3.66-3.44,9.43-10.38,9.43s-9.82-5.14-7.09-17.71c2-9.2,5.75-15.88,12.78-15.88s7.97,5.67,7.59,9.17h-4.79c.03-1.72.25-5.05-3.28-5.05s-5.85,4.72-7.36,12.03c-1.86,8.98-1.13,13.3,2.58,13.3,3.14,0,4.63-3.7,5.06-5.28h4.89Z"/><path d="M506.51,323.2c-1.28,6.44-4.29,12.31-10.88,12.31s-8.47-5.12-6.78-13.22c1.6-7.81,5.67-12.24,10.76-12.24,6.97,0,8.36,5.9,6.91,13.15ZM493.62,322.82c-1.21,5.82-.46,8.67,2.42,8.67s4.53-3.45,5.66-8.62c.99-4.56,1.19-8.77-2.41-8.77-2.71,0-4.72,4.1-5.67,8.71Z"/><path d="M511.78,318.1c1.09-5.06,1.39-6.73,1.56-7.66h4.73c-.06.6-.28,1.9-.47,2.83,1.2-1.86,3.02-3.21,5.94-3.21,3.71,0,6.03,2.45,4.83,8.15l-3.62,16.91h-4.81l3.5-16.52c.6-2.79.05-4.43-2.3-4.43-2.48,0-4.01,1.61-4.92,5.9l-3.2,15.05h-4.86l3.62-17.01Z"/><path d="M534.51,327.99c-.02,1.89.7,3.8,3.19,3.8,1.79,0,2.87-.84,3.19-2.36.44-2.09-.25-3.46-3.32-5.42-4.52-2.86-5.47-5.21-4.74-8.57.67-3.11,3.05-5.4,7.22-5.4,5.97,0,7.51,4.1,7.16,7.28h-4.46c.03-1.92-.52-3.59-2.75-3.59-1.12,0-2.22.46-2.57,2.02-.42,1.81.24,2.85,2.75,4.43,5.16,3.23,6.13,5.77,5.41,9.46-.72,3.66-3.66,5.84-8.2,5.84-6.12,0-7.6-4.06-7.41-7.5h4.53Z"/><path d="M567.42,323.2c-1.28,6.44-4.29,12.31-10.88,12.31s-8.47-5.12-6.78-13.22c1.6-7.81,5.67-12.24,10.76-12.24,6.97,0,8.36,5.9,6.91,13.15ZM554.53,322.82c-1.21,5.82-.46,8.67,2.42,8.67s4.53-3.45,5.66-8.62c.99-4.56,1.19-8.77-2.41-8.77-2.71,0-4.72,4.1-5.67,8.71Z"/><path d="M572.55,318.78c.85-4.01,1.4-6.58,1.7-8.35h4.58c-.13.97-.25,1.9-.72,4.13,1.64-3.12,4.11-4.48,7.28-4.5l-1.17,5.29c-4.17-.18-6.52,1.97-7.6,7l-2.71,12.76h-4.85l3.48-16.33Z"/><path d="M587.32,310.43h3.26l1.37-6.27h4.8l-1.37,6.27h3.8l-.82,3.93h-3.83l-3.18,14.69c-.33,1.58-.26,2.63,1.61,2.63.72,0,1.46-.09,1.94-.19l-.72,3.56c-1.01.34-2.47.38-3.4.38-3.64,0-5.33-1.48-4.43-5.77l3.37-15.31h-3.26l.85-3.93Z"/><path d="M602.84,310.43h4.85l-5.26,24.67h-4.85l5.26-24.67ZM604.88,300.98h4.85l-1.18,5.45h-4.85l1.18-5.45Z"/><path d="M625.33,328.03c-.71,3.43-1.24,5.84-1.38,7.08h-4.72c.02-.68.25-1.98.37-2.73-1.55,2.26-3.27,3.12-5.91,3.12-3.03,0-5.91-1.99-4.73-7.52l3.72-17.55h4.83l-3.52,16.42c-.57,2.68-.32,4.54,2.16,4.54,2.29,0,3.98-1.58,4.94-6.07l3.14-14.89h4.83l-3.72,17.59Z"/><path d="M632.74,317.84c.98-4.64,1.28-6.2,1.51-7.4h4.65c-.01.3-.24,1.94-.41,2.7,1.45-1.98,3.26-3.09,5.66-3.09,2.57,0,4,1.23,4.33,3.32,1.32-1.81,3.18-3.32,6.35-3.32s5.8,1.85,4.57,7.62l-3.71,17.43h-4.73l3.65-17.17c.44-2.14.18-3.81-1.97-3.81-2.46,0-3.84,2.17-4.49,5.31l-3.33,15.68h-4.78l3.63-17.08c.53-2.53.09-3.88-1.89-3.88-2.34,0-3.86,1.95-4.59,5.41l-3.3,15.54h-4.81l3.67-17.27Z"/><path d="M689.05,323.2c-1.28,6.44-4.29,12.31-10.88,12.31s-8.47-5.12-6.78-13.22c1.6-7.81,5.67-12.24,10.76-12.24,6.97,0,8.36,5.9,6.91,13.15ZM676.16,322.82c-1.21,5.82-.46,8.67,2.42,8.67s4.53-3.45,5.66-8.62c.99-4.56,1.19-8.77-2.41-8.77-2.71,0-4.72,4.1-5.67,8.71Z"/><path d="M691.43,335.11l4.4-20.75h-3.07l.86-3.93h3.05l.59-2.78c.91-4.26,2.47-6.98,7.01-6.98.76,0,2.15.2,2.57.37l-.87,3.93c-.38-.08-.84-.19-1.4-.19-1.69,0-2.1,1.06-2.52,2.99l-.58,2.66h3.55l-.85,3.93h-3.52l-4.4,20.75h-4.81Z"/><path d="M716.59,326.37c.02,2.58,1.01,5.25,4.3,5.25,2.35,0,3.94-1.37,4.43-3.85.5-2.58-.22-4.81-3.92-7.73-4.79-3.78-6.53-6.69-5.75-11.02.72-4,3.58-6.97,8.57-6.97,7.71,0,8.6,6.07,8.34,8.83h-4.68c.05-1.71-.39-4.82-3.83-4.82-2.17,0-3.39,1.29-3.74,3.29-.39,2.23.29,3.77,4.06,6.66,5.6,4.32,6.81,7.64,5.75,12.42-.89,4.06-3.91,7.19-9.25,7.19-7.8,0-9.27-5.31-8.97-9.26h4.69Z"/><path d="M740.29,326.09l-3.81,9.02h-4.96s14.18-32.52,14.18-32.52h6.61l.73,32.52h-4.79l-.07-9.02h-7.89ZM748.08,321.88c-.07-6.94-.07-12.42.07-15.43h-.13c-1.03,3.07-3.31,8.76-6.01,15.43h6.06Z"/><path d="M774.63,320.12h-10.58l-2.25,10.71h12.42l-1.58,4.28h-16.59l6.93-32.52h15.88l-.97,4.28h-11.05l-1.85,8.97h10.58l-.94,4.28Z"/><path d="M797.36,302.59l-6.93,32.52h-4.9l6.93-32.52h4.9Z"/><path d="M806.46,306.87h-6.86l.94-4.28h18.58l-.94,4.28h-6.83l-5.99,28.24h-4.9l5.99-28.24Z"/><path d="M835.06,326.21c-1.02,3.66-3.44,9.43-10.38,9.43s-9.82-5.14-7.09-17.71c2-9.2,5.76-15.88,12.78-15.88s7.97,5.67,7.59,9.17h-4.8c.03-1.72.25-5.05-3.28-5.05s-5.85,4.72-7.36,12.03c-1.86,8.98-1.13,13.3,2.58,13.3,3.14,0,4.63-3.7,5.06-5.28h4.89Z"/><path d="M493.95,261.64h-21.41l-4.96-12.84h-24.5l-5.05,12.84h-6.36l23.19-57.8h15.8l23.28,57.8ZM465.71,243.62l-10.29-26.69-10.38,26.69h20.67Z" style="fill:#51b84a;"/><path d="M542.29,261.64h-40.96v-57.8h19.64v51.68h21.32v6.12Z" style="fill:#51b84a;"/><path d="M592.87,261.64h-40.96v-57.8h19.64v51.68h21.32v6.12Z" style="fill:#51b84a;"/><path d="M622.13,261.64h-19.64v-57.8h19.64v57.8Z" style="fill:#51b84a;"/><path d="M691.79,261.64h-21.41l-4.96-12.84h-24.5l-5.05,12.84h-6.36l23.19-57.8h15.8l23.28,57.8ZM663.55,243.62l-10.29-26.69-10.38,26.69h20.67Z" style="fill:#51b84a;"/><path d="M749.11,261.64h-6.17l-37.03-36.47v36.47h-6.73v-57.8h12.44l30.76,30.26v-30.26h6.73v57.8Z" style="fill:#51b84a;"/><path d="M807.54,260.36c-5.05,1.53-11.78,2.29-19.64,2.29-22.44,0-28.61-10.37-28.61-30.52s10.19-29.33,30.86-29.33c7.29,0,14.59,1.45,16.83,2.3l-.56,5.44c-1.87-.6-7.85-1.87-12.62-1.87-12.06,0-14.31,11.9-14.31,23.12,0,13.26,1.22,24.99,14.12,24.99,4.49,0,11.03-1.11,13.37-1.87l.56,5.44Z" style="fill:#51b84a;"/><path d="M862.61,261.64h-45.44v-57.8h44.32v5.61h-24.69v20.06h23v5.36h-23v21.17h25.81v5.61Z" style="fill:#51b84a;"/><path d="M458.15,111.6h-21.68v-57.8h22.19c27.03,0,32.9,9.95,32.9,28.31,0,20.4-7.4,29.5-33.41,29.5ZM460.7,59.41h-6.38v46.58h5.87c10.97,0,13.01-7.65,13.01-23.89,0-14.79-1.53-22.7-12.5-22.7Z" style="fill:#005893;"/><path d="M520.13,111.6h-19.64v-57.8h19.64v57.8Z" style="fill:#005893;"/><path d="M585.21,109.05c-3.93,1.79-15.33,3.57-26.56,3.57-23,0-29.27-10.37-29.27-30.52s12.44-29.33,34.88-29.33c8.42,0,16.27,1.45,18.14,2.21l-.56,5.35c-1.22-.34-8.04-1.96-15.33-1.96-15.33,0-16.92,11.48-16.92,23.72,0,13.26,1.12,25.42,10.19,25.42,3.37,0,6.73-.6,7.48-1.11v-20.74h-6.64v-5.35h24.59v28.73Z" style="fill:#005893;"/><path d="M615.78,111.6h-19.64v-57.8h19.64v57.8Z" style="fill:#005893;"/><path d="M677.78,59.92h-17.49v51.68h-19.64v-51.68h-17.58v-6.12h54.7v6.12Z" style="fill:#005893;"/><path d="M736.4,111.6h-21.41l-4.96-12.84h-24.5l-5.05,12.84h-6.36l23.19-57.8h15.8l23.28,57.8ZM708.16,93.58l-10.29-26.69-10.38,26.69h20.67Z" style="fill:#005893;"/><path d="M783.8,111.6h-40.96v-57.8h19.64v51.68h21.32v6.12Z" style="fill:#005893;"/><path d="M457.48,187.62c-8.7,0-17.67-1.19-21.04-2.21l.56-5.36c2.34.77,11.5,1.96,15.99,1.96,10.66,0,15.99-1.45,15.99-7.57,0-4.33-4.11-7.4-15.62-9.1-12.06-1.7-19.17-6.8-19.17-18.53s8.7-19.04,25.81-19.04c8.42,0,17.39,1.28,19.64,2.12l-.56,5.36c-1.96-.59-8.98-1.87-14.59-1.87-10.57,0-15.99,1.96-15.99,7.57,0,4.59,5.05,6.88,17.11,8.75,11.69,1.87,17.95,6.21,17.95,17.85,0,12.75-6.45,20.06-26.09,20.06Z" style="fill:#005893;"/><path d="M542.1,134.92h-17.49v51.68h-19.64v-51.68h-17.58v-6.12h54.7v6.12Z" style="fill:#005893;"/><path d="M599.79,186.6h-21.41l-4.96-12.84h-24.5l-5.05,12.84h-6.36l23.19-57.8h15.8l23.28,57.8ZM571.55,168.58l-10.29-26.69-10.38,26.69h20.66Z" style="fill:#005893;"/><path d="M655.23,186.6h-6.17l-37.03-36.47v36.47h-6.73v-57.8h12.44l30.76,30.26v-30.26h6.73v57.8Z" style="fill:#005893;"/><path d="M687.22,186.6h-21.68v-57.8h22.19c27.03,0,32.9,9.95,32.9,28.31,0,20.4-7.4,29.5-33.41,29.5ZM689.77,134.41h-6.38v46.58h5.87c10.97,0,13.01-7.65,13.01-23.89,0-14.79-1.53-22.7-12.5-22.7Z" style="fill:#005893;"/><path d="M785.66,186.6h-21.41l-4.96-12.84h-24.5l-5.05,12.84h-6.36l23.19-57.8h15.8l23.28,57.8ZM757.43,168.58l-10.29-26.69-10.38,26.69h20.67Z" style="fill:#005893;"/><path d="M850.09,186.6h-22.72l-13.56-24.48h-2.99v24.48h-19.64v-57.8h31.61c15.43,0,23.94,6.38,23.94,16.58s-7.39,13.26-12.72,14.71l16.08,26.52ZM819.42,134.15h-8.6v23.29h8.32c5.05,0,7.67-5.44,7.67-12.07s-2.34-11.22-7.39-11.22Z" style="fill:#005893;"/><path d="M878.14,186.6h-21.68v-57.8h22.19c27.03,0,32.9,9.95,32.9,28.31,0,20.4-7.4,29.5-33.41,29.5ZM880.69,134.41h-6.38v46.58h5.87c10.97,0,13.01-7.65,13.01-23.89,0-14.79-1.53-22.7-12.5-22.7Z" style="fill:#005893;"/><path d="M940.12,187.62c-8.7,0-17.67-1.19-21.04-2.21l.56-5.36c2.34.77,11.5,1.96,15.99,1.96,10.66,0,15.99-1.45,15.99-7.57,0-4.33-4.11-7.4-15.62-9.1-12.06-1.7-19.17-6.8-19.17-18.53s8.7-19.04,25.81-19.04c8.42,0,17.39,1.28,19.64,2.12l-.56,5.36c-1.96-.59-8.98-1.87-14.59-1.87-10.57,0-15.99,1.96-15.99,7.57,0,4.59,5.05,6.88,17.11,8.75,11.69,1.87,17.95,6.21,17.95,17.85,0,12.75-6.45,20.06-26.09,20.06Z" style="fill:#005893;"/><path d="M876.23,206.8h-4.92v-2.34h13.27v2.34h-4.96v13.16h-3.4v-13.16Z" style="fill:#51b84a;"/><path d="M901.34,213.74c-.12-1.92-.24-4.24-.22-6.23h-.08c-.56,1.84-1.28,3.87-2.01,5.68l-2.59,6.59h-2.54l-2.37-6.47c-.68-1.87-1.33-3.92-1.78-5.8h-.07c-.07,1.95-.19,4.29-.32,6.32l-.4,6.13h-3.11l1.29-15.5h4.24l2.33,6.24c.66,1.88,1.25,3.66,1.68,5.39h.08c.46-1.71,1.06-3.52,1.75-5.4l2.43-6.23h4.21l1.12,15.5h-3.25l-.38-6.22Z" style="fill:#51b84a;"/><rect x="273.4" y="88.73" width="30.98" height="6.38" transform="translate(558.16 -47.35) rotate(135)" style="fill:#10a14c;"/><rect x="232.8" y="99.75" width="48.07" height="48.07" rx="2.6" ry="2.6" style="fill:#10a14c;"/><rect x="295.87" y="55.07" width="30.13" height="30.13" rx="2.83" ry="2.83" style="fill:#10a14c;"/><rect x="232.8" y="55.07" width="23.43" height="23.43" rx="2.84" ry="2.84" style="fill:#10a14c;"/><rect x="203.65" y="147.66" width="30.98" height="6.38" transform="translate(170.85 -110.77) rotate(45)" style="fill:#005893;"/><rect x="226.96" y="158.87" width="48.07" height="48.07" rx="2.6" ry="2.6" transform="translate(68.09 433.9) rotate(-90)" style="fill:#005893;"/><rect x="182.28" y="113.74" width="30.13" height="30.13" rx="2.83" ry="2.83" transform="translate(68.54 326.16) rotate(-90)" style="fill:#005893;"/><rect x="182.28" y="183.52" width="23.43" height="23.43" rx="2.84" ry="2.84" transform="translate(-1.23 389.23) rotate(-90)" style="fill:#005893;"/><rect x="331.27" y="163.83" width="30.98" height="6.38" transform="translate(473.86 530.32) rotate(-135)" style="fill:#12793d;"/><rect x="290.87" y="110.93" width="48.07" height="48.07" rx="2.6" ry="2.6" transform="translate(449.87 -179.94) rotate(90)" style="fill:#12793d;"/><rect x="353.49" y="174" width="30.13" height="30.13" rx="2.83" ry="2.83" transform="translate(557.62 -179.49) rotate(90)" style="fill:#12793d;"/><rect x="360.19" y="110.93" width="23.43" height="23.43" rx="2.84" ry="2.84" transform="translate(494.55 -249.26) rotate(90)" style="fill:#12793d;"/><rect x="261.14" y="222.54" width="30.98" height="6.38" transform="translate(-78.59 261.72) rotate(-45)" style="fill:#1f9fc9;"/><rect x="284.65" y="169.84" width="48.07" height="48.07" rx="2.6" ry="2.6" transform="translate(617.36 387.75) rotate(180)" style="fill:#1f9fc9;"/><rect x="239.52" y="232.46" width="30.13" height="30.13" rx="2.83" ry="2.83" transform="translate(509.17 495.04) rotate(180)" style="fill:#1f9fc9;"/><rect x="316.04" y="239.16" width="23.43" height="23.43" rx="2.84" ry="2.84" transform="translate(655.5 501.74) rotate(180)" style="fill:#1f9fc9;"/><path d="M758.26,520.93c-11.9,0-19.68-3.04-22.21-15.28h-30.6c0,4.9,2.57,25.72,21.19,34.45,10.43,4.9,22.08,5.76,31.14,5.76l18.7-31.12c-1.29,1.77-3.89,6.2-18.21,6.2M796.34,481.66l-19.59,32.6c3.39-6.98-2.08-10.67-5.49-11.7-5.73-2.2-23.72-5.74-35.39-9.15-5.84-1.71-10.51-4.28-12.8-5.93-.77-.55-13.26-8.72-13.26-25.72,0-7.24,3.61-36.58,48.61-36.58,36.99,0,47.02,21.62,47.91,34.56h-30.26c-1.07-4.71-5.32-10.25-18.3-10.33-2.99-.02-14.99.31-16.15,8.1-.49,3.28.94,5.55,2.81,6.95,1.86,1.4,5.19,2.18,6.39,2.54,5.47,1.64,17.44,3.95,23.33,5.4,10.28,2.53,17.62,5.63,22.2,9.26M942.91,427.12h-69.52v25.17h69.52v-25.17ZM937.01,473.91h-63.62v25.17h63.62v-25.17ZM873.39,520.68h69.52v25.17h-69.52v-25.17Z" style="fill:#00aae7;"/><path d="M845.58,499.05h-28.13l28.13-46.81v46.81ZM873.39,427.12h-44.28l-32.77,54.54-19.59,32.6-.28.47-18.7,31.12h31.56l15.13-25.19h41.12v25.19h27.81v-118.74ZM919.45,572.57l-2.16-6.44-2.19,6.44h4.35ZM926.44,580.49h-4.27l-1.48-4.3h-6.85l-1.45,4.3h-4.15l7.1-19.79h4l7.1,19.79ZM878.89,570.54c0-3.9-1.99-6.36-4.75-6.36s-4.75,2.43-4.75,6.33v.2c0,3.9,2.02,6.36,4.78,6.36s4.72-2.43,4.72-6.33v-.2ZM883.16,570.42v.34c0,5.91-3.75,10.09-9.01,10.09s-8.99-4.12-8.99-10.03v-.34c0-5.94,3.75-10.09,9.01-10.09s8.99,4.12,8.99,10.03M855.77,580.49h4.12v-19.79h-4.12v19.79ZM836.95,564.49h5v16h4.1v-16h5v-3.79h-14.11v3.79ZM934.86,560.7h-4.12v19.79h12.17v-3.76h-8.05v-16.03ZM899.83,572.23l-7.62-11.53h-3.78v19.79h4.04v-11.96l7.88,11.96h3.53v-19.79h-4.04v11.53ZM828.28,572.57l-2.16-6.44-2.19,6.44h4.35ZM828.27,560.7l7.1,19.79h-4.27l-1.48-4.3h-6.85l-1.45,4.3h-4.15l7.09-19.79h4ZM739.73,564.49h5v16h4.09v-16h5.01v-3.79h-14.11v3.79ZM731.1,572.23l-7.63-11.53h-3.79v19.79h4.04v-11.96l7.88,11.96h3.53v-19.79h-4.04v11.53ZM762.53,572.37h7.68v-3.7h-7.68v-4.27h8.73v-3.7h-12.83v19.79h12.94v-3.71h-8.85v-4.41ZM709.53,580.49h4.12v-19.79h-4.12v19.79ZM787.61,567.37c0-1.98-1.22-2.97-3.33-2.97h-2.96v5.96h3.05c2.11,0,3.24-1.18,3.24-2.97v-.03ZM788.06,573.14l4.23,7.35h-4.72l-3.67-6.5h-2.59v6.5h-4.12v-19.79h7.48c2.3,0,4.15.65,5.4,1.89,1.08,1.08,1.68,2.63,1.68,4.58v.12c0,3-1.5,4.89-3.69,5.85M808.8,560.7h4.04v19.79h-3.53l-7.88-11.96v11.96h-4.04v-19.79h3.78l7.63,11.53v-11.53ZM953.18,574.59c0-.55-.37-.82-.97-.82h-1.19v1.62h1.22c.61,0,.94-.33.94-.8M953.22,576.24l1.35,1.98h-1.42l-1.17-1.78h-.96v1.78h-1.22v-5.52h2.45c1.32,0,2.16.67,2.16,1.82,0,.9-.49,1.46-1.19,1.72M956.52,575.59c0-2.55-1.97-4.61-4.58-4.61s-4.6,2.09-4.6,4.64,1.96,4.6,4.58,4.6,4.6-2.08,4.6-4.63M957.13,575.59c0,2.84-2.29,5.21-5.21,5.21s-5.18-2.34-5.18-5.18,2.3-5.21,5.21-5.21,5.18,2.34,5.18,5.18" style="fill:#005592;"/><path d="M148.93,522.14c9.05-19.43,2.53-42.55-15.33-54.4,6.94-7.14,14.46-14.21,22.4-20.96-9.26,5.5-18.05,11.77-26.27,18.72-21.22-11.06-47.39-2.83-58.45,18.39-8.19,15.71-5.99,34.83,5.56,48.27-8.29,17.95-9.6,32.35-2.43,37.22,7.84,5.22,24.86-4.26,35.2-19.65,0,0-15.81,14.24-24.48,10.98-5.34-2.02-5.34-10.21-.96-21.92,17.16,12.59,40.92,10.85,56.06-4.1l1.54,2.88c18.88-1.54,75.23-3.04,75.23-3.04-.13-2.66-37.44-.1-68.06-12.38ZM71.56,503.87c.02-21.07,17.12-38.13,38.18-38.1,5.43,0,10.79,1.17,15.74,3.42-18.71,16.36-34.32,35.95-46.11,57.82-5.08-6.64-7.83-14.77-7.81-23.14ZM109.67,541.98c-8.56.02-16.87-2.86-23.58-8.16,7.55-17.02,22.91-39.87,43.87-62.21,16.29,10.26,22.37,31.06,14.18,48.48-6.62-2.97-12.73-6.95-18.11-11.81l11.49,21.57c-7.19,7.74-17.28,12.13-27.84,12.13Z" style="fill:#0033a1;"/><polygon points="407.37 499.9 414.41 490.52 389.83 490.52 395.88 482.49 420.49 482.49 427.56 473.11 378.47 473.11 344.71 517.91 393.8 517.91 400.84 508.54 376.26 508.54 382.76 499.9 407.37 499.9 407.37 499.9" style="fill:#0033a1;"/><polygon points="441.45 473.11 407.69 517.91 432.2 517.91 465.93 473.11 441.45 473.11 441.45 473.11" style="fill:#0033a1;"/><polygon points="523.05 473.11 505.93 495.83 500.68 473.11 481.54 473.11 447.78 517.91 463.97 517.91 480.93 495.42 486.15 517.91 505.48 517.91 539.24 473.11 523.05 473.11 523.05 473.11" style="fill:#0033a1;"/><path d="M603.11,473.11h-39.36c-6.48,0-12.59,3.04-16.48,8.22l-20.32,26.98c-.79,1.04-1.22,2.31-1.22,3.62,0,3.31,2.67,6,5.98,6.02h39.36c6.49.01,12.61-3.03,16.51-8.22l4.9-6.4h5.7l7.1-9.6h-30.14l-9.6,12.64c-1.01,1.35-2.6,2.15-4.29,2.14h-6.94c-.87,0-1.57-.7-1.57-1.57h0c0-.34.11-.66.32-.93l16-21.44c1.01-1.36,2.6-2.15,4.29-2.14h6.94c.87,0,1.57.7,1.57,1.57h0c0,.33-.12.66-.32.93l-2.62,3.49h24.45l4.32-5.76c2-2.63,1.48-6.39-1.15-8.38-1.05-.8-2.33-1.22-3.65-1.22l.22.06Z" style="fill:#0033a1;"/><path d="M358.37,479.13c0-3.3-2.68-5.98-5.98-5.98h-39.36c-6.49-.01-12.61,3.03-16.51,8.22l-20.32,26.98c-1.98,2.67-1.42,6.44,1.25,8.42,1.03.76,2.27,1.18,3.55,1.18h39.36c6.49.01,12.61-3.03,16.51-8.22l20.32-26.98c.78-1.04,1.2-2.31,1.18-3.62ZM331.01,484.99l-16,21.41c-1.01,1.36-2.6,2.15-4.29,2.14h-7.07c-.87,0-1.56-.72-1.55-1.58,0-.33.11-.65.3-.91l16-21.44c1.02-1.34,2.6-2.14,4.29-2.14h6.94c.87,0,1.57.7,1.57,1.57,0,.33-.12.66-.32.93l.13.03Z" style="fill:#0033a1;"/><path d="M265.8,496.6c4.76-1.08,8.98-3.81,11.9-7.71l4.67-6.18c2-2.63,1.48-6.39-1.15-8.38-1.05-.8-2.33-1.22-3.65-1.22h-49.66l-33.76,44.8h51.39c6.49.01,12.61-3.03,16.51-8.22l4.77-6.4c.63-.83.97-1.84.96-2.88,0-1.53-.73-2.96-1.95-3.87l-.03.06ZM243.08,502.43l-3.04,4.03c-1.01,1.35-2.6,2.15-4.29,2.14h-10.02l6.4-8.64h9.6c.87,0,1.57.7,1.57,1.57h0c0,.34-.11.66-.32.93l.1-.03ZM256.2,485.02l-2.59,3.42c-1.02,1.34-2.61,2.12-4.29,2.11h-10.02l6.05-8.03h9.6c.87,0,1.57.7,1.57,1.57h0c0,.33-.12.66-.32.93Z" style="fill:#0033a1;"/><path d="M571.51,664.15h8.81l-5.34,25.17h14.06l-1.3,6.16h-22.87l6.64-31.33Z" style="fill:#003478;"/><path d="M599.33,667.62c4.82-3.99,10.89-4.34,13.19-4.34,12.5,0,13.98,8.98,12.33,16.62-2.65,12.5-12.33,16.32-19.79,16.32-8.33,0-15.1-4.6-12.63-16.27.44-2.08,2.13-8.33,6.9-12.33ZM606.53,689.84c6.21,0,8.46-5.73,9.37-10.07.91-4.39.35-6.55-.3-7.94-.91-1.74-2.82-2.26-4.73-2.26-5.73,0-8.33,4.95-9.51,10.33-1.04,4.99-.61,9.94,5.17,9.94h0Z" style="fill:#003478;"/><path d="M650.92,674c.3-3.17-1.69-4.34-4.17-4.34-5.25,0-7.86,4.82-9.07,10.55-.44,1.91-2.04,9.81,4.69,9.81,4.6,0,5.77-3.34,6.21-4.56h9.03c-2.13,9.81-12.28,10.63-16.36,10.63-3.04,0-8.29-.52-11.02-4.17-2.65-3.65-2.17-8.63-1.47-11.89.91-4.3,2.82-8.59,6.47-11.93,3.99-3.65,8.33-4.6,12.89-4.6,5.08,0,8.68,1.22,10.59,3.82,1.95,2.69,1.39,5.51,1.17,6.68h-8.94Z" style="fill:#003478;"/><path d="M667.24,664.15h8.81l-2.91,13.76,12.93-13.76h10.29l-13.71,13.8,7.94,17.53h-10.76l-6.86-16.67-3.56,16.67h-8.81l6.64-31.33Z" style="fill:#003478;"/><path d="M700.52,664.15h8.77l-2.56,12.24h10.46l2.56-12.24h8.81l-6.64,31.33h-8.81l2.69-12.67h-10.5l-2.69,12.67h-8.72l6.64-31.33Z" style="fill:#003478;"/><path d="M734.45,664.24h23.52l-1.26,5.99h-14.93l-1.39,6.51h14.06l-1.3,5.99h-14.06l-1.39,6.68h15.28l-1.3,6.07h-23.87l6.64-31.25h0Z" style="fill:#003478;"/><path d="M763.4,664.24h23.52l-1.26,5.99h-14.93l-1.39,6.51h14.06l-1.3,5.99h-14.06l-1.39,6.68h15.28l-1.3,6.07h-23.87l6.64-31.25h0Z" style="fill:#003478;"/><path d="M792.52,664.15h13.24c3.73,0,8.63.39,11.41,2.6,3.95,3.17,4.12,8.33,3.13,12.98-1.47,6.95-4.77,12.07-11.63,14.54-3.47,1.22-7.29,1.22-9.46,1.22h-13.32l6.64-31.33h0ZM796.07,689.45h3.73c5.77-.04,9.98-2.52,11.55-9.81,2-9.51-5.12-9.51-7.77-9.51l-3.43-.04-4.08,19.36h0Z" style="fill:#003478;"/><path d="M842.68,664.15h13.67l.74,21.22,9.42-21.22,13.67-.04-6.64,31.38h-8.2l5.99-26.3-13.02,26.3h-7.81l-1.52-26.52-5.42,26.52h-7.51l6.64-31.33h0Z" style="fill:#003478;"/><path d="M896.06,664.15h10.59l5.73,31.33h-9.81l-.82-6.29h-12.54l-3.47,6.29h-8.68l19.01-31.33h0ZM900.96,683.42l-1.26-13.15h-.13l-7.12,13.15h8.51Z" style="fill:#003478;"/><path d="M922.31,664.15h14.49c5.64,0,7.73.35,9.16,2.26.78.95,1.61,2.69.91,6.07-.74,3.43-2.43,4.9-4.12,5.82-2.26,1.26-4.21,1.47-5.12,1.61l-.04.17c6.07.17,5.82,2.87,5.51,7.68-.17,2.13-.44,5.51-.17,7.73h-9.42c-.13-1.91.17-4.3.48-7.08.39-3.78.56-5.16-3.34-5.16h-3.65l-2.6,12.24h-8.72l6.64-31.33h0ZM928.21,677.61h3.26c1.91,0,2.86,0,3.65-.26,2.04-.61,2.82-2.56,3.04-3.56.82-3.86-2.56-3.86-5.08-3.86h-3.25l-1.61,7.68h0Z" style="fill:#003478;"/><path d="M959.5,670.36h-9.55l1.3-6.21h28.08l-1.3,6.21h-9.76l-5.34,25.13h-8.77l5.34-25.13h0Z" style="fill:#003478;"/><path d="M982.37,664.15h8.94l-6.64,31.33h-8.94l6.64-31.33Z" style="fill:#003478;"/><path d="M997.12,664.15h11.98l5.64,23.35,4.86-23.35h7.6l-6.64,31.33h-11.72l-5.64-24.35-5.08,24.35h-7.64l6.64-31.33h0Z" style="fill:#003478;"/><path d="M1075.28,655.72l9.38-31.74c.11-.41-.4-.69-.69-.38l-29.81,32.12h-130.23c-.52,0-.55.8-.02.81l127.32,2.79,8.02.18,7.69.17.48-3.94h-9.55l16.08-14.65-2.8,14.65-4.09,21.43-5.39,28.28c-.1.51.65.68.79.18l7.33-29.8,40.62-19.33c.38-.19.25-.77-.18-.77h-34.96ZM1074.16,659.82l15.12.33-18.16,10.78,3.04-11.11h0Z" style="fill:#003478;"/><path d="M1052.17,661.3l-2.56-.09-15.01,15.32c-.35.37.18.92.56.58l17.01-15.82h0Z" style="fill:#003478;"/><path d="M1064.78,678.19l.46-4.02-35.02,20.54c-.44.27-.08.94.39.71l34.18-17.24h0Z" style="fill:#003478;"/><path d="M41.21,715.48l44.32-111.63,24.04.08,44.04,110.75v-110.8h25.2v111.6h-51.8l-8.58-23.82h-43.23s-7.98,23.82-7.98,23.82h-26ZM80.81,671.48h31.6l-15.4-41.6-16.2,41.6Z" style="fill:#4684ab;"/><path d="M508.81,603.88v111.6h-243.8l-8.86-23.94h-42.87s-8.06,23.94-8.06,23.94h-26l44.6-111.6h285ZM290.01,711.88h215.2v-103.8l-256.4-.6s29.93,71.89,41.2,104.4ZM219.21,671.48h31.2c-3.79-13.5-15.8-41.6-15.8-41.6l-15.4,41.6Z" style="fill:#4684ab;"/><path d="M317.07,615.03c.6,1.88,1.2,3.77,1.78,5.69.59,1.92,1.16,3.93,1.73,6.04s1.13,4.34,1.69,6.69,1.13,4.9,1.7,7.64h-3.38c-.2-1.13-.4-2.25-.61-3.35-.21-1.1-.43-2.21-.65-3.31h-8.22c-.25,1.1-.48,2.21-.68,3.31-.2,1.1-.4,2.22-.6,3.35h-3.27c.55-2.73,1.12-5.27,1.7-7.63.58-2.36,1.15-4.59,1.72-6.69.57-2.11,1.14-4.12,1.74-6.03.59-1.92,1.19-3.82,1.8-5.7h3.56ZM315.22,618.86c-.61,2.09-1.2,4.18-1.78,6.29-.58,2.1-1.13,4.26-1.66,6.46h6.83c-.5-2.2-1.04-4.36-1.61-6.46-.57-2.1-1.17-4.2-1.77-6.28Z" style="fill:#4684ab;"/><path d="M327.88,641.08v-26.06h11.69v2.9h-8.31v8.08h7.52v2.82h-7.52v9.36h8.91v2.9h-12.3Z" style="fill:#4684ab;"/><path d="M345.02,615.4c1.75-.43,3.45-.64,5.08-.64,1.3,0,2.48.15,3.53.45,1.05.3,1.96.78,2.71,1.43.75.65,1.33,1.49,1.75,2.52.41,1.03.62,2.27.62,3.72,0,1.8-.34,3.27-1.03,4.38-.69,1.12-1.62,1.96-2.8,2.54.3.5.68,1.18,1.15,2.05.46.86.94,1.82,1.43,2.86.49,1.04.96,2.11,1.43,3.21.46,1.1.86,2.16,1.18,3.16h-3.41c-.27-.75-.62-1.6-1.03-2.56-.41-.95-.84-1.9-1.29-2.84-.45-.94-.9-1.84-1.35-2.71-.45-.87-.85-1.6-1.2-2.2-.4.05-.81.09-1.24.11-.43.03-.85.04-1.28.04h-.94v10.15h-3.31v-25.68ZM348.33,628.15h1.43c1.73,0,3.06-.39,3.99-1.18.93-.79,1.39-2.15,1.39-4.08,0-.98-.12-1.8-.36-2.46-.24-.66-.58-1.19-1.02-1.58-.44-.39-.97-.67-1.58-.85-.61-.18-1.3-.26-2.05-.26-.65,0-1.25.04-1.8.11v10.3Z" style="fill:#4684ab;"/><path d="M381.46,628.08c0,2.03-.18,3.88-.55,5.55-.36,1.67-.93,3.1-1.69,4.29-.77,1.19-1.73,2.11-2.9,2.76-1.17.65-2.54.98-4.12.98s-2.95-.33-4.12-.98c-1.17-.65-2.13-1.57-2.9-2.76-.77-1.19-1.33-2.62-1.71-4.29-.38-1.67-.56-3.52-.56-5.55s.19-3.88.56-5.56.95-3.11,1.71-4.31c.76-1.19,1.73-2.12,2.9-2.78,1.17-.66,2.54-1,4.12-1s2.95.33,4.12,1c1.17.67,2.13,1.59,2.9,2.78.76,1.19,1.33,2.63,1.69,4.31.36,1.68.55,3.53.55,5.56ZM377.85,628.08c0-1.58-.1-3.02-.3-4.32-.2-1.3-.53-2.42-.98-3.37-.45-.94-1.03-1.67-1.75-2.2s-1.59-.79-2.61-.79-1.9.26-2.61.79-1.3,1.26-1.75,2.2c-.45.94-.78,2.06-1,3.37-.21,1.3-.32,2.75-.32,4.32s.11,3.02.32,4.32c.21,1.3.55,2.42,1,3.35s1.03,1.65,1.75,2.16,1.58.77,2.61.77,1.9-.26,2.61-.77,1.3-1.23,1.75-2.16.78-2.04.98-3.35c.2-1.3.3-2.75.3-4.32Z" style="fill:#4684ab;"/><path d="M389.95,638.75c1.35,0,2.4-.38,3.14-1.13s1.11-1.77,1.11-3.05c0-.68-.11-1.28-.34-1.8s-.52-1-.88-1.43c-.36-.43-.78-.81-1.26-1.17-.48-.35-.97-.7-1.47-1.05-.58-.4-1.18-.83-1.8-1.28-.63-.45-1.2-.98-1.71-1.58-.51-.6-.93-1.3-1.26-2.11-.33-.8-.49-1.74-.49-2.82s.18-2,.55-2.86c.36-.85.86-1.58,1.5-2.18s1.4-1.07,2.29-1.39c.89-.33,1.85-.49,2.88-.49s1.93.13,2.78.38c.85.25,1.57.55,2.14.9l-1.05,2.67c-.53-.35-1.1-.62-1.71-.81-.61-.19-1.26-.28-1.94-.28-1.23,0-2.21.33-2.95,1-.74.67-1.11,1.64-1.11,2.91,0,.7.12,1.32.36,1.84.24.53.55,1,.94,1.43.39.43.84.81,1.35,1.17.51.35,1.06.71,1.64,1.09.58.38,1.17.79,1.77,1.24s1.15.97,1.64,1.56c.49.59.89,1.28,1.2,2.07.31.79.47,1.72.47,2.8,0,.98-.15,1.91-.45,2.78-.3.88-.77,1.65-1.41,2.31-.64.66-1.44,1.19-2.41,1.58-.96.39-2.1.58-3.4.58-1.2,0-2.26-.14-3.16-.41-.9-.28-1.7-.64-2.41-1.09l1.05-2.71c.65.4,1.32.72,2.01.96.69.24,1.49.36,2.39.36Z" style="fill:#4684ab;"/><path d="M401.76,615.4c1.75-.43,3.47-.64,5.15-.64,1.3,0,2.49.16,3.55.47,1.06.31,1.98.8,2.74,1.47.76.67,1.35,1.52,1.77,2.58.41,1.05.62,2.32.62,3.8s-.21,2.79-.64,3.85c-.43,1.07-1.03,1.93-1.81,2.59-.78.66-1.71,1.15-2.8,1.45s-2.3.45-3.63.45h-1.58v9.66h-3.38v-25.68ZM405.14,628.45h1.35c.85,0,1.62-.09,2.31-.28.69-.19,1.27-.49,1.75-.92.48-.43.84-.98,1.09-1.65s.38-1.52.38-2.52-.12-1.85-.38-2.54c-.25-.69-.6-1.24-1.03-1.65-.44-.41-.97-.71-1.6-.88-.63-.18-1.32-.26-2.07-.26-.65,0-1.25.04-1.81.11v10.6Z" style="fill:#4684ab;"/><path d="M426.78,615.03c.6,1.88,1.2,3.77,1.78,5.69.59,1.92,1.17,3.93,1.73,6.04s1.13,4.34,1.69,6.69c.56,2.36,1.13,4.9,1.7,7.64h-3.38c-.19-1.13-.4-2.25-.61-3.35-.21-1.1-.43-2.21-.65-3.31h-8.22c-.25,1.1-.48,2.21-.68,3.31-.2,1.1-.4,2.22-.6,3.35h-3.27c.55-2.73,1.12-5.27,1.7-7.63.58-2.36,1.15-4.59,1.72-6.69.57-2.11,1.14-4.12,1.74-6.03.59-1.92,1.19-3.82,1.8-5.7h3.56ZM424.94,618.86c-.61,2.09-1.2,4.18-1.78,6.29-.58,2.1-1.13,4.26-1.66,6.46h6.83c-.5-2.2-1.04-4.36-1.61-6.46-.57-2.1-1.17-4.2-1.77-6.28Z" style="fill:#4684ab;"/><path d="M445.04,641.65c-3.06,0-5.4-1.14-7.03-3.42s-2.44-5.8-2.44-10.57c0-2.43.23-4.49.7-6.17.46-1.68,1.11-3.04,1.94-4.1.83-1.05,1.8-1.81,2.93-2.27s2.36-.7,3.68-.7c1.1,0,2.13.14,3.08.43.95.29,1.73.65,2.33,1.07l-1.02,2.82c-.6-.4-1.25-.73-1.94-.98-.69-.25-1.49-.38-2.39-.38-2.01,0-3.46.83-4.36,2.5s-1.35,4.25-1.35,7.76.48,6.25,1.43,8.16c.95,1.91,2.51,2.86,4.66,2.86,1.03,0,1.86-.12,2.5-.38.64-.25,1.26-.58,1.86-.98l.94,2.67c-.58.45-1.33.84-2.27,1.17-.94.33-2.02.49-3.25.49Z" style="fill:#4684ab;"/><path d="M454.29,641.08v-26.06h11.69v2.9h-8.31v8.08h7.52v2.82h-7.52v9.36h8.91v2.9h-12.29Z" style="fill:#4684ab;"/><path d="M308.96,649.03h3.38v26.06h-3.38v-26.06Z" style="fill:#4684ab;"/><path d="M330.88,675.08c-.6-1.48-1.28-3.08-2.05-4.79s-1.57-3.45-2.41-5.19c-.84-1.74-1.7-3.47-2.58-5.19-.88-1.72-1.74-3.31-2.59-4.79v19.97h-3.16v-26.06h2.82c.95,1.55,1.87,3.15,2.76,4.78.89,1.63,1.74,3.24,2.54,4.83.8,1.59,1.56,3.16,2.27,4.7s1.37,3,1.97,4.38v-18.69h3.16v26.06h-2.74Z" style="fill:#4684ab;"/><path d="M355.81,662.04c0,2.43-.26,4.49-.77,6.18-.51,1.69-1.25,3.06-2.22,4.12-.97,1.05-2.13,1.82-3.5,2.29s-2.89.71-4.57.71-3.51-.23-5.41-.68v-25.27c.95-.2,1.88-.36,2.78-.49.9-.12,1.77-.19,2.59-.19,1.7,0,3.24.24,4.61.71,1.37.48,2.53,1.24,3.5,2.29.96,1.05,1.7,2.42,2.22,4.12.51,1.69.77,3.75.77,6.19ZM352.2,662.04c0-1.86-.14-3.43-.41-4.74-.28-1.3-.7-2.37-1.28-3.2-.58-.83-1.33-1.43-2.27-1.8s-2.06-.56-3.37-.56c-.35,0-.7.01-1.05.04-.35.02-.71.06-1.09.11v20.3c.38.05.74.09,1.09.11.35.03.69.04,1.02.04,1.33,0,2.46-.19,3.38-.56.93-.38,1.69-.97,2.27-1.79s1.02-1.87,1.3-3.18c.28-1.3.41-2.89.41-4.77Z" style="fill:#4684ab;"/><path d="M367.63,675.65c-2.43,0-4.25-.69-5.47-2.07-1.22-1.38-1.82-3.56-1.82-6.54v-18.01h3.38v17.71c0,1.98.29,3.47.86,4.46.58.99,1.62,1.49,3.12,1.49s2.61-.51,3.18-1.52c.56-1.01.85-2.49.85-4.42v-17.71h3.38v18.01c0,2.93-.63,5.1-1.88,6.5-1.25,1.4-3.12,2.11-5.6,2.11Z" style="fill:#4684ab;"/><path d="M384.02,672.75c1.35,0,2.4-.38,3.14-1.13.74-.75,1.11-1.77,1.11-3.05,0-.68-.11-1.28-.34-1.8s-.52-1-.88-1.43c-.36-.43-.78-.81-1.26-1.17-.48-.35-.97-.7-1.47-1.05-.58-.4-1.18-.83-1.8-1.28-.63-.45-1.2-.98-1.71-1.58-.51-.6-.93-1.3-1.26-2.11-.33-.8-.49-1.74-.49-2.82s.18-2,.55-2.86c.36-.85.86-1.58,1.5-2.18s1.4-1.07,2.29-1.39c.89-.33,1.85-.49,2.88-.49s1.93.13,2.78.38c.85.25,1.57.55,2.14.9l-1.05,2.67c-.53-.35-1.1-.62-1.71-.81-.61-.19-1.26-.28-1.94-.28-1.23,0-2.21.33-2.95,1-.74.67-1.11,1.64-1.11,2.91,0,.7.12,1.32.36,1.84.24.53.55,1,.94,1.43.39.43.84.81,1.35,1.17.51.35,1.06.71,1.64,1.09s1.17.79,1.77,1.24,1.15.97,1.64,1.56.89,1.28,1.2,2.07c.31.79.47,1.72.47,2.8,0,.98-.15,1.91-.45,2.78-.3.88-.77,1.65-1.41,2.31s-1.44,1.19-2.41,1.58c-.97.39-2.1.58-3.4.58-1.2,0-2.26-.14-3.16-.41-.9-.28-1.7-.64-2.41-1.09l1.05-2.71c.65.4,1.32.72,2.01.96.69.24,1.49.36,2.39.36Z" style="fill:#4684ab;"/><path d="M408.99,649.03v2.9h-5.79v23.16h-3.38v-23.16h-5.79v-2.9h14.96Z" style="fill:#4684ab;"/><path d="M412.61,649.4c1.75-.43,3.45-.64,5.08-.64,1.3,0,2.48.15,3.53.45s1.96.78,2.71,1.43c.75.65,1.33,1.49,1.75,2.52.41,1.03.62,2.27.62,3.72,0,1.8-.34,3.27-1.03,4.38-.69,1.12-1.62,1.96-2.8,2.54.3.5.68,1.18,1.15,2.05.46.86.94,1.82,1.43,2.86.49,1.04.96,2.11,1.43,3.21.46,1.1.86,2.16,1.18,3.16h-3.41c-.27-.75-.62-1.6-1.03-2.56-.41-.95-.84-1.9-1.29-2.84-.45-.94-.9-1.84-1.35-2.71-.45-.87-.85-1.6-1.2-2.2-.4.05-.82.09-1.24.11-.43.03-.85.04-1.28.04h-.94v10.15h-3.31v-25.68ZM415.92,662.15h1.43c1.73,0,3.06-.39,3.99-1.18.93-.79,1.39-2.15,1.39-4.08,0-.98-.12-1.8-.36-2.46-.24-.66-.58-1.19-1.02-1.58s-.96-.67-1.58-.85c-.61-.18-1.3-.26-2.05-.26-.65,0-1.25.04-1.81.11v10.3Z" style="fill:#4684ab;"/><path d="M431.56,649.03h3.38v26.06h-3.38v-26.06Z" style="fill:#4684ab;"/><path d="M440.69,675.08v-26.06h11.69v2.9h-8.31v8.08h7.52v2.82h-7.52v9.36h8.91v2.9h-12.29Z" style="fill:#4684ab;"/><path d="M461.54,672.75c1.35,0,2.4-.38,3.14-1.13s1.11-1.77,1.11-3.05c0-.68-.11-1.28-.34-1.8s-.52-1-.88-1.43c-.36-.43-.78-.81-1.26-1.17-.48-.35-.96-.7-1.47-1.05-.58-.4-1.18-.83-1.8-1.28s-1.2-.98-1.71-1.58-.93-1.3-1.26-2.11c-.33-.8-.49-1.74-.49-2.82s.18-2,.54-2.86c.36-.85.87-1.58,1.5-2.18.64-.6,1.4-1.07,2.29-1.39.89-.33,1.85-.49,2.88-.49s1.93.13,2.78.38c.85.25,1.57.55,2.14.9l-1.05,2.67c-.53-.35-1.1-.62-1.71-.81-.61-.19-1.26-.28-1.94-.28-1.23,0-2.21.33-2.95,1-.74.67-1.11,1.64-1.11,2.91,0,.7.12,1.32.36,1.84s.55,1,.94,1.43c.39.43.84.81,1.35,1.17.51.35,1.06.71,1.64,1.09.58.38,1.17.79,1.77,1.24s1.15.97,1.64,1.56c.49.59.89,1.28,1.2,2.07.31.79.47,1.72.47,2.8,0,.98-.15,1.91-.45,2.78-.3.88-.77,1.65-1.41,2.31-.64.66-1.44,1.19-2.41,1.58-.96.39-2.1.58-3.4.58-1.2,0-2.26-.14-3.16-.41s-1.71-.64-2.41-1.09l1.05-2.71c.65.4,1.32.72,2.01.96.69.24,1.48.36,2.39.36Z" style="fill:#4684ab;"/><path d="M315.63,681.95c.52,1.64,1.04,3.29,1.56,4.97.51,1.67,1.02,3.43,1.51,5.26.49,1.84.98,3.78,1.47,5.84.49,2.06.99,4.28,1.48,6.66h-2.95c-.17-.99-.35-1.96-.53-2.92s-.37-1.92-.57-2.89h-7.17c-.22.96-.42,1.92-.59,2.89s-.35,1.94-.52,2.92h-2.85c.48-2.38.98-4.6,1.48-6.66.5-2.06,1-4,1.5-5.84.49-1.84,1-3.59,1.51-5.26.52-1.67,1.04-3.33,1.57-4.97h3.11ZM314.02,685.3c-.53,1.82-1.05,3.65-1.55,5.48-.5,1.83-.99,3.71-1.45,5.64h5.95c-.44-1.92-.91-3.8-1.41-5.64-.5-1.84-1.02-3.66-1.54-5.48Z" style="fill:#4684ab;"/><path d="M328.21,702.65c1.18,0,2.09-.33,2.74-.98.64-.66.97-1.54.97-2.66,0-.59-.1-1.12-.29-1.57s-.45-.87-.77-1.25c-.32-.37-.68-.71-1.1-1.02-.42-.31-.84-.61-1.28-.92-.5-.35-1.03-.72-1.57-1.12-.55-.39-1.04-.85-1.49-1.38-.45-.53-.81-1.14-1.1-1.84-.28-.7-.43-1.52-.43-2.46s.16-1.75.48-2.49c.32-.74.75-1.38,1.31-1.9s1.22-.93,2-1.21c.78-.28,1.61-.43,2.51-.43s1.68.11,2.43.33c.74.22,1.37.48,1.87.79l-.92,2.33c-.46-.31-.96-.54-1.49-.71-.54-.16-1.1-.25-1.69-.25-1.07,0-1.93.29-2.57.87-.65.58-.97,1.43-.97,2.54,0,.61.1,1.15.31,1.61s.48.88.82,1.25c.34.37.73.71,1.18,1.02.45.31.92.62,1.43.95.5.33,1.02.69,1.54,1.08.52.39,1,.85,1.43,1.36.43.51.78,1.12,1.05,1.8.27.69.41,1.5.41,2.44,0,.85-.13,1.66-.39,2.43-.26.77-.67,1.44-1.23,2.02s-1.26,1.04-2.1,1.38-1.83.51-2.97.51c-1.05,0-1.97-.12-2.75-.36-.79-.24-1.49-.56-2.1-.95l.92-2.36c.57.35,1.15.63,1.75.84.6.21,1.3.31,2.08.31Z" style="fill:#4684ab;"/><path d="M341.33,702.65c1.18,0,2.09-.33,2.74-.98.64-.66.97-1.54.97-2.66,0-.59-.1-1.12-.29-1.57s-.45-.87-.77-1.25c-.32-.37-.68-.71-1.1-1.02-.42-.31-.84-.61-1.28-.92-.5-.35-1.03-.72-1.57-1.12-.55-.39-1.04-.85-1.49-1.38-.45-.53-.81-1.14-1.1-1.84-.28-.7-.43-1.52-.43-2.46s.16-1.75.48-2.49c.32-.74.75-1.38,1.31-1.9s1.22-.93,2-1.21c.78-.28,1.61-.43,2.51-.43s1.68.11,2.43.33c.74.22,1.37.48,1.87.79l-.92,2.33c-.46-.31-.96-.54-1.49-.71-.54-.16-1.1-.25-1.69-.25-1.07,0-1.93.29-2.57.87-.65.58-.97,1.43-.97,2.54,0,.61.1,1.15.31,1.61s.48.88.82,1.25c.34.37.73.71,1.18,1.02.45.31.92.62,1.43.95.5.33,1.02.69,1.54,1.08.52.39,1,.85,1.43,1.36.43.51.78,1.12,1.05,1.8.27.69.41,1.5.41,2.44,0,.85-.13,1.66-.39,2.43-.26.77-.67,1.44-1.23,2.02s-1.26,1.04-2.1,1.38-1.83.51-2.97.51c-1.05,0-1.97-.12-2.75-.36-.79-.24-1.49-.56-2.1-.95l.92-2.36c.57.35,1.15.63,1.75.84.6.21,1.3.31,2.08.31Z" style="fill:#4684ab;"/><path d="M367.21,693.34c0,1.77-.16,3.38-.48,4.84-.32,1.45-.81,2.7-1.48,3.74-.67,1.04-1.51,1.84-2.53,2.41-1.02.57-2.21.85-3.59.85s-2.57-.28-3.59-.85c-1.02-.57-1.86-1.37-2.53-2.41-.67-1.04-1.16-2.29-1.49-3.74-.33-1.45-.49-3.07-.49-4.84s.16-3.39.49-4.85c.33-1.46.83-2.72,1.49-3.76.67-1.04,1.51-1.85,2.53-2.43,1.02-.58,2.21-.87,3.59-.87s2.57.29,3.59.87c1.02.58,1.86,1.39,2.53,2.43.67,1.04,1.16,2.29,1.48,3.76.32,1.46.48,3.08.48,4.85ZM364.06,693.34c0-1.38-.09-2.63-.26-3.77-.18-1.14-.46-2.12-.85-2.94-.39-.82-.9-1.46-1.53-1.92-.62-.46-1.38-.69-2.28-.69s-1.66.23-2.28.69c-.62.46-1.13,1.1-1.52,1.92-.39.82-.68,1.8-.87,2.94-.19,1.14-.28,2.39-.28,3.77s.09,2.63.28,3.77c.19,1.14.48,2.11.87,2.92.39.81.9,1.44,1.52,1.89.62.45,1.38.67,2.28.67s1.66-.22,2.28-.67c.62-.45,1.13-1.08,1.53-1.89.39-.81.68-1.78.85-2.92.17-1.14.26-2.39.26-3.77Z" style="fill:#4684ab;"/><path d="M379.11,705.18c-2.67,0-4.71-1-6.13-2.99-1.42-1.99-2.13-5.06-2.13-9.22,0-2.12.2-3.91.61-5.38.4-1.46.97-2.66,1.69-3.58.72-.92,1.57-1.58,2.56-1.98.98-.4,2.06-.61,3.21-.61.96,0,1.86.13,2.69.38.83.25,1.51.56,2.03.93l-.89,2.46c-.52-.35-1.09-.63-1.69-.85s-1.3-.33-2.08-.33c-1.75,0-3.02.73-3.8,2.18-.79,1.45-1.18,3.71-1.18,6.77s.42,5.46,1.25,7.12c.83,1.66,2.19,2.49,4.07,2.49.9,0,1.62-.11,2.18-.33s1.1-.5,1.62-.85l.82,2.33c-.5.39-1.16.73-1.98,1.02s-1.77.43-2.84.43Z" style="fill:#4684ab;"/><path d="M387.18,681.95h2.95v22.73h-2.95v-22.73Z" style="fill:#4684ab;"/><path d="M402.71,681.95c.52,1.64,1.04,3.29,1.56,4.97s1.02,3.43,1.51,5.26c.49,1.84.98,3.78,1.47,5.84.49,2.06.99,4.28,1.48,6.66h-2.95c-.17-.99-.35-1.96-.53-2.92-.18-.96-.37-1.92-.57-2.89h-7.17c-.22.96-.42,1.92-.59,2.89-.18.96-.35,1.94-.52,2.92h-2.85c.48-2.38.98-4.6,1.48-6.66.5-2.06,1-4,1.5-5.84.49-1.84,1-3.59,1.51-5.26.52-1.67,1.04-3.33,1.57-4.97h3.11ZM401.1,685.3c-.53,1.82-1.05,3.65-1.56,5.48-.5,1.83-.99,3.71-1.45,5.64h5.95c-.44-1.92-.91-3.8-1.41-5.64s-1.02-3.66-1.54-5.48Z" style="fill:#4684ab;"/><path d="M421.75,681.95v2.53h-5.05v20.21h-2.95v-20.21h-5.05v-2.53h13.05Z" style="fill:#4684ab;"/><path d="M424.97,681.95h2.95v22.73h-2.95v-22.73Z" style="fill:#4684ab;"/><path d="M448.68,693.34c0,1.77-.16,3.38-.48,4.84-.32,1.45-.81,2.7-1.48,3.74-.67,1.04-1.51,1.84-2.53,2.41s-2.21.85-3.59.85-2.58-.28-3.59-.85-1.86-1.37-2.53-2.41c-.67-1.04-1.16-2.29-1.49-3.74s-.49-3.07-.49-4.84.16-3.39.49-4.85.83-2.72,1.49-3.76c.67-1.04,1.51-1.85,2.53-2.43s2.21-.87,3.59-.87,2.58.29,3.59.87,1.86,1.39,2.53,2.43c.67,1.04,1.16,2.29,1.48,3.76.32,1.46.48,3.08.48,4.85ZM445.53,693.34c0-1.38-.09-2.63-.26-3.77-.17-1.14-.46-2.12-.85-2.94-.39-.82-.9-1.46-1.53-1.92-.62-.46-1.38-.69-2.28-.69s-1.66.23-2.28.69c-.62.46-1.13,1.1-1.53,1.92-.39.82-.68,1.8-.87,2.94-.19,1.14-.28,2.39-.28,3.77s.09,2.63.28,3.77c.19,1.14.48,2.11.87,2.92.39.81.9,1.44,1.53,1.89.62.45,1.38.67,2.28.67s1.66-.22,2.28-.67,1.13-1.08,1.53-1.89c.39-.81.68-1.78.85-2.92.17-1.14.26-2.39.26-3.77Z" style="fill:#4684ab;"/><path d="M464.42,704.68c-.52-1.29-1.12-2.68-1.79-4.18s-1.37-3.01-2.1-4.53c-.73-1.52-1.48-3.03-2.25-4.53s-1.52-2.89-2.26-4.18v17.42h-2.76v-22.73h2.46c.83,1.36,1.63,2.74,2.41,4.17.78,1.42,1.51,2.83,2.21,4.21.7,1.39,1.36,2.75,1.98,4.1s1.2,2.62,1.72,3.82v-16.3h2.75v22.73h-2.39Z" style="fill:#4684ab;"/></svg>