<?xml version="1.0" encoding="UTF-8"?><svg id="uuid-3f899830-4184-486c-a566-1cffe215520e" xmlns="http://www.w3.org/2000/svg" width="204.03mm" height="109.78mm" viewBox="0 0 578.35 311.19"><g id="uuid-25784d54-943b-4b01-b576-3d7f69fdbce8"><polygon points="559.35 193.34 535.58 229.18 198.46 109.98 559.35 193.34" style="fill:#090909;"/><path d="M247.12,121.84c1.04-.29,26.48-26.16,16.58-45.06-10.14-19.37-18.37-28.88-41.23-37.17-2.3-.84-11.56-4.75-12.35-.96-.97,4.68,15.92,6.23,18.43,24.42.42,3.07,5.19,40.48-33.25,39.72-31.14-.61-32.48-28.24-32.17-33.4,1.17-19.86,19.05-24.37,17-28.89-3.43-7.57-49.76,5.93-49.11,43.12.52,29.72,31.74,51.88,45.55,62.27-11.77-3.6-27.1-9.3-40.92-17.32-28.63-16.6-28.79-33.39-29.04-43.08,0,0-24.83,28.9-48.85,40.91-27.03,13.51-38.77,9.08-38.77,9.08,0,0,19.27-7.09,52.72-43.64C93.75,67.76,118.45,6.77,204.34,10.37c62.03,2.6,72.5,30.07,133.15,45.47-25.32,3.44-61.51-4.64-61.51-4.64,0,0,6.14,1.23,7.87,25.16.91,12.49-5.46,35.11-21.28,49.12l-15.45-3.63Z" style="fill:#090909;"/><polygon points="198.46 109.98 467.57 269.5 392.69 278.54 198.46 109.98" style="fill:#359cd7;"/><polygon points="198.46 109.98 382.43 280.33 303.52 280.33 198.46 109.98" style="fill:#cd1e75;"/><path d="M275.49,234.83l-1-.5s.64-.13,1,.5Z" style="fill:#db3e92;"/><path d="M198.46,109.98c107.3,38.66,329.73,126.43,329.73,126.43l-51.94,28.36s-187.43-104.16-277.79-154.8Z" style="fill:#f0e92a;"/><path d="M234.49,130.83l-1.5-.5c.12.07.73.04,1.5.5Z" style="fill:#f4f5c6;"/></g><path d="M532.11,289.65c-9.12,0-16.53-7.41-16.53-16.53s7.41-16.53,16.53-16.53,16.48,7.45,16.48,16.53-7.36,16.53-16.48,16.53ZM532.11,258.93c-7.79,0-13.95,6.4-13.95,14.14s6.16,14.24,13.95,14.24,13.9-6.5,13.9-14.19-6.07-14.19-13.9-14.19ZM534.84,282.72l-3.92-8.41v8.41h-3.34v-19.25h4.4c3.97,0,5.54,1.29,5.54,5.3,0,2.39-.91,4.73-3.58,4.92l4.4,9.03h-3.49ZM531.78,271.45c2.05,0,2.48-1,2.48-2.87,0-2.01-.53-2.77-2.63-2.77h-.72v5.64h.86Z" style="fill:#231f20;"/></svg>