<?xml version="1.0" encoding="UTF-8"?><svg id="uuid-9bf42bb3-8ca3-4310-8d2a-ee82dc609955" xmlns="http://www.w3.org/2000/svg" width="431.07mm" height="110.25mm" viewBox="0 0 1221.92 312.52"><g id="uuid-d578ad4a-7e99-4d73-a868-e7057360f52d"><polygon points="555.47 187.1 531.69 222.94 194.58 103.74 555.47 187.1" style="fill:#090909;"/><path d="M243.23,115.6c1.04-.29,26.48-26.16,16.58-45.06-10.14-19.37-18.37-28.88-41.23-37.17-2.3-.84-11.56-4.75-12.35-.96-.97,4.68,15.92,6.23,18.43,24.42.42,3.07,5.19,40.48-33.25,39.72-31.14-.61-32.48-28.24-32.17-33.4,1.17-19.86,19.05-24.37,17-28.89-3.43-7.57-49.76,5.93-49.11,43.12.52,29.72,31.74,51.88,45.55,62.27-11.77-3.6-27.1-9.3-40.92-17.32-28.63-16.6-28.79-33.39-29.04-43.08,0,0-24.83,28.9-48.85,40.91-27.03,13.51-38.77,9.08-38.77,9.08,0,0,19.27-7.09,52.72-43.64C89.86,61.52,114.57.53,200.46,4.13c62.03,2.6,72.5,30.07,133.15,45.47-25.32,3.44-61.51-4.64-61.51-4.64,0,0,6.14,1.23,7.87,25.16.91,12.49-5.46,35.11-21.28,49.12l-15.45-3.63Z" style="fill:#090909;"/><polygon points="194.58 103.74 463.68 263.26 388.8 272.3 194.58 103.74" style="fill:#359cd7;"/><polygon points="194.58 103.74 378.55 274.09 299.63 274.09 194.58 103.74" style="fill:#cd1e75;"/><path d="M271.6,228.6l-1-.5s.64-.13,1,.5Z" style="fill:#db3e92;"/><path d="M194.58,103.74c107.3,38.66,329.73,126.43,329.73,126.43l-51.94,28.36s-187.43-104.16-277.79-154.8Z" style="fill:#f0e92a;"/><path d="M230.6,124.6l-1.5-.5c.12.07.73.04,1.5.5Z" style="fill:#f4f5c6;"/></g><path d="M510.17,147.62h-11.71l10.77-88.72h11.84l-10.91,88.72Z" style="fill:#231f20;"/><path d="M539.7,95.08c3.33-4.79,6.78-7.85,12.9-7.85,6.65,0,10.24,3.99,10.24,10.51,0,2.53-.27,5.05-.53,7.58l-5.19,42.3h-10.91l4.92-39.77c.13-1.6.4-3.19.4-4.79,0-3.46-1.6-6.25-5.32-6.25-6.65,0-7.58,7.18-8.25,12.37l-4.79,38.44h-10.77l7.32-59.46h10.77l-.8,6.92Z" style="fill:#231f20;"/><path d="M592.9,96.68h-5.85l-6.25,50.94h-10.77l6.25-50.94h-5.99l1.06-8.51h5.99l2-16.89h10.77l-2,16.89h5.85l-1.06,8.51Z" style="fill:#231f20;"/><path d="M628.42,127.54c-.67,4.39-1.46,8.11-3.72,11.97-3.19,5.72-9.18,9.04-15.7,9.04-11.97,0-15.03-9.44-15.03-19.69,0-7.58,1.06-15.03,2.93-22.35,2.53-9.71,7.85-19.29,19.29-19.29s14.5,11.04,14.5,20.62c0,4.12-.4,8.25-.93,12.24h-24.61c-.27,2.66-.53,5.19-.53,7.85,0,4.12,0,11.17,5.72,11.17s7.45-7.05,7.98-11.57h10.11ZM619.9,105.72c0-3.46-.27-9.18-5.05-9.18-6.38,0-7.85,10.91-8.78,15.56h13.7c.13-1.46.13-2.93.13-4.39v-2Z" style="fill:#231f20;"/><path d="M664.86,98.28c-.67-.13-1.2-.13-1.86-.13-9.04,0-11.44,5.45-12.37,13.43l-4.52,36.05h-10.77l7.32-59.46h10.77l-.93,7.45c3.86-5.32,6.92-8.25,13.83-8.78l-1.46,11.44Z" style="fill:#231f20;"/><path d="M682.55,95.08c3.33-4.79,6.78-7.85,12.9-7.85,6.65,0,10.24,3.99,10.24,10.51,0,2.53-.27,5.05-.53,7.58l-5.19,42.3h-10.91l4.92-39.77c.13-1.6.4-3.19.4-4.79,0-3.46-1.6-6.25-5.32-6.25-6.65,0-7.58,7.18-8.25,12.37l-4.79,38.44h-10.77l7.32-59.46h10.77l-.8,6.92Z" style="fill:#231f20;"/><path d="M744.93,147.62h-10.77l.93-7.58c-2.79,4.92-5.72,8.51-11.84,8.51-9.44,0-11.04-9.84-11.04-17.29,0-11.97,1.73-44.03,18.62-44.03,5.32,0,7.98,3.06,9.84,7.71l.8-6.78h10.77l-7.32,59.46ZM733.89,97.21c-5.59,0-7.32,6.92-8.25,11.31-1.46,6.78-2.39,13.7-2.39,20.62,0,3.72.4,9.58,5.45,9.58s6.65-6.25,7.58-10.11c1.73-7.18,2.66-14.63,2.66-22.08,0-3.46-.4-9.31-5.05-9.31Z" style="fill:#231f20;"/><path d="M780.7,96.68h-5.85l-6.25,50.94h-10.77l6.25-50.94h-5.99l1.06-8.51h5.99l2-16.89h10.77l-2,16.89h5.85l-1.06,8.51Z" style="fill:#231f20;"/><path d="M792.28,147.62h-10.77l7.32-59.46h10.77l-7.32,59.46ZM794.94,77.79c-3.59,0-6.38-2.93-6.38-6.52,0-4.39,3.99-8.38,8.38-8.38,3.86,0,6.38,2.93,6.38,6.65,0,4.39-3.99,8.25-8.38,8.25Z" style="fill:#231f20;"/><path d="M819.81,148.55c-12.24,0-15.16-9.71-15.16-20.08,0-14.9,3.19-41.23,22.88-41.23,11.84,0,15.3,9.44,15.3,19.69,0,14.9-3.06,41.63-23.01,41.63ZM826.32,97.21c-2.39,0-3.86,1.2-5.05,3.06-3.72,5.59-5.19,22.48-5.19,29.4,0,3.59.67,8.65,5.32,8.65,2.39,0,3.86-1.2,5.19-3.19,3.72-5.59,5.19-22.35,5.19-29.26,0-3.72-.67-8.65-5.45-8.65Z" style="fill:#231f20;"/><path d="M865.16,95.08c3.33-4.79,6.78-7.85,12.9-7.85,6.65,0,10.24,3.99,10.24,10.51,0,2.53-.27,5.05-.53,7.58l-5.19,42.3h-10.91l4.92-39.77c.13-1.6.4-3.19.4-4.79,0-3.46-1.6-6.25-5.32-6.25-6.65,0-7.58,7.18-8.25,12.37l-4.79,38.44h-10.77l7.32-59.46h10.77l-.8,6.92Z" style="fill:#231f20;"/><path d="M927.54,147.62h-10.77l.93-7.58c-2.79,4.92-5.72,8.51-11.84,8.51-9.44,0-11.04-9.84-11.04-17.29,0-11.97,1.73-44.03,18.62-44.03,5.32,0,7.98,3.06,9.84,7.71l.8-6.78h10.77l-7.32,59.46ZM916.5,97.21c-5.59,0-7.32,6.92-8.25,11.31-1.46,6.78-2.39,13.7-2.39,20.62,0,3.72.4,9.58,5.45,9.58s6.65-6.25,7.58-10.11c1.73-7.18,2.66-14.63,2.66-22.08,0-3.46-.4-9.31-5.05-9.31Z" style="fill:#231f20;"/><path d="M949.88,147.62h-10.77l11.84-96.96h10.77l-11.84,96.96Z" style="fill:#231f20;"/><path d="M609.37,197.61c-2.26-1.33-4.66-2.26-7.32-2.26-7.71,0-12.77,6.25-15.43,12.9-3.72,9.18-5.72,24.47-5.72,34.45,0,9.18,1.73,20.88,13.43,20.88,2.53,0,4.79-.53,7.05-1.73l-1.33,10.91c-3.33,2-5.85,2.53-9.71,2.53-17.69,0-22.08-15.03-22.08-29.93,0-12.5,2.53-29.13,7.05-40.7,4.39-11.31,12.77-20.35,25.67-20.35,3.86,0,6.25.4,9.58,2.53l-1.2,10.77Z" style="fill:#231f20;"/><path d="M624.53,275.03c-12.24,0-15.16-9.71-15.16-20.08,0-14.9,3.19-41.23,22.88-41.23,11.84,0,15.3,9.44,15.3,19.69,0,14.9-3.06,41.63-23.01,41.63ZM631.05,223.68c-2.39,0-3.86,1.2-5.05,3.06-3.72,5.59-5.19,22.48-5.19,29.4,0,3.59.67,8.65,5.32,8.65,2.39,0,3.86-1.2,5.19-3.19,3.72-5.59,5.19-22.35,5.19-29.26,0-3.72-.67-8.65-5.45-8.65Z" style="fill:#231f20;"/><path d="M663.37,274.09h-10.77l11.84-96.96h10.77l-11.84,96.96Z" style="fill:#231f20;"/><path d="M690.77,275.03c-12.24,0-15.16-9.71-15.16-20.08,0-14.9,3.19-41.23,22.88-41.23,11.84,0,15.3,9.44,15.3,19.69,0,14.9-3.06,41.63-23.01,41.63ZM697.28,223.68c-2.39,0-3.86,1.2-5.05,3.06-3.72,5.59-5.19,22.48-5.19,29.4,0,3.59.67,8.65,5.32,8.65,2.39,0,3.86-1.2,5.19-3.19,3.72-5.59,5.19-22.35,5.19-29.26,0-3.72-.67-8.65-5.45-8.65Z" style="fill:#231f20;"/><path d="M748.36,224.75c-.67-.13-1.2-.13-1.86-.13-9.04,0-11.44,5.45-12.37,13.43l-4.52,36.05h-10.77l7.32-59.46h10.77l-.93,7.45c3.86-5.32,6.92-8.25,13.83-8.78l-1.46,11.44Z" style="fill:#231f20;"/><path d="M815.71,198.81c-2.26-1.33-4.66-2.26-7.32-2.26-7.71,0-12.77,6.25-15.43,12.9-3.72,9.18-5.72,24.47-5.72,34.45,0,9.18,1.73,20.88,13.43,20.88,2.53,0,4.79-.53,7.05-1.73l-1.33,10.91c-3.33,2-5.85,2.53-9.71,2.53-17.69,0-22.08-15.03-22.08-29.93,0-12.5,2.53-29.13,7.05-40.7,4.39-11.31,12.77-20.35,25.67-20.35,3.86,0,6.25.4,9.58,2.53l-1.2,10.77Z" style="fill:#231f20;"/><path d="M830.2,276.22c-12.24,0-15.16-9.71-15.16-20.08,0-14.9,3.19-41.23,22.88-41.23,11.84,0,15.3,9.44,15.3,19.69,0,14.9-3.06,41.63-23.01,41.63ZM836.72,224.88c-2.39,0-3.86,1.2-5.05,3.06-3.72,5.59-5.19,22.48-5.19,29.4,0,3.59.67,8.65,5.32,8.65,2.39,0,3.86-1.2,5.19-3.19,3.72-5.59,5.19-22.35,5.19-29.26,0-3.72-.67-8.65-5.45-8.65Z" style="fill:#231f20;"/><path d="M874.89,222.75c3.33-4.79,6.78-7.85,12.9-7.85,6.65,0,10.24,3.99,10.24,10.51,0,2.53-.27,5.05-.53,7.58l-5.19,42.3h-10.91l4.92-39.77c.13-1.6.4-3.19.4-4.79,0-3.46-1.6-6.25-5.32-6.25-6.65,0-7.58,7.18-8.25,12.37l-4.79,38.44h-10.77l7.32-59.46h10.77l-.8,6.92Z" style="fill:#231f20;"/><path d="M931.68,227.27c-2.26-1.73-4.92-2.93-7.85-2.93-3.99,0-7.85,3.33-7.85,7.45,0,8.51,14.9,10.51,14.9,24.21,0,11.17-7.71,20.22-19.15,20.22-3.86,0-5.99-.67-9.18-2.79l1.33-10.64c2.53,2.13,5.05,3.59,8.51,3.59,5.19,0,8.38-3.59,8.38-8.65,0-8.78-15.16-11.57-15.16-24.34,0-10.51,7.32-18.89,18.09-18.89,3.46,0,6.38.8,9.31,2.53l-1.33,10.24Z" style="fill:#231f20;"/><path d="M951.9,276.22c-12.24,0-15.16-9.71-15.16-20.08,0-14.9,3.19-41.23,22.88-41.23,11.84,0,15.3,9.44,15.3,19.69,0,14.9-3.06,41.63-23.01,41.63ZM958.42,224.88c-2.39,0-3.86,1.2-5.05,3.06-3.72,5.59-5.19,22.48-5.19,29.4,0,3.59.67,8.65,5.32,8.65,2.39,0,3.86-1.2,5.19-3.19,3.72-5.59,5.19-22.35,5.19-29.26,0-3.72-.67-8.65-5.45-8.65Z" style="fill:#231f20;"/><path d="M1008.83,225.94c-.67-.13-1.2-.13-1.86-.13-9.04,0-11.44,5.45-12.37,13.43l-4.52,36.05h-10.77l7.32-59.46h10.77l-.93,7.45c3.86-5.32,6.92-8.25,13.83-8.78l-1.46,11.44Z" style="fill:#231f20;"/><path d="M1035.29,224.34h-5.85l-6.25,50.94h-10.77l6.25-50.94h-5.99l1.06-8.51h5.99l2-16.89h10.77l-2,16.89h5.85l-1.06,8.51Z" style="fill:#231f20;"/><path d="M1046.2,275.29h-10.77l7.32-59.46h10.77l-7.32,59.46ZM1048.86,205.46c-3.59,0-6.38-2.93-6.38-6.52,0-4.39,3.99-8.38,8.38-8.38,3.86,0,6.38,2.93,6.38,6.65,0,4.39-3.99,8.25-8.38,8.25Z" style="fill:#231f20;"/><path d="M1094.88,251.48c-1.73,14.37-3.72,24.87-21.02,24.87-9.71,0-14.76-4.92-14.76-14.63,0-2.26.27-4.39.53-6.65l4.79-39.24h10.77l-4.39,35.65c-.4,2.79-.67,5.45-.67,8.25,0,4.39,1.73,6.12,6.12,6.12,5.72,0,6.52-5.32,7.18-9.84.27-1.46.53-3.06.67-4.52l4.26-35.65h10.91l-4.39,35.65Z" style="fill:#231f20;"/><path d="M1120.01,223.15c3.19-4.66,6.92-8.25,12.9-8.25s8.78,2.66,9.98,8.25c3.33-5.19,6.92-8.25,13.3-8.25s11.17,3.46,11.17,10.24c0,.93,0,1.86-.13,2.79l-5.85,47.35h-10.77l4.79-39.1c.27-1.86.4-3.72.4-5.59,0-3.46-1.2-5.72-4.92-5.72-6.78,0-7.45,5.99-8.11,11.31l-4.79,39.1h-11.17l4.79-39.1c.27-2,.4-3.86.4-5.85,0-3.46-1.86-5.45-5.32-5.45-6.65,0-7.45,6.12-8.11,11.31l-4.92,39.1h-10.77l7.32-59.46h10.77l-.93,7.32Z" style="fill:#231f20;"/><path d="M1194.88,216.46c-9.12,0-16.53-7.41-16.53-16.53s7.41-16.53,16.53-16.53,16.48,7.45,16.48,16.53-7.36,16.53-16.48,16.53ZM1194.88,185.74c-7.79,0-13.95,6.4-13.95,14.14s6.16,14.24,13.95,14.24,13.9-6.5,13.9-14.19-6.07-14.19-13.9-14.19ZM1197.61,209.53l-3.92-8.41v8.41h-3.34v-19.25h4.39c3.97,0,5.54,1.29,5.54,5.3,0,2.39-.91,4.73-3.58,4.92l4.4,9.03h-3.49ZM1194.55,198.26c2.05,0,2.48-1,2.48-2.87,0-2.01-.53-2.77-2.63-2.77h-.72v5.64h.86Z" style="fill:#231f20;"/></svg>