<?xml version="1.0" encoding="UTF-8"?><svg id="uuid-75011c32-23f5-4667-82af-3063520eb52e" xmlns="http://www.w3.org/2000/svg" width="213.22mm" height="110.25mm" viewBox="0 0 604.4 312.52"><path d="M355.46,49.53c-6.88,0-12.45-5.58-12.45-12.45s5.58-12.46,12.45-12.46,12.42,5.62,12.42,12.46-5.54,12.45-12.42,12.45ZM355.46,26.39c-5.87,0-10.51,4.82-10.51,10.65s4.64,10.73,10.51,10.73,10.47-4.9,10.47-10.69-4.57-10.69-10.47-10.69ZM357.51,44.31l-2.95-6.34v6.34h-2.52v-14.51h3.31c2.99,0,4.18.97,4.18,4,0,1.8-.68,3.56-2.7,3.71l3.31,6.8h-2.63ZM355.21,35.82c1.55,0,1.87-.76,1.87-2.16,0-1.51-.4-2.09-1.98-2.09h-.54v4.25h.65Z" style="fill:#231f20;"/><polygon points="437.19 312.52 232.24 123.65 516.06 299.55 437.19 312.52" style="fill:#00aeef;"/><polyline points="568.51 266.35 232.24 123.65 516.02 299.54 568.51 266.35" style="fill:#fff200;"/><polygon points="604.4 223.52 567.74 267.13 232.24 123.65 604.4 223.52" style="fill:#231f20;"/><path d="M268.04,132.99s21.15-26.49,25.42-44.1c4.66-19.21-1.89-33.3-4.15-39.95-.84-2.49-1.56-6.23-1.56-6.23l56.56,8.3S266.57,17.25,234.81,6.36C224.42,2.79,202.45-.37,192.31.03c-50.93,2.01-83.71,29.27-92.07,37.88-7.48,7.71-51.64,59.4-54.8,63.94C32.27,120.77,0,140.08,0,140.08c0,0,28.11.98,44.92-11.24,27.17-19.75,36.73-33.62,39.43-37.36,1.95-2.69,8.42-9.83,10.38-9.86,3.11-.05,10.73,32.24,22.31,43.59,25.94,25.42,49.29,25.42,49.29,25.42,0,0-40.99-18.68-45.66-57.59-4.67-38.91,29.41-56.03,33.09-57.47,12.59-4.89,26.53-5.75,26.53-5.75,0,0-15.77,16.99-16.55,31.04-.52,9.33,11.29,48.22,30.09,48.26,16.77.03,32.78-25.03,30.61-43.07-2.19-18.18-6.75-38.91-6.75-38.91,0,0,23.1,2.93,43.59,21.79,9.04,8.32,21.27,23.87,17.12,45.14-4.15,21.27-17.81,37.08-17.81,37.08l7.44,1.84Z" style="fill:#231f20;"/><polygon points="232.24 123.65 353.3 310.86 437.46 312.5 232.24 123.65" style="fill:#ec008c;"/></svg>