<?xml version="1.0" encoding="UTF-8"?><svg id="uuid-a9399c17-940c-43a4-b6af-ecefe0abff7b" xmlns="http://www.w3.org/2000/svg" width="164.12mm" height="59.23mm" xmlns:xlink="http://www.w3.org/1999/xlink" viewBox="0 0 465.23 167.88"><defs><radialGradient id="uuid-a16ea55d-937c-4a3c-acc3-d0ff4d909cab" cx="122.48" cy="88.15" fx="122.48" fy="88.15" r="45.61" gradientTransform="translate(-26.3 -31.69) scale(.76)" gradientUnits="userSpaceOnUse"><stop offset="0" stop-color="#fff"/><stop offset=".14" stop-color="#fff" stop-opacity=".99"/><stop offset=".27" stop-color="#fff" stop-opacity=".94"/><stop offset=".39" stop-color="#fff" stop-opacity=".87"/><stop offset=".51" stop-color="#fff" stop-opacity=".77"/><stop offset=".63" stop-color="#fff" stop-opacity=".63"/><stop offset=".74" stop-color="#fff" stop-opacity=".47"/><stop offset=".86" stop-color="#fff" stop-opacity=".28"/><stop offset=".97" stop-color="#fff" stop-opacity=".06"/><stop offset="1" stop-color="#fff" stop-opacity="0"/></radialGradient></defs><path d="M117.9,122.17l-1.83,6.47c-.3,1.17-.71,1.4-2.33,1.4h-33.56c-1.93,0-2.13-.16-2.13-1.64v-50.23c0-1.48.2-1.64,2.13-1.64h9.63c1.83,0,2.13.23,2.13,1.64v42.2h24.13c1.42,0,2.03.23,2.03.86q0,.16-.2.94Z" style="fill:#0369b3;"/><path d="M172.96,131.37c-16.53,0-24.74-9.44-24.74-28.32,0-11.39,2.74-18.33,8.92-23.01,4.36-3.2,9.94-4.84,16.63-4.84s13.28,2.11,17.14,5.54c5.07,4.45,7.5,11.7,7.5,21.92,0,19.03-8.62,28.71-25.45,28.71ZM173.17,83.64c-6.69,0-10.34,6.94-10.34,19.74s3.45,19.58,10.44,19.58,10.55-6.47,10.55-19.42c0-13.65-3.35-19.89-10.65-19.89Z" style="fill:#0369b3;"/><path d="M273.45,78.33l-2.13,6.16c-.41,1.17-.71,1.33-2.23,1.33h-12.47v42.59c0,1.48-.2,1.64-2.13,1.64h-9.84c-1.93,0-2.13-.16-2.13-1.64v-42.59h-12.78c-1.93,0-2.13-.16-2.13-1.56v-6.08c0-1.4.2-1.64,2.13-1.64h41.88c1.52,0,2.03.23,2.03.86,0,.23-.1.7-.2.94Z" style="fill:#0369b3;"/><path d="M347.27,130.05h-11.05c-1.72,0-1.93-.08-2.33-1.33l-4.36-12.79h-17.14l-4.36,12.79c-.41,1.25-.51,1.33-2.23,1.33h-10.04c-1.52,0-2.03-.23-2.03-.86,0-.31.1-.39.3-1.01l19.97-50.31c.51-1.25.61-1.33,2.23-1.33h10.55c1.62,0,1.72.08,2.23,1.33l19.97,50.31c.2.55.3.78.3,1.01,0,.62-.51.86-2.03.86ZM320.6,84.73c-.91,4.52-1.32,6.32-2.64,10.53l-4.06,13.34h12.98l-3.75-13.34c-.91-3.2-1.22-4.6-2.53-10.53Z" style="fill:#0369b3;"/><path d="M429.1,129.27l-9.02,1.95q-.91.23-1.22.23c-.51,0-.81-.23-1.42-1.09l-14.3-22.23h-5.37v20.28c0,1.4-.3,1.64-2.13,1.64h-9.33c-1.93,0-2.13-.16-2.13-1.87v-50c0-1.48.2-1.64,2.13-1.64h16.53c7.6,0,11.46.55,15.01,2.03,5.78,2.5,8.62,6.94,8.62,13.34,0,7.18-3.35,11.62-11.36,14.9l15.11,20.36c.3.39.51.86.51,1.17,0,.39-.41.7-1.62.94ZM401.72,84.49h-3.95v15.37h2.84c8.92,0,12.07-2.11,12.07-8.03,0-5.54-2.74-7.33-10.95-7.33Z" style="fill:#0369b3;"/><polygon points="320.6 84.73 307.68 130.05 334.25 130.05 320.6 84.73" style="fill:#fff;"/><path d="M77.25,146.35h.86v7.79h3.32v.83h-4.18v-8.62Z" style="fill:#0369b3;"/><path d="M90.32,146.13c1.31,0,2.4.44,3.28,1.31s1.32,1.94,1.32,3.22-.44,2.33-1.32,3.21-1.95,1.32-3.21,1.32-2.36-.44-3.24-1.31-1.32-1.93-1.32-3.18c0-.83.2-1.6.6-2.3.4-.71.95-1.26,1.64-1.66s1.44-.6,2.25-.6ZM90.36,146.97c-.64,0-1.24.17-1.81.5-.57.33-1.02.78-1.34,1.34-.32.56-.48,1.19-.48,1.88,0,1.02.35,1.89,1.06,2.59.71.71,1.57,1.06,2.57,1.06.67,0,1.29-.16,1.86-.49.57-.33,1.01-.77,1.33-1.33.32-.56.48-1.19.48-1.88s-.16-1.3-.48-1.86c-.32-.55-.77-1-1.35-1.33-.58-.33-1.19-.5-1.84-.5Z" style="fill:#0369b3;"/><path d="M100.68,154.97v-8.62h.19l5.74,6.61v-6.61h.85v8.62h-.19l-5.69-6.53v6.53h-.89Z" style="fill:#0369b3;"/><path d="M121.87,147.79l-.67.63c-.48-.47-1.01-.83-1.58-1.08s-1.13-.37-1.67-.37c-.68,0-1.32.17-1.93.5s-1.08.78-1.42,1.35-.5,1.17-.5,1.8.17,1.26.52,1.85.83,1.04,1.44,1.38,1.29.5,2.02.5c.89,0,1.64-.25,2.25-.75s.98-1.15,1.09-1.95h-2.75v-.83h3.71c0,1.33-.4,2.39-1.19,3.17s-1.83,1.17-3.14,1.17c-1.59,0-2.86-.54-3.79-1.63-.71-.84-1.07-1.8-1.07-2.9,0-.82.21-1.58.62-2.28s.97-1.25,1.69-1.65,1.52-.59,2.43-.59c.73,0,1.42.13,2.06.4s1.27.69,1.89,1.27Z" style="fill:#0369b3;"/><path d="M134.41,147.19v-.84h4.72v.84h-1.92v7.78h-.88v-7.78h-1.92Z" style="fill:#0369b3;"/><path d="M144.39,146.35h4.94v.84h-4.08v2.7h4.04v.84h-4.04v3.39h4.04v.84h-4.9v-8.62Z" style="fill:#0369b3;"/><path d="M154.97,146.35h1.72c.96,0,1.61.04,1.95.12.51.12.93.37,1.25.75.32.39.48.86.48,1.42,0,.47-.11.88-.33,1.24-.22.36-.54.62-.95.81-.41.18-.98.27-1.7.28l3.1,4h-1.07l-3.1-4h-.49v4h-.86v-8.62ZM155.83,147.19v2.93h1.48c.58.01,1-.04,1.28-.15s.49-.28.65-.52c.15-.24.23-.51.23-.81s-.08-.55-.23-.79c-.16-.24-.36-.41-.62-.51s-.68-.15-1.27-.15h-1.52Z" style="fill:#0369b3;"/><path d="M165.78,154.97l1.23-8.62h.14l3.5,7.07,3.47-7.07h.14l1.24,8.62h-.84l-.85-6.16-3.05,6.16h-.22l-3.08-6.21-.85,6.21h-.83Z" style="fill:#0369b3;"/><path d="M191.97,146.35l4.02,8.62h-.93l-1.36-2.84h-3.71l-1.34,2.84h-.96l4.07-8.62h.21ZM191.86,148.18l-1.48,3.12h2.95l-1.47-3.12Z" style="fill:#0369b3;"/><path d="M201.31,146.35h1.72c.96,0,1.61.04,1.95.12.51.12.93.37,1.25.75.32.39.48.86.48,1.42,0,.47-.11.88-.33,1.24-.22.36-.54.62-.95.81-.41.18-.98.27-1.7.28l3.1,4h-1.07l-3.1-4h-.49v4h-.86v-8.62ZM202.17,147.19v2.93h1.48c.58.01,1-.04,1.28-.15s.49-.28.65-.52c.15-.24.23-.51.23-.81s-.08-.55-.23-.79c-.16-.24-.36-.41-.62-.51s-.68-.15-1.27-.15h-1.52Z" style="fill:#0369b3;"/><path d="M220.38,147.95l-.68.52c-.38-.49-.83-.86-1.35-1.11s-1.1-.38-1.73-.38c-.69,0-1.32.17-1.91.5s-1.04.77-1.36,1.33-.48,1.18-.48,1.88c0,1.05.36,1.93,1.08,2.63s1.63,1.05,2.73,1.05c1.21,0,2.22-.47,3.03-1.42l.68.52c-.43.55-.97.97-1.61,1.27s-1.36.45-2.15.45c-1.51,0-2.7-.5-3.57-1.51-.73-.85-1.1-1.87-1.1-3.07,0-1.26.44-2.32,1.33-3.18s1.99-1.29,3.33-1.29c.8,0,1.53.16,2.18.48s1.18.76,1.59,1.34Z" style="fill:#0369b3;"/><path d="M225.97,146.35h.86v3.62h4.39v-3.62h.86v8.62h-.86v-4.16h-4.39v4.16h-.86v-8.62Z" style="fill:#0369b3;"/><path d="M238.2,146.35h.86v8.62h-.86v-8.62Z" style="fill:#0369b3;"/><path d="M244.35,146.35h.94l2.86,6.66,2.9-6.66h.94l-3.75,8.62h-.19l-3.7-8.62Z" style="fill:#0369b3;"/><path d="M257.28,146.35h.86v8.62h-.86v-8.62Z" style="fill:#0369b3;"/><path d="M264.26,154.97v-8.62h.19l5.74,6.61v-6.61h.85v8.62h-.19l-5.69-6.53v6.53h-.89Z" style="fill:#0369b3;"/><path d="M285.45,147.79l-.67.63c-.48-.47-1.01-.83-1.58-1.08s-1.13-.37-1.67-.37c-.68,0-1.32.17-1.93.5s-1.08.78-1.42,1.35-.5,1.17-.5,1.8.17,1.26.52,1.85.83,1.04,1.44,1.38,1.29.5,2.02.5c.89,0,1.64-.25,2.25-.75s.98-1.15,1.09-1.95h-2.75v-.83h3.71c0,1.33-.4,2.39-1.19,3.17s-1.83,1.17-3.14,1.17c-1.59,0-2.86-.54-3.79-1.63-.71-.84-1.07-1.8-1.07-2.9,0-.82.21-1.58.62-2.28s.97-1.25,1.69-1.65,1.52-.59,2.43-.59c.73,0,1.42.13,2.06.4s1.27.69,1.89,1.27Z" style="fill:#0369b3;"/><path d="M302.37,146.35l4.02,8.62h-.93l-1.36-2.84h-3.71l-1.34,2.84h-.96l4.07-8.62h.21ZM302.26,148.18l-1.48,3.12h2.95l-1.47-3.12Z" style="fill:#0369b3;"/><path d="M311.69,154.97v-8.62h.19l5.74,6.61v-6.61h.85v8.62h-.19l-5.69-6.53v6.53h-.89Z" style="fill:#0369b3;"/><path d="M324.65,154.97v-8.62h1.79c1.29,0,2.22.1,2.81.31.84.29,1.49.8,1.96,1.52s.71,1.58.71,2.58c0,.86-.19,1.62-.56,2.28s-.86,1.14-1.45,1.45-1.43.47-2.5.47h-2.74ZM325.48,154.15h1c1.19,0,2.02-.07,2.48-.22.65-.21,1.16-.59,1.53-1.14.37-.55.56-1.22.56-2.01,0-.83-.2-1.54-.6-2.13-.4-.59-.96-.99-1.68-1.21-.54-.16-1.43-.25-2.67-.25h-.61v6.96Z" style="fill:#0369b3;"/><path d="M344.87,146.35h1.72c.96,0,1.61.04,1.95.12.51.12.93.37,1.25.75.32.39.48.86.48,1.42,0,.47-.11.88-.33,1.24-.22.36-.54.62-.95.81-.41.18-.98.27-1.7.28l3.1,4h-1.07l-3.1-4h-.49v4h-.86v-8.62ZM345.73,147.19v2.93h1.48c.58.01,1-.04,1.28-.15s.49-.28.65-.52c.15-.24.23-.51.23-.81s-.08-.55-.23-.79c-.16-.24-.36-.41-.62-.51s-.68-.15-1.27-.15h-1.52Z" style="fill:#0369b3;"/><path d="M356.04,146.35h4.94v.84h-4.08v2.7h4.04v.84h-4.04v3.39h4.04v.84h-4.9v-8.62Z" style="fill:#0369b3;"/><path d="M365.93,147.19v-.84h4.72v.84h-1.92v7.78h-.88v-7.78h-1.92Z" style="fill:#0369b3;"/><path d="M375.93,146.35h1.72c.96,0,1.61.04,1.95.12.51.12.93.37,1.25.75.32.39.48.86.48,1.42,0,.47-.11.88-.33,1.24-.22.36-.54.62-.95.81-.41.18-.98.27-1.7.28l3.1,4h-1.07l-3.1-4h-.49v4h-.86v-8.62ZM376.79,147.19v2.93h1.48c.58.01,1-.04,1.28-.15s.49-.28.65-.52c.15-.24.23-.51.23-.81s-.08-.55-.23-.79c-.16-.24-.36-.41-.62-.51s-.68-.15-1.27-.15h-1.52Z" style="fill:#0369b3;"/><path d="M387.03,146.35h.86v8.62h-.86v-8.62Z" style="fill:#0369b3;"/><path d="M394.01,146.35h4.94v.84h-4.08v2.7h4.04v.84h-4.04v3.39h4.04v.84h-4.9v-8.62Z" style="fill:#0369b3;"/><path d="M404,146.35h.94l2.86,6.66,2.9-6.66h.94l-3.75,8.62h-.19l-3.7-8.62Z" style="fill:#0369b3;"/><path d="M419.52,146.35l4.02,8.62h-.93l-1.36-2.84h-3.71l-1.34,2.84h-.96l4.07-8.62h.21ZM419.41,148.18l-1.48,3.12h2.95l-1.47-3.12Z" style="fill:#0369b3;"/><path d="M428.83,146.35h.86v7.79h3.32v.83h-4.18v-8.62Z" style="fill:#0369b3;"/><path d="M121.61,22.39c-.59-1.86-2.48-5.53-8.5-7.34,3.8-.63,10.03-2.51,14.84-6.34-2.12,2.82-4.64,6.9-6.33,13.68Z" style="fill:#4d4c4d;"/><path d="M126.75,9.92c-1.8,2.63-3.74,6.22-5.17,11.55-.8-1.9-2.73-4.69-7.41-6.35,3.47-.71,8.39-2.3,12.58-5.2M130.49,5.93c-5.3,6.08-14.34,8.57-18.71,9.04,9.35,2.18,9.82,8.57,9.82,8.57,2.34-10.29,6.55-14.65,8.89-17.62h0Z"/><ellipse cx="66.42" cy="34.61" rx="34.93" ry="34.17" style="fill:none; stroke:#cccccb; stroke-miterlimit:10; stroke-width:.7px;"/><path d="M60.61.91s34.44-2.05,40.74,33.7" style="fill:none; stroke:#cccccb; stroke-miterlimit:10; stroke-width:.68px;"/><path d="M57.43,1.59s23.73.49,35.01,22.16c5.13,9.53,7.24,25.14-1.77,35.45" style="fill:none; stroke:#cccccb; stroke-miterlimit:10; stroke-width:.68px;"/><path d="M56.66,1.8c5.29,1.24,10.27,4.55,14.36,8,10.09,8.52,18.2,21.56,19.3,34.9.54,6.53-.53,13.74-5.13,18.73" style="fill:none; stroke:#cccccb; stroke-miterlimit:10; stroke-width:.68px;"/><path d="M54.68,2.43s28.81,30.98,26.3,63.25" style="fill:none; stroke:#cccccb; stroke-miterlimit:10; stroke-width:.68px;"/><path d="M53.48,2.87s2.27,49.82,23.66,64.27" style="fill:none; stroke:#cccccb; stroke-miterlimit:10; stroke-width:.68px;"/><path d="M52.3,3.36s-9.43,8.5-5,36.46c3.39,15.99,12.87,27.16,24.14,28.97" style="fill:none; stroke:#cccccb; stroke-miterlimit:10; stroke-width:.68px;"/><path d="M49.86,4.52s-14.83,11.98-10.41,38.22c2.01,9.95,9.84,23.44,24.33,25.95" style="fill:none; stroke:#cccccb; stroke-miterlimit:10; stroke-width:.68px;"/><path d="M47.43,5.94s-25.62,20.1-7.53,50.89" style="fill:none; stroke:#cccccb; stroke-miterlimit:10; stroke-width:.68px;"/><path d="M59.74,68.16s17.94-.92,34.43-12.8" style="fill:none; stroke:#cccccb; stroke-miterlimit:10; stroke-width:.68px;"/><path d="M99.17,46.51s-17.22,14.81-49.07,18.33" style="fill:none; stroke:#cccccb; stroke-miterlimit:10; stroke-width:.68px;"/><path d="M34.07,47.51s29.71,2.14,65.47-23.77" style="fill:none; stroke:#cccccb; stroke-miterlimit:10; stroke-width:.68px;"/><path d="M31.5,35.65c6.69,1.38,14.28-.2,20.72-1.93,12.68-3.41,25.42-9.28,36.21-16.78,1.76-1.22,3.47-2.49,5.16-3.8" style="fill:none; stroke:#cccccb; stroke-miterlimit:10; stroke-width:.68px;"/><path d="M33,24.66s25.05,1.18,51.6-19.23" style="fill:none; stroke:#cccccb; stroke-miterlimit:10; stroke-width:.68px;"/><path d="M37.79,15.05s24.38-.32,36.56-13.72" style="fill:none; stroke:#cccccb; stroke-miterlimit:10; stroke-width:.68px;"/><path d="M43.27,9.04s14.42.2,23.16-8.59" style="fill:none; stroke:#cccccb; stroke-miterlimit:10; stroke-width:.68px;"/><path d="M31.3,61.35c-6.38,0-10.84-1.56-13.27-4.63-2.53-4.7,1.39-12.06,7.37-17.92-2.53,3.36-5.25,8.25-4.44,13.05.7,3.01,4.89,6.51,14.38,6.51,5.42,0,12.01-1.1,19.61-3.28l1.1-.37c14.65-4.88,29.77-9.91,53.19-27.48-5.22,4.85-17.03,13.86-41.44,25.15-6.69,2.69-23.67,8.96-36.49,8.96h0Z" style="fill:#0471b2;"/><path d="M22.57,42.45c-1.81,3.4-2.48,6.58-1.99,9.52.26,1.13,2.22,6.79,14.76,6.79,5.45,0,12.09-1.11,19.75-3.31l1.08-.36c8.42-2.81,17-5.66,27.21-10.91-4.54,2.46-9.75,5.08-15.72,7.83-6.69,2.69-23.62,8.94-36.37,8.94-6.21,0-10.56-1.49-12.92-4.42-1.81-3.45-.03-8.84,4.19-14.08M112.93,23.92c-26.25,20.45-42.49,25.59-58.09,30.79-8.26,2.37-14.64,3.26-19.5,3.26-9.7,0-13.38-3.57-13.99-6.18-1.37-8.1,7.6-16.5,8.12-16.98-8.74,6.48-14.92,16.28-11.75,22.16,2.73,3.45,7.66,4.78,13.58,4.78,11.42,0,26.53-4.92,36.66-9,30.13-13.93,41.75-24.7,44.97-28.82h0Z" style="fill:#005499;"/><circle cx="66.2" cy="34.89" r="34.44" style="fill:url(#uuid-a16ea55d-937c-4a3c-acc3-d0ff4d909cab);"/></svg>