<?xml version="1.0" encoding="UTF-8"?>
<svg id="Layer_1" data-name="Layer 1" xmlns="http://www.w3.org/2000/svg" xmlns:xlink="http://www.w3.org/1999/xlink" viewBox="0 0 104 89.6" width="38mm" height="31.5mm">
  <defs>
    <style>
      .cls-1, .cls-2, .cls-3 {
        fill: none;
      }

      .cls-1, .cls-4, .cls-5 {
        stroke-width: 0px;
      }

      .cls-2 {
        stroke: #231f20;
      }

      .cls-2, .cls-3 {
        stroke-miterlimit: 3.86;
        stroke-width: .91px;
      }

      .cls-4, .cls-5 {
        fill: #231f20;
      }

      .cls-6 {
        clip-path: url(#clippath);
      }

      .cls-5 {
        fill-rule: evenodd;
      }

      .cls-3 {
        stroke: #000;
      }
    </style>
    <clipPath id="clippath">
      <rect class="cls-1" width="104" height="89.6"/>
    </clipPath>
  </defs>
  <g class="cls-6">
    <path class="cls-2" d="m29.11,8.7c8.23,10.22,37.74,10.22,45.78,0"/>
    <path class="cls-2" d="m29.11,81.66c8.23-10.22,37.74-10.22,45.78,0"/>
    <circle class="cls-3" cx="51.95" cy="45.05" r="43.09"/>
    <path class="cls-5" d="m18.93,49.31c0,1.43-.04,2.83-.37,4.12-.66,2.54-2.17,4.3-5.67,4.3s-5-1.77-5.67-4.3c-.33-1.29-.41-2.69-.41-4.12v-8.02c0-1.32.22-2.57.55-3.68.66-2.24,2.24-3.72,5.52-3.72s4.75,1.47,5.48,3.72c.37,1.1.55,2.36.55,3.68m-6.03,17.37c7.28,0,11.44-6.73,11.44-13.47,0-6.07-5.3-12.22-11.44-12.22S1.42,39.12,1.42,45.19c0,6.73,4.19,13.47,11.48,13.47Z"/>
    <polyline class="cls-4" points="39.35 34.45 42.99 34.45 42.99 33.53 31 33.53 31 34.45 34.64 34.45 34.64 57.18 31 57.18 31 58.1 42.99 58.1 42.99 57.18 39.35 57.18"/>
    <polyline class="cls-4" points="74.14 34.45 77.79 34.45 77.79 33.53 68.48 33.53 63.14 50.34 57.99 33.53 48.5 33.53 48.5 34.45 52.14 34.45 52.14 57.18 48.5 57.18 48.5 58.1 56.89 58.1 56.89 57.18 53.32 57.18 53.32 35.07 53.39 35.07 60.71 58.1 61.97 58.1 69.32 35.07 69.43 35.07 69.43 57.18 65.79 57.18 65.79 58.1 77.79 58.1 77.79 57.18 74.14 57.18"/>
    <path class="cls-4" d="m103.42,58.1l.37-8.28h-1.14c-.15,4.23-1.8,7.36-6.48,7.36h-4.82v-22.74h3.83v-.92h-12.18v.92h3.64v22.74h-3.64v.92"/>
    <path class="cls-2" d="m52.04,2.11c-15.37-.03-24.66,13.64-27.8,30.09"/>
    <path class="cls-2" d="m24.61,59.72c3.4,15.68,12.51,28.42,27.41,28.42"/>
    <path class="cls-2" d="m52.04,2.11c-7.61,0-12.15,13.74-13.63,30.24"/>
    <path class="cls-2" d="m38.69,59.74c1.7,15.67,6.14,28.4,13.32,28.4"/>
    <line class="cls-2" x1="52.04" y1="1.98" x2="52.02" y2="32.36"/>
    <line class="cls-2" x1="52.05" y1="59.61" x2="52.02" y2="88.08"/>
    <path class="cls-2" d="m65.59,32.37c-1.55-16.5-6.11-30.24-13.58-30.24"/>
    <path class="cls-2" d="m52.07,88.16c7.35,0,11.78-12.82,13.4-28.56"/>
    <path class="cls-2" d="m79.84,32.24c-3.11-16.44-12.39-30.11-27.82-30.11"/>
    <path class="cls-2" d="m52.07,88.16c14.9.03,24.03-12.82,27.43-28.6"/>
  </g>
</svg>