<?xml version="1.0" encoding="utf-8"?>
<!-- Generator: Adobe Illustrator 25.2.3, SVG Export Plug-In . SVG Version: 6.00 Build 0)  -->
<svg version="1.1" id="Calque_1" xmlns="http://www.w3.org/2000/svg" xmlns:xlink="http://www.w3.org/1999/xlink" x="0px" y="0px"
	 viewBox="0 0 1093.5 394.1" style="enable-background:new 0 0 1093.5 394.1;" xml:space="preserve">
<style type="text/css">
	.st0{fill:#004996;}
	.st1{fill-rule:evenodd;clip-rule:evenodd;fill:#1D1D1B;}
	.st2{fill:#1D1D1B;}
	.st3{fill:#001E41;}
</style>
<g>
	<g>
		<g>
			<path class="st0" d="M222,362.3c-91,0-165-74-165-165c0-91,74-165,165-165s165,74,165,165C387,288.3,313,362.3,222,362.3z
				 M138.3,335.4c24.4,14.9,53.1,23.5,83.8,23.5c30.8,0,59.5-8.6,84-23.6c-14.4-16.2-45.6-26.3-82.4-26.6c-0.4,0-0.8,0-1.2,0
				C185.6,308.7,153,319.1,138.3,335.4z M134.8,61.5c-44.7,28.8-74.3,78.9-74.3,135.9c0,57.2,29.9,107.5,74.8,136.2
				c15.3-17.6,48.4-28.3,87.1-28.3c0.4,0,0.8,0,1.3,0c38.1,0.2,70.5,11,85.3,28.1c44.8-28.7,74.6-79,74.6-136.1
				c0-56.8-29.5-106.9-74-135.7c-14.6,17.5-47.3,28.5-85.8,28.8C183.8,90.6,150,79.6,134.8,61.5z M137.7,59.6
				C152.2,76.3,185.1,87,222.5,87c0.4,0,0.8,0,1.2,0c37.3-0.2,68.8-10.6,82.9-27.2c-24.6-15.2-53.6-24-84.6-24
				C191.2,35.8,162.3,44.5,137.7,59.6z"/>
		</g>
		<g>
			<path class="st1" d="M74.1,248.9c27.6,0,43.4-25.5,43.4-51c0-23-20.1-46.3-43.4-46.3c-23.3,0-43.5,23.3-43.5,46.3
				C30.6,223.4,46.5,248.9,74.1,248.9L74.1,248.9z M97,213.5c0,5.4-0.1,10.7-1.4,15.6c-2.5,9.6-8.2,16.3-21.5,16.3
				c-13.1,0-19-6.7-21.5-16.3c-1.3-4.9-1.5-10.2-1.5-15.6v-30.4c0-5,0.8-9.8,2.1-13.9c2.5-8.5,8.5-14.1,20.9-14.1
				c12.3,0,18,5.6,20.8,14.1c1.4,4.2,2.1,8.9,2.1,13.9V213.5L97,213.5z"/>
		</g>
		<g>
			<polygon class="st2" points="174.3,157.2 188.1,157.2 188.1,153.7 142.7,153.7 142.7,157.2 156.5,157.2 156.5,243.3 142.7,243.3 
				142.7,246.8 188.1,246.8 188.1,243.3 174.3,243.3 174.3,157.2 			"/>
		</g>
		<g>
			<polygon class="st2" points="306.1,157.2 319.9,157.2 319.9,153.7 284.7,153.7 264.5,217.4 244.9,153.7 209,153.7 209,157.2 
				222.8,157.2 222.8,243.3 209,243.3 209,246.8 240.8,246.8 240.8,243.3 227.2,243.3 227.2,159.5 227.5,159.5 255.3,246.8 
				260,246.8 287.9,159.5 288.3,159.5 288.3,243.3 274.5,243.3 274.5,246.8 319.9,246.8 319.9,243.3 306.1,243.3 306.1,157.2 			"/>
		</g>
		<g>
			<path class="st2" d="M417.1,246.8l1.4-31.4h-4.3c-0.6,16-6.8,27.9-24.5,27.9h-18.3v-86.2h14.5v-3.5h-46.1v3.5h13.8v86.2h-13.8
				v3.5H417.1L417.1,246.8z"/>
		</g>
		<g>
			<path class="st0" d="M222.7,362.4c-0.1,0-0.1,0-0.2,0l0-2h-0.2v1.9c-51.3,0-90.7-40.8-105.5-109l3.4-0.7
				c13,59.8,45.2,98,87.5,105.1c-25.2-17-34.5-76.5-37.5-104.5l3.4-0.4c7,64.8,24.5,104.1,47.1,106l0.1-106.3l3.4,0L224,358.9
				c23.1-1.7,40.8-41.3,47.5-106.6l3.4,0.4c-5.8,56-19.2,92.8-37.8,105.2c42.4-7.1,74.6-45.5,87.6-105.8l3.4,0.7
				C313.3,321.4,273.9,362.4,222.7,362.4z M272,149.5c-6.4-68-24.6-110.8-47.9-112.9L224,149.3l-3.4,0l0.1-112.8
				c-23.7,2-42.1,44.9-48.2,112.9l-3.4-0.3c5.3-59,19.4-98.7,38.9-111.6c-44.2,7.1-77,47.6-89.2,111.5l-3.4-0.6
				C129.2,76,169.1,32.9,222.2,32.9c0.1,0,0.1,0,0.2,0V33c53.3,0.1,93.3,43.2,107,115.5l-3.4,0.6c-12.1-63.9-45-104.5-89.5-111.6
				c19.3,12.9,33.4,52.6,38.9,111.6L272,149.5z"/>
		</g>
	</g>
	<g>
		<g>
			<path class="st3" d="M480.9,81.9c-2.1-1.2-3.8-2.7-4.9-4.8c-1.2-2-1.8-4.3-1.8-6.8c0-2.5,0.6-4.8,1.8-6.8c1.2-2,2.8-3.6,4.9-4.8
				c2.1-1.2,4.5-1.7,7.1-1.7s4.9,0.6,7,1.7c2.1,1.1,3.7,2.7,4.9,4.8c1.2,2,1.8,4.3,1.8,6.8c0,2.5-0.6,4.8-1.8,6.8
				c-1.2,2-2.8,3.6-4.9,4.8c-2.1,1.1-4.4,1.7-7,1.7S483,83.1,480.9,81.9z M493.6,79.8c1.7-0.9,3-2.2,3.9-3.9
				c0.9-1.7,1.4-3.5,1.4-5.6c0-2-0.5-3.9-1.4-5.6c-0.9-1.7-2.3-3-3.9-3.9c-1.7-0.9-3.5-1.4-5.6-1.4s-3.9,0.5-5.6,1.4
				c-1.7,0.9-3,2.2-4,3.9c-1,1.7-1.4,3.5-1.4,5.6c0,2,0.5,3.9,1.4,5.6c1,1.7,2.3,3,4,3.9c1.7,0.9,3.6,1.4,5.6,1.4
				S491.9,80.7,493.6,79.8z"/>
			<path class="st3" d="M512.7,64.6c1.2-0.7,2.8-1,4.6-1v2.6l-0.6,0c-2.1,0-3.7,0.6-4.9,1.9c-1.2,1.3-1.8,3.1-1.8,5.3v10h-2.7V63.8
				h2.5v3.9C510.5,66.3,511.4,65.3,512.7,64.6z"/>
			<path class="st3" d="M540.1,63.8V81c0,3.3-0.8,5.8-2.4,7.4c-1.6,1.6-4.1,2.4-7.4,2.4c-1.8,0-3.5-0.3-5.2-0.8
				c-1.6-0.5-3-1.3-4-2.2l1.3-2c0.9,0.8,2.1,1.5,3.5,2s2.8,0.7,4.3,0.7c2.5,0,4.3-0.6,5.5-1.7c1.2-1.2,1.8-3,1.8-5.4v-2.5
				c-0.8,1.2-1.9,2.2-3.2,2.8c-1.3,0.6-2.8,1-4.4,1c-1.8,0-3.5-0.4-5-1.2c-1.5-0.8-2.7-1.9-3.6-3.4c-0.9-1.5-1.3-3.1-1.3-5
				c0-1.8,0.4-3.5,1.3-4.9c0.9-1.4,2-2.6,3.5-3.4c1.5-0.8,3.2-1.2,5.1-1.2c1.7,0,3.2,0.3,4.5,1c1.3,0.7,2.4,1.6,3.3,2.9v-3.8H540.1z
				 M533.8,79.4c1.1-0.6,2-1.5,2.7-2.6c0.6-1.1,1-2.3,1-3.7c0-1.4-0.3-2.6-1-3.7c-0.6-1.1-1.5-1.9-2.7-2.5c-1.1-0.6-2.4-0.9-3.9-0.9
				c-1.4,0-2.7,0.3-3.8,0.9c-1.1,0.6-2,1.4-2.7,2.5c-0.6,1.1-1,2.3-1,3.7c0,1.4,0.3,2.6,1,3.7c0.6,1.1,1.5,2,2.7,2.6
				c1.1,0.6,2.4,0.9,3.8,0.9S532.7,80,533.8,79.4z"/>
			<path class="st3" d="M560.3,65.5c1.4,1.3,2.1,3.2,2.1,5.7v12.2h-2.5v-3.1c-0.6,1-1.5,1.8-2.6,2.4c-1.2,0.6-2.5,0.9-4.1,0.9
				c-2.2,0-3.9-0.5-5.2-1.6c-1.3-1-1.9-2.4-1.9-4.2c0-1.7,0.6-3,1.8-4c1.2-1,3.1-1.5,5.8-1.5h6.2v-1.2c0-1.7-0.5-3-1.4-3.9
				c-0.9-0.9-2.3-1.3-4.2-1.3c-1.2,0-2.4,0.2-3.6,0.6c-1.1,0.4-2.1,1-3,1.7l-1.2-2c1-0.8,2.2-1.5,3.6-2s2.9-0.7,4.4-0.7
				C557,63.6,558.9,64.3,560.3,65.5z M557.3,80.5c1.1-0.7,1.9-1.7,2.4-3v-3.2h-6.2c-3.4,0-5.1,1.2-5.1,3.5c0,1.1,0.4,2.1,1.3,2.7
				c0.9,0.7,2.1,1,3.7,1C554.9,81.5,556.2,81.2,557.3,80.5z"/>
			<path class="st3" d="M585.5,65.8c1.5,1.4,2.2,3.5,2.2,6.3v11.4H585V72.3c0-2-0.5-3.6-1.5-4.7c-1-1.1-2.5-1.6-4.4-1.6
				c-2.1,0-3.8,0.6-5,1.9c-1.2,1.3-1.9,3-1.9,5.2v10.3h-2.7V63.8h2.5v3.6c0.7-1.2,1.7-2.1,3-2.8c1.3-0.7,2.8-1,4.5-1
				C582.1,63.6,584,64.3,585.5,65.8z"/>
			<path class="st3" d="M594.9,58.9c-0.4-0.4-0.6-0.8-0.6-1.3c0-0.5,0.2-0.9,0.6-1.3c0.4-0.4,0.8-0.6,1.4-0.6c0.5,0,1,0.2,1.4,0.5
				c0.4,0.4,0.6,0.8,0.6,1.3c0,0.5-0.2,1-0.6,1.4c-0.4,0.4-0.8,0.6-1.4,0.6C595.7,59.5,595.2,59.3,594.9,58.9z M594.9,63.8h2.7v19.7
				h-2.7V63.8z"/>
			<path class="st3" d="M605.6,82.9c-1.5-0.5-2.6-1-3.4-1.7l1.2-2.1c0.8,0.6,1.9,1.2,3.1,1.6s2.5,0.6,3.9,0.6c1.8,0,3.1-0.3,4-0.8
				c0.9-0.6,1.3-1.4,1.3-2.4c0-0.7-0.2-1.3-0.7-1.7c-0.5-0.4-1.1-0.7-1.8-0.9c-0.7-0.2-1.7-0.4-2.9-0.6c-1.6-0.3-2.9-0.6-3.9-0.9
				c-1-0.3-1.8-0.8-2.5-1.6c-0.7-0.7-1-1.8-1-3.1c0-1.6,0.7-3,2.1-4c1.4-1,3.3-1.6,5.7-1.6c1.3,0,2.5,0.2,3.8,0.5
				c1.3,0.3,2.3,0.8,3.1,1.3l-1.2,2.1c-1.6-1.1-3.6-1.7-5.8-1.7c-1.7,0-3,0.3-3.8,0.9c-0.9,0.6-1.3,1.4-1.3,2.4
				c0,0.7,0.2,1.3,0.7,1.8c0.5,0.4,1.1,0.8,1.8,1c0.7,0.2,1.7,0.4,3,0.7c1.6,0.3,2.8,0.6,3.8,0.9c0.9,0.3,1.8,0.8,2.4,1.5s1,1.7,1,3
				c0,1.7-0.7,3.1-2.1,4.1c-1.4,1-3.4,1.5-6,1.5C608.6,83.6,607.1,83.4,605.6,82.9z"/>
			<path class="st3" d="M636,65.5c1.4,1.3,2.1,3.2,2.1,5.7v12.2h-2.5v-3.1c-0.6,1-1.5,1.8-2.6,2.4c-1.2,0.6-2.5,0.9-4.1,0.9
				c-2.2,0-3.9-0.5-5.2-1.6c-1.3-1-1.9-2.4-1.9-4.2c0-1.7,0.6-3,1.8-4c1.2-1,3.1-1.5,5.8-1.5h6.2v-1.2c0-1.7-0.5-3-1.4-3.9
				c-0.9-0.9-2.3-1.3-4.2-1.3c-1.2,0-2.4,0.2-3.6,0.6c-1.1,0.4-2.1,1-3,1.7l-1.2-2c1-0.8,2.2-1.5,3.6-2s2.9-0.7,4.4-0.7
				C632.7,63.6,634.7,64.3,636,65.5z M633,80.5c1.1-0.7,1.9-1.7,2.4-3v-3.2h-6.2c-3.4,0-5.1,1.2-5.1,3.5c0,1.1,0.4,2.1,1.3,2.7
				c0.9,0.7,2.1,1,3.7,1C630.7,81.5,632,81.2,633,80.5z"/>
			<path class="st3" d="M655.7,82.2c-0.5,0.4-1.1,0.8-1.8,1c-0.7,0.2-1.5,0.4-2.3,0.4c-1.8,0-3.3-0.5-4.3-1.5c-1-1-1.5-2.4-1.5-4.2
				V66h-3.5v-2.2h3.5v-4.3h2.7v4.3h6V66h-6v11.7c0,1.2,0.3,2.1,0.9,2.7c0.6,0.6,1.4,0.9,2.5,0.9c0.5,0,1.1-0.1,1.6-0.3
				c0.5-0.2,1-0.4,1.3-0.7L655.7,82.2z"/>
			<path class="st3" d="M660.5,58.9c-0.4-0.4-0.6-0.8-0.6-1.3c0-0.5,0.2-0.9,0.6-1.3c0.4-0.4,0.8-0.6,1.4-0.6c0.5,0,1,0.2,1.4,0.5
				c0.4,0.4,0.6,0.8,0.6,1.3c0,0.5-0.2,1-0.6,1.4c-0.4,0.4-0.8,0.6-1.4,0.6C661.3,59.5,660.8,59.3,660.5,58.9z M660.5,63.8h2.7v19.7
				h-2.7V63.8z"/>
			<path class="st3" d="M673.5,82.3c-1.5-0.9-2.7-2.1-3.6-3.6c-0.9-1.5-1.3-3.2-1.3-5.2c0-1.9,0.4-3.6,1.3-5.2
				c0.9-1.5,2.1-2.7,3.6-3.6c1.5-0.8,3.2-1.3,5.1-1.3c1.9,0,3.6,0.4,5.1,1.3c1.5,0.8,2.7,2,3.6,3.6c0.9,1.5,1.3,3.2,1.3,5.2
				c0,1.9-0.4,3.6-1.3,5.2c-0.9,1.5-2,2.7-3.6,3.6c-1.5,0.9-3.2,1.3-5.1,1.3C676.7,83.6,675,83.2,673.5,82.3z M682.4,80.3
				c1.1-0.6,2-1.5,2.6-2.7c0.6-1.2,0.9-2.5,0.9-4c0-1.5-0.3-2.8-0.9-4c-0.6-1.2-1.5-2.1-2.6-2.7c-1.1-0.6-2.4-1-3.8-1
				c-1.4,0-2.6,0.3-3.8,1c-1.1,0.6-2,1.5-2.6,2.7c-0.6,1.2-1,2.5-1,4c0,1.5,0.3,2.8,1,4c0.6,1.2,1.5,2.1,2.6,2.7
				c1.1,0.6,2.4,1,3.8,1C680,81.3,681.3,80.9,682.4,80.3z"/>
			<path class="st3" d="M709.9,65.8c1.5,1.4,2.2,3.5,2.2,6.3v11.4h-2.7V72.3c0-2-0.5-3.6-1.5-4.7c-1-1.1-2.5-1.6-4.4-1.6
				c-2.1,0-3.8,0.6-5,1.9c-1.2,1.3-1.9,3-1.9,5.2v10.3H694V63.8h2.5v3.6c0.7-1.2,1.7-2.1,3-2.8c1.3-0.7,2.8-1,4.5-1
				C706.5,63.6,708.5,64.3,709.9,65.8z"/>
			<path class="st3" d="M735.9,57.3h2.8v26.2h-2.8V57.3z"/>
			<path class="st3" d="M762.5,65.8c1.5,1.4,2.2,3.5,2.2,6.3v11.4H762V72.3c0-2-0.5-3.6-1.5-4.7c-1-1.1-2.5-1.6-4.4-1.6
				c-2.1,0-3.8,0.6-5,1.9c-1.2,1.3-1.9,3-1.9,5.2v10.3h-2.7V63.8h2.5v3.6c0.7-1.2,1.7-2.1,3-2.8c1.3-0.7,2.8-1,4.5-1
				C759.1,63.6,761.1,64.3,762.5,65.8z"/>
			<path class="st3" d="M782.3,82.2c-0.5,0.4-1.1,0.8-1.8,1c-0.7,0.2-1.5,0.4-2.3,0.4c-1.8,0-3.3-0.5-4.3-1.5c-1-1-1.5-2.4-1.5-4.2
				V66h-3.5v-2.2h3.5v-4.3h2.7v4.3h6V66h-6v11.7c0,1.2,0.3,2.1,0.9,2.7c0.6,0.6,1.4,0.9,2.5,0.9c0.5,0,1.1-0.1,1.6-0.3
				c0.5-0.2,1-0.4,1.3-0.7L782.3,82.2z"/>
			<path class="st3" d="M803.5,74.4h-16.5c0.1,2,0.9,3.7,2.4,5c1.4,1.3,3.2,1.9,5.4,1.9c1.2,0,2.3-0.2,3.4-0.7
				c1-0.4,1.9-1.1,2.7-1.9l1.5,1.7c-0.9,1-2,1.8-3.3,2.4c-1.3,0.5-2.8,0.8-4.3,0.8c-2,0-3.8-0.4-5.4-1.3c-1.6-0.9-2.8-2.1-3.6-3.6
				c-0.9-1.5-1.3-3.2-1.3-5.2c0-1.9,0.4-3.6,1.3-5.2c0.8-1.5,2-2.7,3.4-3.6c1.5-0.8,3.1-1.3,4.9-1.3s3.5,0.4,4.9,1.3
				c1.4,0.8,2.6,2,3.4,3.5c0.8,1.5,1.2,3.2,1.2,5.2L803.5,74.4z M789.3,67.7c-1.3,1.2-2,2.8-2.2,4.7h14c-0.2-1.9-0.9-3.5-2.2-4.7
				c-1.3-1.2-2.9-1.8-4.8-1.8C792.1,65.9,790.5,66.5,789.3,67.7z"/>
			<path class="st3" d="M814.3,64.6c1.2-0.7,2.8-1,4.6-1v2.6l-0.6,0c-2.1,0-3.7,0.6-4.9,1.9c-1.2,1.3-1.8,3.1-1.8,5.3v10H809V63.8
				h2.5v3.9C812.2,66.3,813.1,65.3,814.3,64.6z"/>
			<path class="st3" d="M839.6,65.8c1.5,1.4,2.2,3.5,2.2,6.3v11.4h-2.7V72.3c0-2-0.5-3.6-1.5-4.7c-1-1.1-2.5-1.6-4.4-1.6
				c-2.1,0-3.8,0.6-5,1.9c-1.2,1.3-1.9,3-1.9,5.2v10.3h-2.7V63.8h2.5v3.6c0.7-1.2,1.7-2.1,3-2.8c1.3-0.7,2.8-1,4.5-1
				C836.2,63.6,838.2,64.3,839.6,65.8z"/>
			<path class="st3" d="M861.8,65.5c1.4,1.3,2.1,3.2,2.1,5.7v12.2h-2.5v-3.1c-0.6,1-1.5,1.8-2.6,2.4c-1.2,0.6-2.5,0.9-4.1,0.9
				c-2.2,0-3.9-0.5-5.2-1.6c-1.3-1-1.9-2.4-1.9-4.2c0-1.7,0.6-3,1.8-4c1.2-1,3.1-1.5,5.8-1.5h6.2v-1.2c0-1.7-0.5-3-1.4-3.9
				c-0.9-0.9-2.3-1.3-4.2-1.3c-1.2,0-2.4,0.2-3.6,0.6c-1.1,0.4-2.1,1-3,1.7l-1.2-2c1-0.8,2.2-1.5,3.6-2s2.9-0.7,4.4-0.7
				C858.5,63.6,860.4,64.3,861.8,65.5z M858.8,80.5c1.1-0.7,1.9-1.7,2.4-3v-3.2H855c-3.4,0-5.1,1.2-5.1,3.5c0,1.1,0.4,2.1,1.3,2.7
				c0.9,0.7,2.1,1,3.7,1C856.5,81.5,857.7,81.2,858.8,80.5z"/>
			<path class="st3" d="M881.4,82.2c-0.5,0.4-1.1,0.8-1.8,1c-0.7,0.2-1.5,0.4-2.3,0.4c-1.8,0-3.3-0.5-4.3-1.5c-1-1-1.5-2.4-1.5-4.2
				V66H868v-2.2h3.5v-4.3h2.7v4.3h6V66h-6v11.7c0,1.2,0.3,2.1,0.9,2.7c0.6,0.6,1.4,0.9,2.5,0.9c0.5,0,1.1-0.1,1.6-0.3
				c0.5-0.2,1-0.4,1.3-0.7L881.4,82.2z"/>
			<path class="st3" d="M886.2,58.9c-0.4-0.4-0.6-0.8-0.6-1.3c0-0.5,0.2-0.9,0.6-1.3c0.4-0.4,0.8-0.6,1.4-0.6c0.5,0,1,0.2,1.4,0.5
				c0.4,0.4,0.6,0.8,0.6,1.3c0,0.5-0.2,1-0.6,1.4c-0.4,0.4-0.8,0.6-1.4,0.6C887.1,59.5,886.6,59.3,886.2,58.9z M886.3,63.8h2.7v19.7
				h-2.7V63.8z"/>
			<path class="st3" d="M899.3,82.3c-1.5-0.9-2.7-2.1-3.6-3.6c-0.9-1.5-1.3-3.2-1.3-5.2c0-1.9,0.4-3.6,1.3-5.2
				c0.9-1.5,2.1-2.7,3.6-3.6c1.5-0.8,3.2-1.3,5.1-1.3c1.9,0,3.6,0.4,5.1,1.3c1.5,0.8,2.7,2,3.6,3.6c0.9,1.5,1.3,3.2,1.3,5.2
				c0,1.9-0.4,3.6-1.3,5.2c-0.9,1.5-2,2.7-3.6,3.6c-1.5,0.9-3.2,1.3-5.1,1.3C902.5,83.6,900.8,83.2,899.3,82.3z M908.1,80.3
				c1.1-0.6,2-1.5,2.6-2.7c0.6-1.2,0.9-2.5,0.9-4c0-1.5-0.3-2.8-0.9-4c-0.6-1.2-1.5-2.1-2.6-2.7c-1.1-0.6-2.4-1-3.8-1
				c-1.4,0-2.6,0.3-3.8,1c-1.1,0.6-2,1.5-2.6,2.7c-0.6,1.2-1,2.5-1,4c0,1.5,0.3,2.8,1,4c0.6,1.2,1.5,2.1,2.6,2.7
				c1.1,0.6,2.4,1,3.8,1C905.8,81.3,907,80.9,908.1,80.3z"/>
			<path class="st3" d="M935.7,65.8c1.5,1.4,2.2,3.5,2.2,6.3v11.4h-2.7V72.3c0-2-0.5-3.6-1.5-4.7c-1-1.1-2.5-1.6-4.4-1.6
				c-2.1,0-3.8,0.6-5,1.9c-1.2,1.3-1.9,3-1.9,5.2v10.3h-2.7V63.8h2.5v3.6c0.7-1.2,1.7-2.1,3-2.8c1.3-0.7,2.8-1,4.5-1
				C932.3,63.6,934.2,64.3,935.7,65.8z"/>
			<path class="st3" d="M957.9,65.5c1.4,1.3,2.1,3.2,2.1,5.7v12.2h-2.5v-3.1c-0.6,1-1.5,1.8-2.6,2.4c-1.2,0.6-2.5,0.9-4.1,0.9
				c-2.2,0-3.9-0.5-5.2-1.6c-1.3-1-1.9-2.4-1.9-4.2c0-1.7,0.6-3,1.8-4c1.2-1,3.1-1.5,5.8-1.5h6.2v-1.2c0-1.7-0.5-3-1.4-3.9
				c-0.9-0.9-2.3-1.3-4.2-1.3c-1.2,0-2.4,0.2-3.6,0.6c-1.1,0.4-2.1,1-3,1.7l-1.2-2c1-0.8,2.2-1.5,3.6-2s2.9-0.7,4.4-0.7
				C954.6,63.6,956.5,64.3,957.9,65.5z M954.9,80.5c1.1-0.7,1.9-1.7,2.4-3v-3.2h-6.2c-3.4,0-5.1,1.2-5.1,3.5c0,1.1,0.4,2.1,1.3,2.7
				c0.9,0.7,2.1,1,3.7,1C952.6,81.5,953.8,81.2,954.9,80.5z"/>
			<path class="st3" d="M967.2,55.7h2.7v27.8h-2.7V55.7z"/>
			<path class="st3" d="M994.4,74.4h-16.5c0.1,2,0.9,3.7,2.4,5c1.4,1.3,3.2,1.9,5.4,1.9c1.2,0,2.3-0.2,3.4-0.7
				c1-0.4,1.9-1.1,2.7-1.9l1.5,1.7c-0.9,1-2,1.8-3.3,2.4c-1.3,0.5-2.8,0.8-4.3,0.8c-2,0-3.8-0.4-5.4-1.3c-1.6-0.9-2.8-2.1-3.6-3.6
				c-0.9-1.5-1.3-3.2-1.3-5.2c0-1.9,0.4-3.6,1.3-5.2c0.8-1.5,2-2.7,3.4-3.6c1.5-0.8,3.1-1.3,4.9-1.3s3.5,0.4,4.9,1.3
				c1.4,0.8,2.6,2,3.4,3.5c0.8,1.5,1.2,3.2,1.2,5.2L994.4,74.4z M980.1,67.7c-1.3,1.2-2,2.8-2.2,4.7h14c-0.2-1.9-0.9-3.5-2.2-4.7
				c-1.3-1.2-2.9-1.8-4.8-1.8C983,65.9,981.4,66.5,980.1,67.7z"/>
			<path class="st3" d="M1033.8,55.7v27.8h-2.5v-3.9c-0.8,1.3-1.9,2.3-3.2,3c-1.3,0.7-2.8,1-4.4,1c-1.8,0-3.5-0.4-5-1.3
				c-1.5-0.8-2.7-2-3.5-3.6c-0.8-1.5-1.3-3.3-1.3-5.2c0-1.9,0.4-3.7,1.3-5.2c0.8-1.5,2-2.7,3.5-3.5c1.5-0.8,3.2-1.3,5-1.3
				c1.6,0,3,0.3,4.3,1c1.3,0.7,2.3,1.6,3.2,2.9V55.7H1033.8z M1027.6,80.3c1.1-0.6,2-1.5,2.6-2.7c0.6-1.2,1-2.5,1-4
				c0-1.5-0.3-2.8-1-4c-0.6-1.2-1.5-2.1-2.6-2.7c-1.1-0.6-2.4-1-3.7-1c-1.4,0-2.6,0.3-3.8,1c-1.1,0.6-2,1.5-2.6,2.7
				c-0.6,1.2-1,2.5-1,4c0,1.5,0.3,2.8,1,4c0.6,1.2,1.5,2.1,2.6,2.7c1.1,0.6,2.4,1,3.8,1C1025.2,81.3,1026.5,80.9,1027.6,80.3z"/>
			<path class="st3" d="M1058.3,74.4h-16.5c0.1,2,0.9,3.7,2.4,5c1.4,1.3,3.2,1.9,5.4,1.9c1.2,0,2.3-0.2,3.4-0.7
				c1-0.4,1.9-1.1,2.7-1.9l1.5,1.7c-0.9,1-2,1.8-3.3,2.4c-1.3,0.5-2.8,0.8-4.3,0.8c-2,0-3.8-0.4-5.4-1.3c-1.6-0.9-2.8-2.1-3.6-3.6
				c-0.9-1.5-1.3-3.2-1.3-5.2c0-1.9,0.4-3.6,1.3-5.2c0.8-1.5,2-2.7,3.4-3.6s3.1-1.3,4.9-1.3s3.5,0.4,4.9,1.3c1.4,0.8,2.6,2,3.4,3.5
				c0.8,1.5,1.2,3.2,1.2,5.2L1058.3,74.4z M1044,67.7c-1.3,1.2-2,2.8-2.2,4.7h14c-0.2-1.9-0.9-3.5-2.2-4.7c-1.3-1.2-2.9-1.8-4.8-1.8
				C1046.9,65.9,1045.3,66.5,1044,67.7z"/>
			<path class="st3" d="M518.4,154.7l-0.1-26.9l-13.2,22.2h-4.7l-13.1-21.6v26.4h-9.7v-44.9h8.6l16.8,27.9l16.5-27.9h8.5l0.1,44.9
				H518.4z"/>
			<path class="st3" d="M570.7,140.3h-26.1c0.5,2.1,1.6,3.8,3.3,5.1c1.8,1.2,3.9,1.9,6.5,1.9c1.8,0,3.4-0.3,4.8-0.8
				c1.4-0.5,2.7-1.4,3.9-2.5l5.3,5.8c-3.2,3.7-8,5.6-14.2,5.6c-3.9,0-7.3-0.8-10.3-2.3c-3-1.5-5.3-3.6-6.9-6.3
				c-1.6-2.7-2.4-5.7-2.4-9.2c0-3.4,0.8-6.4,2.4-9.1c1.6-2.7,3.8-4.8,6.6-6.3c2.8-1.5,5.9-2.3,9.4-2.3c3.4,0,6.4,0.7,9.2,2.2
				c2.7,1.5,4.9,3.5,6.4,6.3c1.6,2.7,2.3,5.9,2.3,9.5C570.9,137.7,570.9,138.6,570.7,140.3z M547.3,129.2c-1.5,1.3-2.5,3-2.8,5.3h17
				c-0.3-2.2-1.3-3.9-2.8-5.2c-1.5-1.3-3.4-2-5.6-2C550.8,127.2,548.9,127.9,547.3,129.2z M555.6,106.5h10.8l-11.6,9.2h-7.8
				L555.6,106.5z"/>
			<path class="st3" d="M598.9,153c-1,0.7-2.2,1.3-3.6,1.6s-2.9,0.5-4.5,0.5c-4.1,0-7.3-1-9.5-3.1c-2.2-2.1-3.4-5.2-3.4-9.2v-14.2
				h-5.3V121h5.3v-8.4h10v8.4h8.6v7.7h-8.6v14c0,1.5,0.4,2.6,1.1,3.4c0.7,0.8,1.8,1.2,3.2,1.2c1.6,0,2.9-0.4,4-1.3L598.9,153z"/>
			<path class="st3" d="M618,121c2-0.9,4.4-1.3,7-1.3v9.2c-1.1-0.1-1.9-0.1-2.2-0.1c-2.9,0-5.1,0.8-6.7,2.4c-1.6,1.6-2.4,4-2.4,7.2
				v16.3h-10v-34.5h9.6v4.6C614.3,123.1,615.9,121.8,618,121z"/>
			<path class="st3" d="M636.3,152.9c-2.9-1.5-5.1-3.6-6.8-6.3c-1.6-2.7-2.4-5.7-2.4-9.2c0-3.4,0.8-6.5,2.4-9.2
				c1.6-2.7,3.9-4.8,6.8-6.3c2.9-1.5,6.1-2.3,9.8-2.3c3.6,0,6.9,0.8,9.7,2.3c2.9,1.5,5.1,3.6,6.7,6.3s2.4,5.8,2.4,9.2
				c0,3.4-0.8,6.5-2.4,9.2s-3.9,4.8-6.7,6.3c-2.9,1.5-6.1,2.3-9.7,2.3C642.4,155.2,639.2,154.4,636.3,152.9z M652.4,144.4
				c1.6-1.7,2.5-4.1,2.5-7c0-2.9-0.8-5.2-2.5-7c-1.6-1.7-3.7-2.6-6.3-2.6c-2.6,0-4.7,0.9-6.3,2.6c-1.7,1.7-2.5,4.1-2.5,7
				c0,2.9,0.8,5.2,2.5,7s3.8,2.6,6.3,2.6C648.6,147,650.8,146.1,652.4,144.4z"/>
			<path class="st3" d="M670.7,107.1h10v47.6h-10V107.1z"/>
			<path class="st3" d="M695.7,152.9c-2.9-1.5-5.1-3.6-6.8-6.3c-1.6-2.7-2.4-5.7-2.4-9.2c0-3.4,0.8-6.5,2.4-9.2
				c1.6-2.7,3.9-4.8,6.8-6.3c2.9-1.5,6.1-2.3,9.8-2.3c3.6,0,6.9,0.8,9.7,2.3c2.9,1.5,5.1,3.6,6.7,6.3s2.4,5.8,2.4,9.2
				c0,3.4-0.8,6.5-2.4,9.2s-3.9,4.8-6.7,6.3c-2.9,1.5-6.1,2.3-9.7,2.3C701.8,155.2,698.6,154.4,695.7,152.9z M711.8,144.4
				c1.6-1.7,2.5-4.1,2.5-7c0-2.9-0.8-5.2-2.5-7c-1.6-1.7-3.7-2.6-6.3-2.6c-2.6,0-4.7,0.9-6.3,2.6c-1.7,1.7-2.5,4.1-2.5,7
				c0,2.9,0.8,5.2,2.5,7c1.7,1.7,3.8,2.6,6.3,2.6C708,147,710.1,146.1,711.8,144.4z"/>
			<path class="st3" d="M765.7,120.2v28.7c0,6.3-1.6,11-4.9,14.1c-3.3,3.1-8.1,4.6-14.4,4.6c-3.3,0-6.5-0.4-9.5-1.2s-5.5-2-7.4-3.5
				l4-7.2c1.5,1.2,3.3,2.1,5.5,2.9c2.2,0.7,4.4,1.1,6.7,1.1c3.5,0,6-0.8,7.7-2.3c1.6-1.6,2.5-3.9,2.5-7.1v-1.5
				c-2.6,2.9-6.2,4.3-10.9,4.3c-3.2,0-6.1-0.7-8.7-2.1c-2.6-1.4-4.7-3.3-6.3-5.9c-1.5-2.5-2.3-5.4-2.3-8.7c0-3.3,0.8-6.2,2.3-8.7
				c1.5-2.5,3.6-4.5,6.3-5.9c2.6-1.4,5.5-2.1,8.7-2.1c5,0,8.8,1.6,11.4,4.9v-4.4H765.7z M753.3,142.5c1.7-1.6,2.5-3.6,2.5-6.1
				c0-2.5-0.8-4.6-2.5-6.1c-1.7-1.6-3.9-2.3-6.5-2.3s-4.8,0.8-6.5,2.3c-1.7,1.6-2.6,3.6-2.6,6.1c0,2.5,0.9,4.6,2.6,6.1
				c1.7,1.6,3.9,2.3,6.5,2.3S751.6,144,753.3,142.5z"/>
			<path class="st3" d="M774.5,113.8c-1.2-1.1-1.7-2.4-1.7-4c0-1.6,0.6-2.9,1.7-4c1.2-1.1,2.7-1.6,4.5-1.6s3.3,0.5,4.5,1.5
				c1.2,1,1.7,2.3,1.7,3.8c0,1.7-0.6,3-1.7,4.1c-1.2,1.1-2.6,1.6-4.5,1.6S775.7,114.8,774.5,113.8z M774,120.2h10v34.5h-10V120.2z"
				/>
			<path class="st3" d="M826,140.3h-26.1c0.5,2.1,1.6,3.8,3.3,5.1c1.8,1.2,3.9,1.9,6.5,1.9c1.8,0,3.4-0.3,4.8-0.8
				c1.4-0.5,2.7-1.4,3.9-2.5l5.3,5.8c-3.2,3.7-8,5.6-14.2,5.6c-3.9,0-7.3-0.8-10.3-2.3c-3-1.5-5.3-3.6-6.9-6.3
				c-1.6-2.7-2.4-5.7-2.4-9.2c0-3.4,0.8-6.4,2.4-9.1s3.8-4.8,6.6-6.3c2.8-1.5,5.9-2.3,9.4-2.3c3.4,0,6.4,0.7,9.2,2.2
				c2.7,1.5,4.9,3.5,6.4,6.3c1.6,2.7,2.3,5.9,2.3,9.5C826.2,137.7,826.1,138.6,826,140.3z M802.6,129.2c-1.5,1.3-2.5,3-2.8,5.3h17
				c-0.3-2.2-1.3-3.9-2.8-5.2c-1.5-1.3-3.4-2-5.6-2C806,127.2,804.1,127.9,802.6,129.2z"/>
			<path class="st3" d="M847,109.8h10.4v36.4h22.5v8.5H847V109.8z"/>
			<path class="st3" d="M917.4,140.3h-26.1c0.5,2.1,1.6,3.8,3.3,5.1c1.8,1.2,3.9,1.9,6.5,1.9c1.8,0,3.4-0.3,4.8-0.8
				c1.4-0.5,2.7-1.4,3.9-2.5l5.3,5.8c-3.2,3.7-8,5.6-14.2,5.6c-3.9,0-7.3-0.8-10.3-2.3c-3-1.5-5.3-3.6-6.9-6.3
				c-1.6-2.7-2.4-5.7-2.4-9.2c0-3.4,0.8-6.4,2.4-9.1c1.6-2.7,3.8-4.8,6.6-6.3c2.8-1.5,5.9-2.3,9.4-2.3c3.4,0,6.4,0.7,9.2,2.2
				c2.7,1.5,4.9,3.5,6.4,6.3c1.6,2.7,2.3,5.9,2.3,9.5C917.6,137.7,917.6,138.6,917.4,140.3z M894,129.2c-1.5,1.3-2.5,3-2.8,5.3h17
				c-0.3-2.2-1.3-3.9-2.8-5.2c-1.5-1.3-3.4-2-5.6-2C897.5,127.2,895.6,127.9,894,129.2z M902.3,106.5h10.8l-11.6,9.2h-7.8
				L902.3,106.5z"/>
			<path class="st3" d="M958.9,120.2v28.7c0,6.3-1.6,11-4.9,14.1c-3.3,3.1-8.1,4.6-14.4,4.6c-3.3,0-6.5-0.4-9.5-1.2s-5.5-2-7.4-3.5
				l4-7.2c1.5,1.2,3.3,2.1,5.5,2.9c2.2,0.7,4.4,1.1,6.7,1.1c3.5,0,6-0.8,7.7-2.3c1.6-1.6,2.5-3.9,2.5-7.1v-1.5
				c-2.6,2.9-6.2,4.3-10.9,4.3c-3.2,0-6.1-0.7-8.7-2.1c-2.6-1.4-4.7-3.3-6.3-5.9c-1.5-2.5-2.3-5.4-2.3-8.7c0-3.3,0.8-6.2,2.3-8.7
				c1.5-2.5,3.6-4.5,6.3-5.9c2.6-1.4,5.5-2.1,8.7-2.1c5,0,8.8,1.6,11.4,4.9v-4.4H958.9z M946.5,142.5c1.7-1.6,2.5-3.6,2.5-6.1
				c0-2.5-0.8-4.6-2.5-6.1c-1.7-1.6-3.9-2.3-6.5-2.3s-4.8,0.8-6.5,2.3c-1.7,1.6-2.6,3.6-2.6,6.1c0,2.5,0.9,4.6,2.6,6.1
				c1.7,1.6,3.9,2.3,6.5,2.3S944.8,144,946.5,142.5z"/>
			<path class="st3" d="M993.5,123.5c2.9,2.5,4.3,6.4,4.3,11.5v19.7h-9.4v-4.3c-1.9,3.2-5.4,4.8-10.5,4.8c-2.6,0-4.9-0.4-6.9-1.3
				c-1.9-0.9-3.4-2.1-4.5-3.7c-1-1.6-1.5-3.4-1.5-5.4c0-3.2,1.2-5.7,3.6-7.6c2.4-1.8,6.1-2.8,11.2-2.8h7.9c0-2.2-0.7-3.9-2-5
				c-1.3-1.2-3.3-1.8-6-1.8c-1.8,0-3.6,0.3-5.4,0.9c-1.8,0.6-3.3,1.4-4.5,2.3l-3.6-7c1.9-1.3,4.1-2.3,6.8-3.1
				c2.6-0.7,5.3-1.1,8.1-1.1C986.5,119.7,990.6,120.9,993.5,123.5z M985,147.3c1.3-0.8,2.3-2,2.8-3.5v-3.5h-6.9
				c-4.1,0-6.2,1.3-6.2,4c0,1.3,0.5,2.3,1.5,3s2.4,1.1,4.1,1.1C982.1,148.5,983.6,148.1,985,147.3z"/>
			<path class="st3" d="M1005.9,107.1h10v47.6h-10V107.1z"/>
			<path class="st3" d="M1057.8,140.3h-26.1c0.5,2.1,1.6,3.8,3.3,5.1c1.8,1.2,3.9,1.9,6.5,1.9c1.8,0,3.4-0.3,4.8-0.8
				c1.4-0.5,2.7-1.4,3.9-2.5l5.3,5.8c-3.2,3.7-8,5.6-14.2,5.6c-3.9,0-7.3-0.8-10.3-2.3c-3-1.5-5.3-3.6-6.9-6.3
				c-1.6-2.7-2.4-5.7-2.4-9.2c0-3.4,0.8-6.4,2.4-9.1s3.8-4.8,6.6-6.3c2.8-1.5,5.9-2.3,9.4-2.3c3.4,0,6.4,0.7,9.2,2.2
				c2.7,1.5,4.9,3.5,6.4,6.3c1.6,2.7,2.3,5.9,2.3,9.5C1058,137.7,1057.9,138.6,1057.8,140.3z M1034.4,129.2c-1.5,1.3-2.5,3-2.8,5.3
				h17c-0.3-2.2-1.3-3.9-2.8-5.2c-1.5-1.3-3.4-2-5.6-2C1037.9,127.2,1036,127.9,1034.4,129.2z"/>
		</g>
		<g>
			<rect x="472.2" y="192.3" class="st0" width="587.8" height="3.1"/>
		</g>
		<g>
			<path class="st3" d="M476.5,224.6h2.8v26.2h-2.8V224.6z"/>
			<path class="st3" d="M504.3,233.1c1.5,1.4,2.2,3.5,2.2,6.3v11.4h-2.7v-11.1c0-2-0.5-3.6-1.5-4.7c-1-1.1-2.5-1.6-4.4-1.6
				c-2.1,0-3.8,0.6-5,1.9c-1.2,1.3-1.9,3-1.9,5.2v10.3h-2.7v-19.7h2.5v3.6c0.7-1.2,1.7-2.1,3-2.8c1.3-0.7,2.8-1,4.5-1
				C500.9,231,502.8,231.7,504.3,233.1z"/>
			<path class="st3" d="M525.2,249.6c-0.5,0.4-1.1,0.8-1.8,1c-0.7,0.2-1.5,0.4-2.3,0.4c-1.8,0-3.3-0.5-4.3-1.5s-1.5-2.4-1.5-4.2
				v-11.9h-3.5v-2.2h3.5v-4.3h2.7v4.3h6v2.2h-6v11.7c0,1.2,0.3,2.1,0.9,2.7c0.6,0.6,1.4,0.9,2.5,0.9c0.5,0,1.1-0.1,1.6-0.3
				c0.5-0.2,1-0.4,1.3-0.7L525.2,249.6z"/>
			<path class="st3" d="M547.5,241.8h-16.5c0.1,2,0.9,3.7,2.4,5c1.4,1.3,3.2,1.9,5.4,1.9c1.2,0,2.3-0.2,3.4-0.7
				c1-0.4,1.9-1.1,2.7-1.9l1.5,1.7c-0.9,1-2,1.8-3.3,2.4c-1.3,0.5-2.8,0.8-4.3,0.8c-2,0-3.8-0.4-5.4-1.3c-1.6-0.9-2.8-2.1-3.6-3.6
				c-0.9-1.5-1.3-3.2-1.3-5.2c0-1.9,0.4-3.6,1.3-5.2c0.8-1.5,2-2.7,3.4-3.6c1.5-0.8,3.1-1.3,4.9-1.3s3.5,0.4,4.9,1.3
				c1.4,0.8,2.6,2,3.4,3.5c0.8,1.5,1.2,3.2,1.2,5.2L547.5,241.8z M533.3,235.1c-1.3,1.2-2,2.8-2.2,4.7h14c-0.2-1.9-0.9-3.5-2.2-4.7
				c-1.3-1.2-2.9-1.8-4.8-1.8C536.1,233.2,534.5,233.9,533.3,235.1z"/>
			<path class="st3" d="M559.4,232c1.2-0.7,2.8-1,4.6-1v2.6l-0.6,0c-2.1,0-3.7,0.6-4.9,1.9c-1.2,1.3-1.8,3.1-1.8,5.3v10h-2.7v-19.7
				h2.5v3.9C557.3,233.6,558.2,232.7,559.4,232z"/>
			<path class="st3" d="M585.9,233.1c1.5,1.4,2.2,3.5,2.2,6.3v11.4h-2.7v-11.1c0-2-0.5-3.6-1.5-4.7c-1-1.1-2.5-1.6-4.4-1.6
				c-2.1,0-3.8,0.6-5,1.9c-1.2,1.3-1.9,3-1.9,5.2v10.3h-2.7v-19.7h2.5v3.6c0.7-1.2,1.7-2.1,3-2.8c1.3-0.7,2.8-1,4.5-1
				C582.4,231,584.4,231.7,585.9,233.1z"/>
			<path class="st3" d="M609.2,232.9c1.4,1.3,2.1,3.2,2.1,5.7v12.2h-2.5v-3.1c-0.6,1-1.5,1.8-2.6,2.4c-1.2,0.6-2.5,0.9-4.1,0.9
				c-2.2,0-3.9-0.5-5.2-1.6c-1.3-1-1.9-2.4-1.9-4.2c0-1.7,0.6-3,1.8-4c1.2-1,3.1-1.5,5.8-1.5h6.2v-1.2c0-1.7-0.5-3-1.4-3.9
				c-0.9-0.9-2.3-1.3-4.2-1.3c-1.2,0-2.4,0.2-3.6,0.6c-1.1,0.4-2.1,1-3,1.7l-1.2-2c1-0.8,2.2-1.5,3.6-2s2.9-0.7,4.4-0.7
				C605.8,231,607.8,231.6,609.2,232.9z M606.2,247.9c1.1-0.7,1.9-1.7,2.4-3v-3.2h-6.2c-3.4,0-5.1,1.2-5.1,3.5
				c0,1.1,0.4,2.1,1.3,2.7c0.9,0.7,2.1,1,3.7,1C603.8,248.9,605.1,248.5,606.2,247.9z"/>
			<path class="st3" d="M629.9,249.6c-0.5,0.4-1.1,0.8-1.8,1c-0.7,0.2-1.5,0.4-2.3,0.4c-1.8,0-3.3-0.5-4.3-1.5c-1-1-1.5-2.4-1.5-4.2
				v-11.9h-3.5v-2.2h3.5v-4.3h2.7v4.3h6v2.2h-6v11.7c0,1.2,0.3,2.1,0.9,2.7c0.6,0.6,1.4,0.9,2.5,0.9c0.5,0,1.1-0.1,1.6-0.3
				c0.5-0.2,1-0.4,1.3-0.7L629.9,249.6z"/>
			<path class="st3" d="M635.9,226.3c-0.4-0.4-0.6-0.8-0.6-1.3c0-0.5,0.2-0.9,0.6-1.3c0.4-0.4,0.8-0.6,1.4-0.6c0.5,0,1,0.2,1.4,0.5
				c0.4,0.4,0.6,0.8,0.6,1.3c0,0.5-0.2,1-0.6,1.4c-0.4,0.4-0.8,0.6-1.4,0.6C636.7,226.8,636.2,226.6,635.9,226.3z M635.9,231.1h2.7
				v19.7h-2.7V231.1z"/>
			<path class="st3" d="M650,249.7c-1.5-0.9-2.7-2.1-3.6-3.6c-0.9-1.5-1.3-3.2-1.3-5.2c0-1.9,0.4-3.6,1.3-5.2
				c0.9-1.5,2.1-2.7,3.6-3.6c1.5-0.8,3.2-1.3,5.1-1.3c1.9,0,3.6,0.4,5.1,1.3c1.5,0.8,2.7,2,3.6,3.6c0.9,1.5,1.3,3.2,1.3,5.2
				c0,1.9-0.4,3.6-1.3,5.2c-0.9,1.5-2,2.7-3.6,3.6c-1.5,0.9-3.2,1.3-5.1,1.3C653.2,251,651.5,250.5,650,249.7z M658.9,247.7
				c1.1-0.6,2-1.5,2.6-2.7c0.6-1.2,0.9-2.5,0.9-4c0-1.5-0.3-2.8-0.9-4c-0.6-1.2-1.5-2.1-2.6-2.7c-1.1-0.6-2.4-1-3.8-1
				c-1.4,0-2.6,0.3-3.8,1c-1.1,0.6-2,1.5-2.6,2.7c-0.6,1.2-1,2.5-1,4c0,1.5,0.3,2.8,1,4c0.6,1.2,1.5,2.1,2.6,2.7
				c1.1,0.6,2.4,1,3.8,1C656.5,248.6,657.8,248.3,658.9,247.7z"/>
			<path class="st3" d="M687.6,233.1c1.5,1.4,2.2,3.5,2.2,6.3v11.4h-2.7v-11.1c0-2-0.5-3.6-1.5-4.7c-1-1.1-2.5-1.6-4.4-1.6
				c-2.1,0-3.8,0.6-5,1.9c-1.2,1.3-1.9,3-1.9,5.2v10.3h-2.7v-19.7h2.5v3.6c0.7-1.2,1.7-2.1,3-2.8c1.3-0.7,2.8-1,4.5-1
				C684.1,231,686.1,231.7,687.6,233.1z"/>
			<path class="st3" d="M710.9,232.9c1.4,1.3,2.1,3.2,2.1,5.7v12.2h-2.5v-3.1c-0.6,1-1.5,1.8-2.6,2.4c-1.2,0.6-2.5,0.9-4.1,0.9
				c-2.2,0-3.9-0.5-5.2-1.6c-1.3-1-1.9-2.4-1.9-4.2c0-1.7,0.6-3,1.8-4c1.2-1,3.1-1.5,5.8-1.5h6.2v-1.2c0-1.7-0.5-3-1.4-3.9
				c-0.9-0.9-2.3-1.3-4.2-1.3c-1.2,0-2.4,0.2-3.6,0.6c-1.1,0.4-2.1,1-3,1.7l-1.2-2c1-0.8,2.2-1.5,3.6-2s2.9-0.7,4.4-0.7
				C707.5,231,709.5,231.6,710.9,232.9z M707.9,247.9c1.1-0.7,1.9-1.7,2.4-3v-3.2h-6.2c-3.4,0-5.1,1.2-5.1,3.5
				c0,1.1,0.4,2.1,1.3,2.7c0.9,0.7,2.1,1,3.7,1C705.5,248.9,706.8,248.5,707.9,247.9z"/>
			<path class="st3" d="M721.3,223h2.7v27.8h-2.7V223z"/>
			<path class="st3" d="M755.6,249.3c-2.1-1.2-3.8-2.7-4.9-4.8c-1.2-2-1.8-4.3-1.8-6.8c0-2.5,0.6-4.8,1.8-6.8c1.2-2,2.8-3.6,4.9-4.8
				c2.1-1.2,4.5-1.7,7.1-1.7c2.6,0,4.9,0.6,7,1.7c2.1,1.1,3.7,2.7,4.9,4.8c1.2,2,1.8,4.3,1.8,6.8c0,2.5-0.6,4.8-1.8,6.8
				c-1.2,2-2.8,3.6-4.9,4.8s-4.4,1.7-7,1.7C760.1,251,757.7,250.4,755.6,249.3z M768.3,247.1c1.7-0.9,3-2.2,3.9-3.9
				c0.9-1.7,1.4-3.5,1.4-5.6c0-2-0.5-3.9-1.4-5.6c-0.9-1.7-2.3-3-3.9-3.9c-1.7-0.9-3.5-1.4-5.6-1.4s-3.9,0.5-5.6,1.4
				c-1.7,0.9-3,2.2-4,3.9c-1,1.7-1.4,3.5-1.4,5.6c0,2,0.5,3.9,1.4,5.6c1,1.7,2.3,3,4,3.9c1.7,0.9,3.6,1.4,5.6,1.4
				S766.6,248.1,768.3,247.1z"/>
			<path class="st3" d="M788.5,232c1.2-0.7,2.8-1,4.6-1v2.6l-0.6,0c-2.1,0-3.7,0.6-4.9,1.9c-1.2,1.3-1.8,3.1-1.8,5.3v10h-2.7v-19.7
				h2.5v3.9C786.3,233.6,787.2,232.7,788.5,232z"/>
			<path class="st3" d="M817,231.1v17.3c0,3.3-0.8,5.8-2.4,7.4c-1.6,1.6-4.1,2.4-7.4,2.4c-1.8,0-3.5-0.3-5.2-0.8
				c-1.6-0.5-3-1.3-4-2.2l1.3-2c0.9,0.8,2.1,1.5,3.5,2c1.4,0.5,2.8,0.7,4.3,0.7c2.5,0,4.3-0.6,5.5-1.7c1.2-1.2,1.8-3,1.8-5.4v-2.5
				c-0.8,1.2-1.9,2.2-3.2,2.8c-1.3,0.6-2.8,1-4.4,1c-1.8,0-3.5-0.4-5-1.2c-1.5-0.8-2.7-1.9-3.6-3.4c-0.9-1.5-1.3-3.1-1.3-5
				s0.4-3.5,1.3-4.9c0.9-1.4,2-2.6,3.5-3.4c1.5-0.8,3.2-1.2,5.1-1.2c1.7,0,3.2,0.3,4.5,1c1.3,0.7,2.4,1.6,3.3,2.9v-3.8H817z
				 M810.8,246.8c1.1-0.6,2-1.5,2.7-2.6c0.6-1.1,1-2.3,1-3.7c0-1.4-0.3-2.6-1-3.7c-0.6-1.1-1.5-1.9-2.7-2.5
				c-1.1-0.6-2.4-0.9-3.9-0.9c-1.4,0-2.7,0.3-3.8,0.9c-1.1,0.6-2,1.4-2.7,2.5c-0.6,1.1-1,2.3-1,3.7c0,1.4,0.3,2.6,1,3.7
				c0.6,1.1,1.5,2,2.7,2.6c1.1,0.6,2.4,0.9,3.8,0.9S809.6,247.4,810.8,246.8z"/>
			<path class="st3" d="M838.4,232.9c1.4,1.3,2.1,3.2,2.1,5.7v12.2h-2.5v-3.1c-0.6,1-1.5,1.8-2.6,2.4c-1.2,0.6-2.5,0.9-4.1,0.9
				c-2.2,0-3.9-0.5-5.2-1.6c-1.3-1-1.9-2.4-1.9-4.2c0-1.7,0.6-3,1.8-4c1.2-1,3.1-1.5,5.8-1.5h6.2v-1.2c0-1.7-0.5-3-1.4-3.9
				c-0.9-0.9-2.3-1.3-4.2-1.3c-1.2,0-2.4,0.2-3.6,0.6c-1.1,0.4-2.1,1-3,1.7l-1.2-2c1-0.8,2.2-1.5,3.6-2s2.9-0.7,4.4-0.7
				C835,231,837,231.6,838.4,232.9z M835.4,247.9c1.1-0.7,1.9-1.7,2.4-3v-3.2h-6.2c-3.4,0-5.1,1.2-5.1,3.5c0,1.1,0.4,2.1,1.3,2.7
				c0.9,0.7,2.1,1,3.7,1C833,248.9,834.3,248.5,835.4,247.9z"/>
			<path class="st3" d="M864.7,233.1c1.5,1.4,2.2,3.5,2.2,6.3v11.4h-2.7v-11.1c0-2-0.5-3.6-1.5-4.7c-1-1.1-2.5-1.6-4.4-1.6
				c-2.1,0-3.8,0.6-5,1.9c-1.2,1.3-1.9,3-1.9,5.2v10.3h-2.7v-19.7h2.5v3.6c0.7-1.2,1.7-2.1,3-2.8c1.3-0.7,2.8-1,4.5-1
				C861.3,231,863.2,231.7,864.7,233.1z"/>
			<path class="st3" d="M875.2,226.3c-0.4-0.4-0.6-0.8-0.6-1.3c0-0.5,0.2-0.9,0.6-1.3c0.4-0.4,0.8-0.6,1.4-0.6c0.5,0,1,0.2,1.4,0.5
				c0.4,0.4,0.6,0.8,0.6,1.3c0,0.5-0.2,1-0.6,1.4c-0.4,0.4-0.8,0.6-1.4,0.6C876,226.8,875.5,226.6,875.2,226.3z M875.2,231.1h2.7
				v19.7h-2.7V231.1z"/>
			<path class="st3" d="M900.3,248.6v2.2h-16V249l12.4-15.7h-12.2v-2.2H900v1.8l-12.4,15.7H900.3z"/>
			<path class="st3" d="M919.4,232.9c1.4,1.3,2.1,3.2,2.1,5.7v12.2h-2.5v-3.1c-0.6,1-1.5,1.8-2.6,2.4c-1.2,0.6-2.5,0.9-4.1,0.9
				c-2.2,0-3.9-0.5-5.2-1.6c-1.3-1-1.9-2.4-1.9-4.2c0-1.7,0.6-3,1.8-4c1.2-1,3.1-1.5,5.8-1.5h6.2v-1.2c0-1.7-0.5-3-1.4-3.9
				c-0.9-0.9-2.3-1.3-4.2-1.3c-1.2,0-2.4,0.2-3.6,0.6c-1.1,0.4-2.1,1-3,1.7l-1.2-2c1-0.8,2.2-1.5,3.6-2s2.9-0.7,4.4-0.7
				C916.1,231,918,231.6,919.4,232.9z M916.4,247.9c1.1-0.7,1.9-1.7,2.4-3v-3.2h-6.2c-3.4,0-5.1,1.2-5.1,3.5c0,1.1,0.4,2.1,1.3,2.7
				c0.9,0.7,2.1,1,3.7,1C914.1,248.9,915.4,248.5,916.4,247.9z"/>
			<path class="st3" d="M940.2,249.6c-0.5,0.4-1.1,0.8-1.8,1c-0.7,0.2-1.5,0.4-2.3,0.4c-1.8,0-3.3-0.5-4.3-1.5s-1.5-2.4-1.5-4.2
				v-11.9h-3.5v-2.2h3.5v-4.3h2.7v4.3h6v2.2h-6v11.7c0,1.2,0.3,2.1,0.9,2.7c0.6,0.6,1.4,0.9,2.5,0.9c0.5,0,1.1-0.1,1.6-0.3
				c0.5-0.2,1-0.4,1.3-0.7L940.2,249.6z"/>
			<path class="st3" d="M946.1,226.3c-0.4-0.4-0.6-0.8-0.6-1.3c0-0.5,0.2-0.9,0.6-1.3c0.4-0.4,0.8-0.6,1.4-0.6c0.5,0,1,0.2,1.4,0.5
				c0.4,0.4,0.6,0.8,0.6,1.3c0,0.5-0.2,1-0.6,1.4c-0.4,0.4-0.8,0.6-1.4,0.6C946.9,226.8,946.5,226.6,946.1,226.3z M946.1,231.1h2.7
				v19.7h-2.7V231.1z"/>
			<path class="st3" d="M960.2,249.7c-1.5-0.9-2.7-2.1-3.6-3.6c-0.9-1.5-1.3-3.2-1.3-5.2c0-1.9,0.4-3.6,1.3-5.2
				c0.9-1.5,2.1-2.7,3.6-3.6c1.5-0.8,3.2-1.3,5.1-1.3c1.9,0,3.6,0.4,5.1,1.3c1.5,0.8,2.7,2,3.6,3.6c0.9,1.5,1.3,3.2,1.3,5.2
				c0,1.9-0.4,3.6-1.3,5.2c-0.9,1.5-2,2.7-3.6,3.6c-1.5,0.9-3.2,1.3-5.1,1.3C963.5,251,961.7,250.5,960.2,249.7z M969.1,247.7
				c1.1-0.6,2-1.5,2.6-2.7c0.6-1.2,0.9-2.5,0.9-4c0-1.5-0.3-2.8-0.9-4c-0.6-1.2-1.5-2.1-2.6-2.7c-1.1-0.6-2.4-1-3.8-1
				c-1.4,0-2.6,0.3-3.8,1c-1.1,0.6-2,1.5-2.6,2.7c-0.6,1.2-1,2.5-1,4c0,1.5,0.3,2.8,1,4c0.6,1.2,1.5,2.1,2.6,2.7
				c1.1,0.6,2.4,1,3.8,1C966.7,248.6,968,248.3,969.1,247.7z"/>
			<path class="st3" d="M997.8,233.1c1.5,1.4,2.2,3.5,2.2,6.3v11.4h-2.7v-11.1c0-2-0.5-3.6-1.5-4.7c-1-1.1-2.5-1.6-4.4-1.6
				c-2.1,0-3.8,0.6-5,1.9c-1.2,1.3-1.9,3-1.9,5.2v10.3h-2.7v-19.7h2.5v3.6c0.7-1.2,1.7-2.1,3-2.8c1.3-0.7,2.8-1,4.5-1
				C994.4,231,996.3,231.7,997.8,233.1z"/>
			<path class="st3" d="M1029.4,249.7c-1.5-0.9-2.7-2.1-3.6-3.6c-0.9-1.5-1.3-3.2-1.3-5.2c0-1.9,0.4-3.6,1.3-5.2
				c0.9-1.5,2.1-2.7,3.6-3.6c1.5-0.8,3.2-1.3,5.1-1.3c1.9,0,3.6,0.4,5.1,1.3s2.7,2,3.6,3.6c0.9,1.5,1.3,3.2,1.3,5.2
				c0,1.9-0.4,3.6-1.3,5.2c-0.9,1.5-2,2.7-3.6,3.6c-1.5,0.9-3.2,1.3-5.1,1.3C1032.6,251,1030.9,250.5,1029.4,249.7z M1038.3,247.7
				c1.1-0.6,2-1.5,2.6-2.7c0.6-1.2,0.9-2.5,0.9-4c0-1.5-0.3-2.8-0.9-4c-0.6-1.2-1.5-2.1-2.6-2.7c-1.1-0.6-2.4-1-3.8-1
				c-1.4,0-2.6,0.3-3.8,1c-1.1,0.6-2,1.5-2.6,2.7c-0.6,1.2-1,2.5-1,4c0,1.5,0.3,2.8,1,4c0.6,1.2,1.5,2.1,2.6,2.7
				c1.1,0.6,2.4,1,3.8,1C1035.9,248.6,1037.2,248.3,1038.3,247.7z"/>
			<path class="st3" d="M1055,226c-0.6,0.6-0.9,1.5-0.9,2.8v2.3h6.1v2.2h-6v17.4h-2.7v-17.4h-3.5v-2.2h3.5v-2.4
				c0-1.8,0.5-3.2,1.6-4.3c1-1,2.5-1.6,4.4-1.6c0.7,0,1.5,0.1,2.2,0.3c0.7,0.2,1.3,0.5,1.8,0.9l-0.9,2c-0.8-0.6-1.7-1-2.9-1
				C1056.4,225.1,1055.6,225.4,1055,226z"/>
			<path class="st3" d="M477.6,277.2h10.4v36.4h22.5v8.5h-32.9V277.2z"/>
			<path class="st3" d="M551.5,307.6h-26.1c0.5,2.1,1.6,3.8,3.3,5.1c1.8,1.2,3.9,1.9,6.5,1.9c1.8,0,3.4-0.3,4.8-0.8
				c1.4-0.5,2.7-1.4,3.9-2.5l5.3,5.8c-3.2,3.7-8,5.6-14.2,5.6c-3.9,0-7.3-0.8-10.3-2.3c-3-1.5-5.3-3.6-6.9-6.3
				c-1.6-2.7-2.4-5.7-2.4-9.2c0-3.4,0.8-6.4,2.4-9.1c1.6-2.7,3.8-4.8,6.6-6.3c2.8-1.5,5.9-2.3,9.4-2.3c3.4,0,6.4,0.7,9.2,2.2
				c2.7,1.5,4.9,3.5,6.4,6.3c1.6,2.7,2.3,5.9,2.3,9.5C551.7,305,551.6,305.9,551.5,307.6z M528.1,296.5c-1.5,1.3-2.5,3-2.8,5.3h17
				c-0.3-2.2-1.3-3.9-2.8-5.2c-1.5-1.3-3.4-2-5.6-2C531.5,294.6,529.6,295.2,528.1,296.5z"/>
			<path class="st3" d="M596.5,287.5v28.7c0,6.3-1.6,11-4.9,14.1c-3.3,3.1-8.1,4.6-14.4,4.6c-3.3,0-6.5-0.4-9.5-1.2
				c-3-0.8-5.5-2-7.4-3.5l4-7.2c1.5,1.2,3.3,2.1,5.5,2.9c2.2,0.7,4.4,1.1,6.7,1.1c3.5,0,6-0.8,7.7-2.3c1.6-1.6,2.5-3.9,2.5-7.1v-1.5
				c-2.6,2.9-6.2,4.3-10.9,4.3c-3.2,0-6.1-0.7-8.7-2.1c-2.6-1.4-4.7-3.3-6.3-5.9c-1.5-2.5-2.3-5.4-2.3-8.7c0-3.3,0.8-6.2,2.3-8.7
				c1.5-2.5,3.6-4.5,6.3-5.9c2.6-1.4,5.5-2.1,8.7-2.1c5,0,8.8,1.6,11.4,4.9v-4.4H596.5z M584.1,309.8c1.7-1.6,2.5-3.6,2.5-6.1
				c0-2.5-0.8-4.6-2.5-6.1c-1.7-1.6-3.9-2.3-6.5-2.3s-4.8,0.8-6.5,2.3c-1.7,1.6-2.6,3.6-2.6,6.1c0,2.5,0.9,4.6,2.6,6.1
				c1.7,1.6,3.9,2.3,6.5,2.3S582.4,311.4,584.1,309.8z"/>
			<path class="st3" d="M634.6,290.8c2.9,2.5,4.3,6.4,4.3,11.5V322h-9.4v-4.3c-1.9,3.2-5.4,4.8-10.5,4.8c-2.6,0-4.9-0.4-6.9-1.3
				c-1.9-0.9-3.4-2.1-4.5-3.7c-1-1.6-1.5-3.4-1.5-5.4c0-3.2,1.2-5.7,3.6-7.6c2.4-1.8,6.1-2.8,11.2-2.8h7.9c0-2.2-0.7-3.9-2-5
				c-1.3-1.2-3.3-1.8-6-1.8c-1.8,0-3.6,0.3-5.4,0.9c-1.8,0.6-3.3,1.4-4.5,2.3l-3.6-7c1.9-1.3,4.1-2.3,6.8-3.1
				c2.6-0.7,5.3-1.1,8.1-1.1C627.6,287,631.7,288.3,634.6,290.8z M626.1,314.6c1.3-0.8,2.3-2,2.8-3.5v-3.5H622c-4.1,0-6.2,1.3-6.2,4
				c0,1.3,0.5,2.3,1.5,3c1,0.7,2.4,1.1,4.1,1.1C623.2,315.8,624.8,315.4,626.1,314.6z"/>
			<path class="st3" d="M650.5,274.5h10V322h-10V274.5z"/>
			<path class="st3" d="M742.5,322l-0.1-26.9l-13.2,22.2h-4.7l-13.1-21.6V322h-9.7v-44.9h8.6l16.8,27.9l16.5-27.9h8.5l0.1,44.9
				H742.5z"/>
			<path class="st3" d="M798.4,307.6h-26.1c0.5,2.1,1.6,3.8,3.3,5.1c1.8,1.2,3.9,1.9,6.5,1.9c1.8,0,3.4-0.3,4.8-0.8
				c1.4-0.5,2.7-1.4,3.9-2.5l5.3,5.8c-3.2,3.7-8,5.6-14.2,5.6c-3.9,0-7.3-0.8-10.3-2.3c-3-1.5-5.3-3.6-6.9-6.3
				c-1.6-2.7-2.4-5.7-2.4-9.2c0-3.4,0.8-6.4,2.4-9.1c1.6-2.7,3.8-4.8,6.6-6.3c2.8-1.5,5.9-2.3,9.4-2.3c3.4,0,6.4,0.7,9.2,2.2
				c2.7,1.5,4.9,3.5,6.4,6.3c1.6,2.7,2.3,5.9,2.3,9.5C798.6,305,798.5,305.9,798.4,307.6z M775,296.5c-1.5,1.3-2.5,3-2.8,5.3h17
				c-0.3-2.2-1.3-3.9-2.8-5.2c-1.5-1.3-3.4-2-5.6-2C778.4,294.6,776.5,295.2,775,296.5z"/>
			<path class="st3" d="M830,320.4c-1,0.7-2.2,1.3-3.6,1.6s-2.9,0.5-4.5,0.5c-4.1,0-7.3-1-9.5-3.1c-2.2-2.1-3.4-5.2-3.4-9.2V296
				h-5.3v-7.7h5.3v-8.4h10v8.4h8.6v7.7H819v14c0,1.5,0.4,2.6,1.1,3.4c0.7,0.8,1.8,1.2,3.2,1.2c1.6,0,2.9-0.4,4-1.3L830,320.4z"/>
			<path class="st3" d="M852.6,288.3c2-0.9,4.4-1.3,7-1.3v9.2c-1.1-0.1-1.9-0.1-2.2-0.1c-2.9,0-5.1,0.8-6.7,2.4
				c-1.6,1.6-2.4,4-2.4,7.2V322h-10v-34.5h9.6v4.6C849,290.4,850.6,289.2,852.6,288.3z"/>
			<path class="st3" d="M874.5,320.3c-2.9-1.5-5.1-3.6-6.8-6.3c-1.6-2.7-2.4-5.7-2.4-9.2c0-3.4,0.8-6.5,2.4-9.2
				c1.6-2.7,3.9-4.8,6.8-6.3c2.9-1.5,6.1-2.3,9.8-2.3c3.6,0,6.9,0.8,9.7,2.3c2.9,1.5,5.1,3.6,6.7,6.3s2.4,5.8,2.4,9.2
				c0,3.4-0.8,6.5-2.4,9.2s-3.9,4.8-6.7,6.3c-2.9,1.5-6.1,2.3-9.7,2.3C880.7,322.6,877.4,321.8,874.5,320.3z M890.6,311.8
				c1.6-1.7,2.5-4.1,2.5-7c0-2.9-0.8-5.2-2.5-7c-1.6-1.7-3.7-2.6-6.3-2.6c-2.6,0-4.7,0.9-6.3,2.6c-1.7,1.7-2.5,4.1-2.5,7
				c0,2.9,0.8,5.2,2.5,7c1.7,1.7,3.8,2.6,6.3,2.6C886.9,314.3,889,313.5,890.6,311.8z"/>
			<path class="st3" d="M912.4,274.5h10V322h-10V274.5z"/>
			<path class="st3" d="M940.9,320.3c-2.9-1.5-5.1-3.6-6.8-6.3c-1.6-2.7-2.4-5.7-2.4-9.2c0-3.4,0.8-6.5,2.4-9.2
				c1.6-2.7,3.9-4.8,6.8-6.3c2.9-1.5,6.1-2.3,9.8-2.3c3.6,0,6.9,0.8,9.7,2.3c2.9,1.5,5.1,3.6,6.7,6.3s2.4,5.8,2.4,9.2
				c0,3.4-0.8,6.5-2.4,9.2s-3.9,4.8-6.7,6.3c-2.9,1.5-6.1,2.3-9.7,2.3C947.1,322.6,943.8,321.8,940.9,320.3z M957,311.8
				c1.6-1.7,2.5-4.1,2.5-7c0-2.9-0.8-5.2-2.5-7c-1.6-1.7-3.7-2.6-6.3-2.6c-2.6,0-4.7,0.9-6.3,2.6c-1.7,1.7-2.5,4.1-2.5,7
				c0,2.9,0.8,5.2,2.5,7c1.7,1.7,3.8,2.6,6.3,2.6C953.3,314.3,955.4,313.5,957,311.8z"/>
			<path class="st3" d="M1014.5,287.5v28.7c0,6.3-1.6,11-4.9,14.1c-3.3,3.1-8.1,4.6-14.4,4.6c-3.3,0-6.5-0.4-9.5-1.2
				c-3-0.8-5.5-2-7.4-3.5l4-7.2c1.5,1.2,3.3,2.1,5.5,2.9c2.2,0.7,4.4,1.1,6.7,1.1c3.5,0,6-0.8,7.7-2.3c1.6-1.6,2.5-3.9,2.5-7.1v-1.5
				c-2.6,2.9-6.2,4.3-10.9,4.3c-3.2,0-6.1-0.7-8.7-2.1c-2.6-1.4-4.7-3.3-6.3-5.9c-1.5-2.5-2.3-5.4-2.3-8.7c0-3.3,0.8-6.2,2.3-8.7
				c1.5-2.5,3.6-4.5,6.3-5.9c2.6-1.4,5.5-2.1,8.7-2.1c5,0,8.8,1.6,11.4,4.9v-4.4H1014.5z M1002.1,309.8c1.7-1.6,2.5-3.6,2.5-6.1
				c0-2.5-0.8-4.6-2.5-6.1c-1.7-1.6-3.9-2.3-6.5-2.3s-4.8,0.8-6.5,2.3c-1.7,1.6-2.6,3.6-2.6,6.1c0,2.5,0.9,4.6,2.6,6.1
				c1.7,1.6,3.9,2.3,6.5,2.3S1000.4,311.4,1002.1,309.8z"/>
			<path class="st3" d="M1060.6,287.5l-15.6,36.6c-1.6,4-3.5,6.8-5.9,8.4c-2.3,1.6-5.1,2.4-8.4,2.4c-1.8,0-3.6-0.3-5.3-0.8
				c-1.8-0.6-3.2-1.3-4.3-2.3l3.7-7.1c0.8,0.7,1.7,1.2,2.7,1.6c1,0.4,2,0.6,3,0.6c1.4,0,2.5-0.3,3.3-1c0.9-0.7,1.6-1.8,2.3-3.3
				l0.1-0.3l-14.9-34.8h10.3l9.7,23.4l9.7-23.4H1060.6z"/>
		</g>
	</g>
</g>
</svg>
