<?xml version="1.0" encoding="UTF-8"?><svg id="uuid-8254e958-185a-4059-ac34-8a156a2e0e83" xmlns="http://www.w3.org/2000/svg" viewBox="0 0 120 100"><path d="M36.59,13.77c8.2,10.18,37.61,10.18,45.62,0" style="fill:none; stroke:#231f20; stroke-miterlimit:3.85; stroke-width:.91px;"/><path d="M36.59,86.47c8.2-10.18,37.61-10.18,45.62,0" style="fill:none; stroke:#231f20; stroke-miterlimit:3.85; stroke-width:.91px;"/><circle cx="59.35" cy="49.99" r="42.94" style="fill:none; stroke:#000; stroke-miterlimit:3.85; stroke-width:.91px;"/><path d="M26.44,54.24c0,1.43-.04,2.82-.37,4.11-.66,2.53-2.16,4.29-5.65,4.29s-4.98-1.76-5.65-4.29c-.33-1.29-.41-2.68-.41-4.11v-7.99c0-1.32.22-2.56.55-3.67.66-2.23,2.23-3.71,5.5-3.71s4.73,1.46,5.46,3.71c.37,1.1.55,2.35.55,3.67M20.41,63.55c7.25,0,11.4-6.71,11.4-13.42,0-6.05-5.28-12.18-11.4-12.18s-11.42,6.13-11.42,12.18c0,6.71,4.18,13.42,11.44,13.42h-.02Z" style="fill:#231f20; fill-rule:evenodd;"/><polyline points="46.79 39.43 50.42 39.43 50.42 38.51 38.47 38.51 38.47 39.43 42.1 39.43 42.1 62.08 38.47 62.08 38.47 63 50.42 63 50.42 62.08 46.79 62.08" style="fill:#231f20;"/><polyline points="81.46 39.43 85.1 39.43 85.1 38.51 75.82 38.51 70.5 55.26 65.37 38.51 55.91 38.51 55.91 39.43 59.54 39.43 59.54 62.08 55.91 62.08 55.91 63 64.27 63 64.27 62.08 60.71 62.08 60.71 40.04 60.78 40.04 68.08 63 69.33 63 76.66 40.04 76.77 40.04 76.77 62.08 73.14 62.08 73.14 63 85.1 63 85.1 62.08 81.46 62.08" style="fill:#231f20;"/><path d="M110.64,63l.37-8.25h-1.14c-.15,4.22-1.79,7.33-6.46,7.33h-4.8v-22.66h3.82v-.92h-12.14v.92h3.63v22.66h-3.63v.92" style="fill:#231f20;"/><path d="M59.44,7.2c-15.32-.03-24.58,13.59-27.7,29.99" style="fill:none; stroke:#231f20; stroke-miterlimit:3.85; stroke-width:.91px;"/><path d="M32.1,64.61c3.39,15.63,12.47,28.32,27.32,28.32" style="fill:none; stroke:#231f20; stroke-miterlimit:3.85; stroke-width:.91px;"/><path d="M59.44,7.2c-7.58,0-12.11,13.69-13.58,30.14" style="fill:none; stroke:#231f20; stroke-miterlimit:3.85; stroke-width:.91px;"/><path d="M46.13,64.63c1.69,15.62,6.12,28.3,13.27,28.3" style="fill:none; stroke:#231f20; stroke-miterlimit:3.85; stroke-width:.91px;"/><line x1="59.44" y1="7.07" x2="59.42" y2="37.34" style="fill:none; stroke:#231f20; stroke-miterlimit:3.85; stroke-width:.91px;"/><line x1="59.45" y1="64.5" x2="59.42" y2="92.87" style="fill:none; stroke:#231f20; stroke-miterlimit:3.85; stroke-width:.91px;"/><path d="M72.94,37.35c-1.54-16.44-6.09-30.14-13.53-30.14" style="fill:none; stroke:#231f20; stroke-miterlimit:3.85; stroke-width:.91px;"/><path d="M59.47,92.95c7.32,0,11.74-12.78,13.35-28.46" style="fill:none; stroke:#231f20; stroke-miterlimit:3.85; stroke-width:.91px;"/><path d="M87.14,37.22c-3.1-16.38-12.35-30.01-27.72-30.01" style="fill:none; stroke:#231f20; stroke-miterlimit:3.85; stroke-width:.91px;"/><path d="M59.47,92.95c14.85.03,23.95-12.78,27.34-28.5" style="fill:none; stroke:#231f20; stroke-miterlimit:3.85; stroke-width:.91px;"/></svg>