<?xml version="1.0" encoding="UTF-8"?><svg id="uuid-addd0d8c-546b-4426-a3d9-b4c3a5069d6e" xmlns="http://www.w3.org/2000/svg" viewBox="0 0 1093.5 394.1"><path d="M222,362.3c-91,0-165-74-165-165S131,32.3,222,32.3s165,74,165,165-74,165-165,165ZM138.3,335.4c24.4,14.9,53.1,23.5,83.8,23.5s59.5-8.6,84-23.6c-14.4-16.2-45.6-26.3-82.4-26.6h-1.2c-36.9,0-69.5,10.4-84.2,26.7ZM134.8,61.5c-44.7,28.8-74.3,78.9-74.3,135.9s29.9,107.5,74.8,136.2c15.3-17.6,48.4-28.3,87.1-28.3h1.3c38.1.2,70.5,11,85.3,28.1,44.8-28.7,74.6-79,74.6-136.1s-29.5-106.9-74-135.7c-14.6,17.5-47.3,28.5-85.8,28.8-40,.2-73.8-10.8-89-28.9ZM137.7,59.6c14.5,16.7,47.4,27.4,84.8,27.4h1.2c37.3-.2,68.8-10.6,82.9-27.2-24.6-15.2-53.6-24-84.6-24s-59.7,8.7-84.3,23.8Z" style="fill:#004996;"/><path d="M74.1,248.9c27.6,0,43.4-25.5,43.4-51,0-23-20.1-46.3-43.4-46.3s-43.5,23.3-43.5,46.3c0,25.5,15.9,51,43.5,51h0ZM97,213.5c0,5.4-.1,10.7-1.4,15.6-2.5,9.6-8.2,16.3-21.5,16.3s-19-6.7-21.5-16.3c-1.3-4.9-1.5-10.2-1.5-15.6v-30.4c0-5,.8-9.8,2.1-13.9,2.5-8.5,8.5-14.1,20.9-14.1s18,5.6,20.8,14.1c1.4,4.2,2.1,8.9,2.1,13.9v30.4h0Z" style="fill:#1d1d1b; fill-rule:evenodd;"/><polygon points="174.3 157.2 188.1 157.2 188.1 153.7 142.7 153.7 142.7 157.2 156.5 157.2 156.5 243.3 142.7 243.3 142.7 246.8 188.1 246.8 188.1 243.3 174.3 243.3 174.3 157.2" style="fill:#1d1d1b;"/><polygon points="306.1 157.2 319.9 157.2 319.9 153.7 284.7 153.7 264.5 217.4 244.9 153.7 209 153.7 209 157.2 222.8 157.2 222.8 243.3 209 243.3 209 246.8 240.8 246.8 240.8 243.3 227.2 243.3 227.2 159.5 227.5 159.5 255.3 246.8 260 246.8 287.9 159.5 288.3 159.5 288.3 243.3 274.5 243.3 274.5 246.8 319.9 246.8 319.9 243.3 306.1 243.3 306.1 157.2" style="fill:#1d1d1b;"/><path d="M417.1,246.8l1.4-31.4h-4.3c-.6,16-6.8,27.9-24.5,27.9h-18.3v-86.2h14.5v-3.5h-46.1v3.5h13.8v86.2h-13.8v3.5h77.3Z" style="fill:#1d1d1b;"/><path d="M222.7,362.4h-.2v-2h-.2v1.9c-51.3,0-90.7-40.8-105.5-109l3.4-.7c13,59.8,45.2,98,87.5,105.1-25.2-17-34.5-76.5-37.5-104.5l3.4-.4c7,64.8,24.5,104.1,47.1,106l.1-106.3h3.4l-.2,106.4c23.1-1.7,40.8-41.3,47.5-106.6l3.4.4c-5.8,56-19.2,92.8-37.8,105.2,42.4-7.1,74.6-45.5,87.6-105.8l3.4.7c-14.8,68.6-54.2,109.6-105.4,109.6ZM272,149.5c-6.4-68-24.6-110.8-47.9-112.9l-.1,112.7h-3.4l.1-112.8c-23.7,2-42.1,44.9-48.2,112.9l-3.4-.3c5.3-59,19.4-98.7,38.9-111.6-44.2,7.1-77,47.6-89.2,111.5l-3.4-.6c13.8-72.4,53.7-115.5,106.8-115.5h.2v.1c53.3.1,93.3,43.2,107,115.5l-3.4.6c-12.1-63.9-45-104.5-89.5-111.6,19.3,12.9,33.4,52.6,38.9,111.6l-3.4.4Z" style="fill:#004996;"/><path d="M480.9,81.9c-2.1-1.2-3.8-2.7-4.9-4.8-1.2-2-1.8-4.3-1.8-6.8s.6-4.8,1.8-6.8c1.2-2,2.8-3.6,4.9-4.8s4.5-1.7,7.1-1.7,4.9.6,7,1.7c2.1,1.1,3.7,2.7,4.9,4.8,1.2,2,1.8,4.3,1.8,6.8s-.6,4.8-1.8,6.8c-1.2,2-2.8,3.6-4.9,4.8-2.1,1.1-4.4,1.7-7,1.7s-5-.5-7.1-1.7ZM493.6,79.8c1.7-.9,3-2.2,3.9-3.9.9-1.7,1.4-3.5,1.4-5.6s-.5-3.9-1.4-5.6c-.9-1.7-2.3-3-3.9-3.9-1.7-.9-3.5-1.4-5.6-1.4s-3.9.5-5.6,1.4-3,2.2-4,3.9c-1,1.7-1.4,3.5-1.4,5.6s.5,3.9,1.4,5.6c1,1.7,2.3,3,4,3.9s3.6,1.4,5.6,1.4,3.9-.5,5.6-1.4Z" style="fill:#001e41;"/><path d="M512.7,64.6c1.2-.7,2.8-1,4.6-1v2.6h-.6c-2.1,0-3.7.6-4.9,1.9-1.2,1.3-1.8,3.1-1.8,5.3v10h-2.7v-19.6h2.5v3.9c.7-1.4,1.6-2.4,2.9-3.1Z" style="fill:#001e41;"/><path d="M540.1,63.8v17.2c0,3.3-.8,5.8-2.4,7.4-1.6,1.6-4.1,2.4-7.4,2.4-1.8,0-3.5-.3-5.2-.8-1.6-.5-3-1.3-4-2.2l1.3-2c.9.8,2.1,1.5,3.5,2s2.8.7,4.3.7c2.5,0,4.3-.6,5.5-1.7,1.2-1.2,1.8-3,1.8-5.4v-2.5c-.8,1.2-1.9,2.2-3.2,2.8-1.3.6-2.8,1-4.4,1-1.8,0-3.5-.4-5-1.2-1.5-.8-2.7-1.9-3.6-3.4-.9-1.5-1.3-3.1-1.3-5,0-1.8.4-3.5,1.3-4.9.9-1.4,2-2.6,3.5-3.4s3.2-1.2,5.1-1.2c1.7,0,3.2.3,4.5,1,1.3.7,2.4,1.6,3.3,2.9v-3.8h2.4v.1ZM533.8,79.4c1.1-.6,2-1.5,2.7-2.6.6-1.1,1-2.3,1-3.7s-.3-2.6-1-3.7c-.6-1.1-1.5-1.9-2.7-2.5-1.1-.6-2.4-.9-3.9-.9-1.4,0-2.7.3-3.8.9s-2,1.4-2.7,2.5c-.6,1.1-1,2.3-1,3.7s.3,2.6,1,3.7c.6,1.1,1.5,2,2.7,2.6,1.1.6,2.4.9,3.8.9s2.8-.3,3.9-.9Z" style="fill:#001e41;"/><path d="M560.3,65.5c1.4,1.3,2.1,3.2,2.1,5.7v12.2h-2.5v-3.1c-.6,1-1.5,1.8-2.6,2.4-1.2.6-2.5.9-4.1.9-2.2,0-3.9-.5-5.2-1.6-1.3-1-1.9-2.4-1.9-4.2,0-1.7.6-3,1.8-4s3.1-1.5,5.8-1.5h6.2v-1.2c0-1.7-.5-3-1.4-3.9s-2.3-1.3-4.2-1.3c-1.2,0-2.4.2-3.6.6-1.1.4-2.1,1-3,1.7l-1.2-2c1-.8,2.2-1.5,3.6-2s2.9-.7,4.4-.7c2.5.1,4.4.8,5.8,2ZM557.3,80.5c1.1-.7,1.9-1.7,2.4-3v-3.2h-6.2c-3.4,0-5.1,1.2-5.1,3.5,0,1.1.4,2.1,1.3,2.7.9.7,2.1,1,3.7,1,1.5,0,2.8-.3,3.9-1Z" style="fill:#001e41;"/><path d="M585.5,65.8c1.5,1.4,2.2,3.5,2.2,6.3v11.4h-2.7v-11.2c0-2-.5-3.6-1.5-4.7s-2.5-1.6-4.4-1.6c-2.1,0-3.8.6-5,1.9s-1.9,3-1.9,5.2v10.3h-2.7v-19.6h2.5v3.6c.7-1.2,1.7-2.1,3-2.8,1.3-.7,2.8-1,4.5-1,2.6,0,4.5.7,6,2.2Z" style="fill:#001e41;"/><path d="M594.9,58.9c-.4-.4-.6-.8-.6-1.3s.2-.9.6-1.3c.4-.4.8-.6,1.4-.6.5,0,1,.2,1.4.5.4.4.6.8.6,1.3s-.2,1-.6,1.4c-.4.4-.8.6-1.4.6-.6,0-1.1-.2-1.4-.6ZM594.9,63.8h2.7v19.7h-2.7v-19.7Z" style="fill:#001e41;"/><path d="M605.6,82.9c-1.5-.5-2.6-1-3.4-1.7l1.2-2.1c.8.6,1.9,1.2,3.1,1.6s2.5.6,3.9.6c1.8,0,3.1-.3,4-.8.9-.6,1.3-1.4,1.3-2.4,0-.7-.2-1.3-.7-1.7-.5-.4-1.1-.7-1.8-.9-.7-.2-1.7-.4-2.9-.6-1.6-.3-2.9-.6-3.9-.9s-1.8-.8-2.5-1.6c-.7-.7-1-1.8-1-3.1,0-1.6.7-3,2.1-4,1.4-1,3.3-1.6,5.7-1.6,1.3,0,2.5.2,3.8.5,1.3.3,2.3.8,3.1,1.3l-1.2,2.1c-1.6-1.1-3.6-1.7-5.8-1.7-1.7,0-3,.3-3.8.9-.9.6-1.3,1.4-1.3,2.4,0,.7.2,1.3.7,1.8.5.4,1.1.8,1.8,1s1.7.4,3,.7c1.6.3,2.8.6,3.8.9.9.3,1.8.8,2.4,1.5s1,1.7,1,3c0,1.7-.7,3.1-2.1,4.1-1.4,1-3.4,1.5-6,1.5-1.5-.1-3-.3-4.5-.8Z" style="fill:#001e41;"/><path d="M636,65.5c1.4,1.3,2.1,3.2,2.1,5.7v12.2h-2.5v-3.1c-.6,1-1.5,1.8-2.6,2.4-1.2.6-2.5.9-4.1.9-2.2,0-3.9-.5-5.2-1.6-1.3-1-1.9-2.4-1.9-4.2,0-1.7.6-3,1.8-4s3.1-1.5,5.8-1.5h6.2v-1.2c0-1.7-.5-3-1.4-3.9s-2.3-1.3-4.2-1.3c-1.2,0-2.4.2-3.6.6-1.1.4-2.1,1-3,1.7l-1.2-2c1-.8,2.2-1.5,3.6-2s2.9-.7,4.4-.7c2.5.1,4.5.8,5.8,2ZM633,80.5c1.1-.7,1.9-1.7,2.4-3v-3.2h-6.2c-3.4,0-5.1,1.2-5.1,3.5,0,1.1.4,2.1,1.3,2.7.9.7,2.1,1,3.7,1s2.9-.3,3.9-1Z" style="fill:#001e41;"/><path d="M655.7,82.2c-.5.4-1.1.8-1.8,1s-1.5.4-2.3.4c-1.8,0-3.3-.5-4.3-1.5s-1.5-2.4-1.5-4.2v-11.9h-3.5v-2.2h3.5v-4.3h2.7v4.3h6v2.2h-6v11.7c0,1.2.3,2.1.9,2.7.6.6,1.4.9,2.5.9.5,0,1.1-.1,1.6-.3.5-.2,1-.4,1.3-.7l.9,1.9Z" style="fill:#001e41;"/><path d="M660.5,58.9c-.4-.4-.6-.8-.6-1.3s.2-.9.6-1.3c.4-.4.8-.6,1.4-.6.5,0,1,.2,1.4.5.4.4.6.8.6,1.3s-.2,1-.6,1.4c-.4.4-.8.6-1.4.6-.6,0-1.1-.2-1.4-.6ZM660.5,63.8h2.7v19.7h-2.7v-19.7Z" style="fill:#001e41;"/><path d="M673.5,82.3c-1.5-.9-2.7-2.1-3.6-3.6-.9-1.5-1.3-3.2-1.3-5.2s.4-3.6,1.3-5.2c.9-1.5,2.1-2.7,3.6-3.6,1.5-.8,3.2-1.3,5.1-1.3s3.6.4,5.1,1.3c1.5.8,2.7,2,3.6,3.6.9,1.5,1.3,3.2,1.3,5.2s-.4,3.6-1.3,5.2c-.9,1.5-2,2.7-3.6,3.6-1.5.9-3.2,1.3-5.1,1.3-1.9,0-3.6-.4-5.1-1.3ZM682.4,80.3c1.1-.6,2-1.5,2.6-2.7s.9-2.5.9-4-.3-2.8-.9-4c-.6-1.2-1.5-2.1-2.6-2.7s-2.4-1-3.8-1-2.6.3-3.8,1c-1.1.6-2,1.5-2.6,2.7s-1,2.5-1,4,.3,2.8,1,4c.6,1.2,1.5,2.1,2.6,2.7s2.4,1,3.8,1,2.7-.4,3.8-1Z" style="fill:#001e41;"/><path d="M709.9,65.8c1.5,1.4,2.2,3.5,2.2,6.3v11.4h-2.7v-11.2c0-2-.5-3.6-1.5-4.7s-2.5-1.6-4.4-1.6c-2.1,0-3.8.6-5,1.9s-1.9,3-1.9,5.2v10.3h-2.6v-19.6h2.5v3.6c.7-1.2,1.7-2.1,3-2.8,1.3-.7,2.8-1,4.5-1,2.5,0,4.5.7,5.9,2.2Z" style="fill:#001e41;"/><path d="M735.9,57.3h2.8v26.2h-2.8v-26.2Z" style="fill:#001e41;"/><path d="M762.5,65.8c1.5,1.4,2.2,3.5,2.2,6.3v11.4h-2.7v-11.2c0-2-.5-3.6-1.5-4.7s-2.5-1.6-4.4-1.6c-2.1,0-3.8.6-5,1.9s-1.9,3-1.9,5.2v10.3h-2.7v-19.6h2.5v3.6c.7-1.2,1.7-2.1,3-2.8,1.3-.7,2.8-1,4.5-1,2.6,0,4.6.7,6,2.2Z" style="fill:#001e41;"/><path d="M782.3,82.2c-.5.4-1.1.8-1.8,1s-1.5.4-2.3.4c-1.8,0-3.3-.5-4.3-1.5s-1.5-2.4-1.5-4.2v-11.9h-3.5v-2.2h3.5v-4.3h2.7v4.3h6v2.2h-6v11.7c0,1.2.3,2.1.9,2.7.6.6,1.4.9,2.5.9.5,0,1.1-.1,1.6-.3.5-.2,1-.4,1.3-.7l.9,1.9Z" style="fill:#001e41;"/><path d="M803.5,74.4h-16.5c.1,2,.9,3.7,2.4,5,1.4,1.3,3.2,1.9,5.4,1.9,1.2,0,2.3-.2,3.4-.7,1-.4,1.9-1.1,2.7-1.9l1.5,1.7c-.9,1-2,1.8-3.3,2.4-1.3.5-2.8.8-4.3.8-2,0-3.8-.4-5.4-1.3-1.6-.9-2.8-2.1-3.6-3.6-.9-1.5-1.3-3.2-1.3-5.2s.4-3.6,1.3-5.2c.8-1.5,2-2.7,3.4-3.6,1.5-.8,3.1-1.3,4.9-1.3s3.5.4,4.9,1.3c1.4.8,2.6,2,3.4,3.5.8,1.5,1.2,3.2,1.2,5.2l-.1,1ZM789.3,67.7c-1.3,1.2-2,2.8-2.2,4.7h14c-.2-1.9-.9-3.5-2.2-4.7s-2.9-1.8-4.8-1.8c-2,0-3.6.6-4.8,1.8Z" style="fill:#001e41;"/><path d="M814.3,64.6c1.2-.7,2.8-1,4.6-1v2.6h-.6c-2.1,0-3.7.6-4.9,1.9s-1.8,3.1-1.8,5.3v10h-2.6v-19.6h2.5v3.9c.7-1.4,1.6-2.4,2.8-3.1Z" style="fill:#001e41;"/><path d="M839.6,65.8c1.5,1.4,2.2,3.5,2.2,6.3v11.4h-2.7v-11.2c0-2-.5-3.6-1.5-4.7s-2.5-1.6-4.4-1.6c-2.1,0-3.8.6-5,1.9s-1.9,3-1.9,5.2v10.3h-2.7v-19.6h2.5v3.6c.7-1.2,1.7-2.1,3-2.8,1.3-.7,2.8-1,4.5-1,2.6,0,4.6.7,6,2.2Z" style="fill:#001e41;"/><path d="M861.8,65.5c1.4,1.3,2.1,3.2,2.1,5.7v12.2h-2.5v-3.1c-.6,1-1.5,1.8-2.6,2.4-1.2.6-2.5.9-4.1.9-2.2,0-3.9-.5-5.2-1.6-1.3-1-1.9-2.4-1.9-4.2,0-1.7.6-3,1.8-4s3.1-1.5,5.8-1.5h6.2v-1.2c0-1.7-.5-3-1.4-3.9s-2.3-1.3-4.2-1.3c-1.2,0-2.4.2-3.6.6-1.1.4-2.1,1-3,1.7l-1.2-2c1-.8,2.2-1.5,3.6-2s2.9-.7,4.4-.7c2.5.1,4.4.8,5.8,2ZM858.8,80.5c1.1-.7,1.9-1.7,2.4-3v-3.2h-6.2c-3.4,0-5.1,1.2-5.1,3.5,0,1.1.4,2.1,1.3,2.7.9.7,2.1,1,3.7,1s2.8-.3,3.9-1Z" style="fill:#001e41;"/><path d="M881.4,82.2c-.5.4-1.1.8-1.8,1s-1.5.4-2.3.4c-1.8,0-3.3-.5-4.3-1.5s-1.5-2.4-1.5-4.2v-11.9h-3.5v-2.2h3.5v-4.3h2.7v4.3h6v2.2h-6v11.7c0,1.2.3,2.1.9,2.7.6.6,1.4.9,2.5.9.5,0,1.1-.1,1.6-.3.5-.2,1-.4,1.3-.7l.9,1.9Z" style="fill:#001e41;"/><path d="M886.2,58.9c-.4-.4-.6-.8-.6-1.3s.2-.9.6-1.3c.4-.4.8-.6,1.4-.6.5,0,1,.2,1.4.5.4.4.6.8.6,1.3s-.2,1-.6,1.4c-.4.4-.8.6-1.4.6-.5,0-1-.2-1.4-.6ZM886.3,63.8h2.7v19.7h-2.7v-19.7Z" style="fill:#001e41;"/><path d="M899.3,82.3c-1.5-.9-2.7-2.1-3.6-3.6-.9-1.5-1.3-3.2-1.3-5.2s.4-3.6,1.3-5.2c.9-1.5,2.1-2.7,3.6-3.6,1.5-.8,3.2-1.3,5.1-1.3s3.6.4,5.1,1.3c1.5.8,2.7,2,3.6,3.6.9,1.5,1.3,3.2,1.3,5.2s-.4,3.6-1.3,5.2c-.9,1.5-2,2.7-3.6,3.6-1.5.9-3.2,1.3-5.1,1.3-1.9,0-3.6-.4-5.1-1.3ZM908.1,80.3c1.1-.6,2-1.5,2.6-2.7s.9-2.5.9-4-.3-2.8-.9-4c-.6-1.2-1.5-2.1-2.6-2.7s-2.4-1-3.8-1-2.6.3-3.8,1c-1.1.6-2,1.5-2.6,2.7s-1,2.5-1,4,.3,2.8,1,4c.6,1.2,1.5,2.1,2.6,2.7s2.4,1,3.8,1c1.5,0,2.7-.4,3.8-1Z" style="fill:#001e41;"/><path d="M935.7,65.8c1.5,1.4,2.2,3.5,2.2,6.3v11.4h-2.7v-11.2c0-2-.5-3.6-1.5-4.7s-2.5-1.6-4.4-1.6c-2.1,0-3.8.6-5,1.9s-1.9,3-1.9,5.2v10.3h-2.7v-19.6h2.5v3.6c.7-1.2,1.7-2.1,3-2.8,1.3-.7,2.8-1,4.5-1,2.6,0,4.5.7,6,2.2Z" style="fill:#001e41;"/><path d="M957.9,65.5c1.4,1.3,2.1,3.2,2.1,5.7v12.2h-2.5v-3.1c-.6,1-1.5,1.8-2.6,2.4-1.2.6-2.5.9-4.1.9-2.2,0-3.9-.5-5.2-1.6-1.3-1-1.9-2.4-1.9-4.2,0-1.7.6-3,1.8-4s3.1-1.5,5.8-1.5h6.2v-1.2c0-1.7-.5-3-1.4-3.9s-2.3-1.3-4.2-1.3c-1.2,0-2.4.2-3.6.6-1.1.4-2.1,1-3,1.7l-1.2-2c1-.8,2.2-1.5,3.6-2s2.9-.7,4.4-.7c2.5.1,4.4.8,5.8,2ZM954.9,80.5c1.1-.7,1.9-1.7,2.4-3v-3.2h-6.2c-3.4,0-5.1,1.2-5.1,3.5,0,1.1.4,2.1,1.3,2.7.9.7,2.1,1,3.7,1s2.8-.3,3.9-1Z" style="fill:#001e41;"/><path d="M967.2,55.7h2.7v27.8h-2.7v-27.8Z" style="fill:#001e41;"/><path d="M994.4,74.4h-16.5c.1,2,.9,3.7,2.4,5,1.4,1.3,3.2,1.9,5.4,1.9,1.2,0,2.3-.2,3.4-.7,1-.4,1.9-1.1,2.7-1.9l1.5,1.7c-.9,1-2,1.8-3.3,2.4-1.3.5-2.8.8-4.3.8-2,0-3.8-.4-5.4-1.3-1.6-.9-2.8-2.1-3.6-3.6-.9-1.5-1.3-3.2-1.3-5.2s.4-3.6,1.3-5.2c.8-1.5,2-2.7,3.4-3.6,1.5-.8,3.1-1.3,4.9-1.3s3.5.4,4.9,1.3c1.4.8,2.6,2,3.4,3.5.8,1.5,1.2,3.2,1.2,5.2l-.1,1ZM980.1,67.7c-1.3,1.2-2,2.8-2.2,4.7h14c-.2-1.9-.9-3.5-2.2-4.7s-2.9-1.8-4.8-1.8c-1.9,0-3.5.6-4.8,1.8Z" style="fill:#001e41;"/><path d="M1033.8,55.7v27.8h-2.5v-3.9c-.8,1.3-1.9,2.3-3.2,3-1.3.7-2.8,1-4.4,1-1.8,0-3.5-.4-5-1.3-1.5-.8-2.7-2-3.5-3.6-.8-1.5-1.3-3.3-1.3-5.2s.4-3.7,1.3-5.2c.8-1.5,2-2.7,3.5-3.5s3.2-1.3,5-1.3c1.6,0,3,.3,4.3,1s2.3,1.6,3.2,2.9v-11.7h2.6ZM1027.6,80.3c1.1-.6,2-1.5,2.6-2.7s1-2.5,1-4-.3-2.8-1-4c-.6-1.2-1.5-2.1-2.6-2.7s-2.4-1-3.7-1c-1.4,0-2.6.3-3.8,1-1.1.6-2,1.5-2.6,2.7s-1,2.5-1,4,.3,2.8,1,4c.6,1.2,1.5,2.1,2.6,2.7s2.4,1,3.8,1c1.3,0,2.6-.4,3.7-1Z" style="fill:#001e41;"/><path d="M1058.3,74.4h-16.5c.1,2,.9,3.7,2.4,5,1.4,1.3,3.2,1.9,5.4,1.9,1.2,0,2.3-.2,3.4-.7,1-.4,1.9-1.1,2.7-1.9l1.5,1.7c-.9,1-2,1.8-3.3,2.4-1.3.5-2.8.8-4.3.8-2,0-3.8-.4-5.4-1.3s-2.8-2.1-3.6-3.6c-.9-1.5-1.3-3.2-1.3-5.2s.4-3.6,1.3-5.2c.8-1.5,2-2.7,3.4-3.6s3.1-1.3,4.9-1.3,3.5.4,4.9,1.3c1.4.8,2.6,2,3.4,3.5s1.2,3.2,1.2,5.2l-.1,1ZM1044,67.7c-1.3,1.2-2,2.8-2.2,4.7h14c-.2-1.9-.9-3.5-2.2-4.7-1.3-1.2-2.9-1.8-4.8-1.8-1.9,0-3.5.6-4.8,1.8Z" style="fill:#001e41;"/><path d="M518.4,154.7l-.1-26.9-13.2,22.2h-4.7l-13.1-21.6v26.4h-9.7v-44.9h8.6l16.8,27.9,16.5-27.9h8.5l.1,44.9h-9.7v-.1Z" style="fill:#001e41;"/><path d="M570.7,140.3h-26.1c.5,2.1,1.6,3.8,3.3,5.1,1.8,1.2,3.9,1.9,6.5,1.9,1.8,0,3.4-.3,4.8-.8,1.4-.5,2.7-1.4,3.9-2.5l5.3,5.8c-3.2,3.7-8,5.6-14.2,5.6-3.9,0-7.3-.8-10.3-2.3s-5.3-3.6-6.9-6.3c-1.6-2.7-2.4-5.7-2.4-9.2s.8-6.4,2.4-9.1c1.6-2.7,3.8-4.8,6.6-6.3s5.9-2.3,9.4-2.3,6.4.7,9.2,2.2c2.7,1.5,4.9,3.5,6.4,6.3,1.6,2.7,2.3,5.9,2.3,9.5,0-.2,0,.7-.2,2.4ZM547.3,129.2c-1.5,1.3-2.5,3-2.8,5.3h17c-.3-2.2-1.3-3.9-2.8-5.2s-3.4-2-5.6-2c-2.3-.1-4.2.6-5.8,1.9ZM555.6,106.5h10.8l-11.6,9.2h-7.8l8.6-9.2Z" style="fill:#001e41;"/><path d="M598.9,153c-1,.7-2.2,1.3-3.6,1.6s-2.9.5-4.5.5c-4.1,0-7.3-1-9.5-3.1s-3.4-5.2-3.4-9.2v-14.2h-5.3v-7.6h5.3v-8.4h10v8.4h8.6v7.7h-8.6v14c0,1.5.4,2.6,1.1,3.4.7.8,1.8,1.2,3.2,1.2,1.6,0,2.9-.4,4-1.3l2.7,7Z" style="fill:#001e41;"/><path d="M618,121c2-.9,4.4-1.3,7-1.3v9.2c-1.1-.1-1.9-.1-2.2-.1-2.9,0-5.1.8-6.7,2.4-1.6,1.6-2.4,4-2.4,7.2v16.3h-10v-34.5h9.6v4.6c1-1.7,2.6-3,4.7-3.8Z" style="fill:#001e41;"/><path d="M636.3,152.9c-2.9-1.5-5.1-3.6-6.8-6.3-1.6-2.7-2.4-5.7-2.4-9.2s.8-6.5,2.4-9.2c1.6-2.7,3.9-4.8,6.8-6.3,2.9-1.5,6.1-2.3,9.8-2.3s6.9.8,9.7,2.3c2.9,1.5,5.1,3.6,6.7,6.3,1.6,2.7,2.4,5.8,2.4,9.2s-.8,6.5-2.4,9.2-3.9,4.8-6.7,6.3c-2.9,1.5-6.1,2.3-9.7,2.3s-6.9-.8-9.8-2.3ZM652.4,144.4c1.6-1.7,2.5-4.1,2.5-7s-.8-5.2-2.5-7c-1.6-1.7-3.7-2.6-6.3-2.6s-4.7.9-6.3,2.6c-1.7,1.7-2.5,4.1-2.5,7s.8,5.2,2.5,7,3.8,2.6,6.3,2.6,4.7-.9,6.3-2.6Z" style="fill:#001e41;"/><path d="M670.7,107.1h10v47.6h-10v-47.6Z" style="fill:#001e41;"/><path d="M695.7,152.9c-2.9-1.5-5.1-3.6-6.8-6.3-1.6-2.7-2.4-5.7-2.4-9.2s.8-6.5,2.4-9.2c1.6-2.7,3.9-4.8,6.8-6.3,2.9-1.5,6.1-2.3,9.8-2.3s6.9.8,9.7,2.3c2.9,1.5,5.1,3.6,6.7,6.3,1.6,2.7,2.4,5.8,2.4,9.2s-.8,6.5-2.4,9.2-3.9,4.8-6.7,6.3c-2.9,1.5-6.1,2.3-9.7,2.3s-6.9-.8-9.8-2.3ZM711.8,144.4c1.6-1.7,2.5-4.1,2.5-7s-.8-5.2-2.5-7c-1.6-1.7-3.7-2.6-6.3-2.6s-4.7.9-6.3,2.6c-1.7,1.7-2.5,4.1-2.5,7s.8,5.2,2.5,7c1.7,1.7,3.8,2.6,6.3,2.6s4.6-.9,6.3-2.6Z" style="fill:#001e41;"/><path d="M765.7,120.2v28.7c0,6.3-1.6,11-4.9,14.1-3.3,3.1-8.1,4.6-14.4,4.6-3.3,0-6.5-.4-9.5-1.2s-5.5-2-7.4-3.5l4-7.2c1.5,1.2,3.3,2.1,5.5,2.9,2.2.7,4.4,1.1,6.7,1.1,3.5,0,6-.8,7.7-2.3,1.6-1.6,2.5-3.9,2.5-7.1v-1.5c-2.6,2.9-6.2,4.3-10.9,4.3-3.2,0-6.1-.7-8.7-2.1-2.6-1.4-4.7-3.3-6.3-5.9-1.5-2.5-2.3-5.4-2.3-8.7s.8-6.2,2.3-8.7,3.6-4.5,6.3-5.9c2.6-1.4,5.5-2.1,8.7-2.1,5,0,8.8,1.6,11.4,4.9v-4.4h9.3ZM753.3,142.5c1.7-1.6,2.5-3.6,2.5-6.1s-.8-4.6-2.5-6.1c-1.7-1.6-3.9-2.3-6.5-2.3s-4.8.8-6.5,2.3c-1.7,1.6-2.6,3.6-2.6,6.1s.9,4.6,2.6,6.1c1.7,1.6,3.9,2.3,6.5,2.3s4.8-.8,6.5-2.3Z" style="fill:#001e41;"/><path d="M774.5,113.8c-1.2-1.1-1.7-2.4-1.7-4s.6-2.9,1.7-4c1.2-1.1,2.7-1.6,4.5-1.6s3.3.5,4.5,1.5,1.7,2.3,1.7,3.8c0,1.7-.6,3-1.7,4.1-1.2,1.1-2.6,1.6-4.5,1.6s-3.3-.4-4.5-1.4ZM774,120.2h10v34.5h-10v-34.5Z" style="fill:#001e41;"/><path d="M826,140.3h-26.1c.5,2.1,1.6,3.8,3.3,5.1,1.8,1.2,3.9,1.9,6.5,1.9,1.8,0,3.4-.3,4.8-.8,1.4-.5,2.7-1.4,3.9-2.5l5.3,5.8c-3.2,3.7-8,5.6-14.2,5.6-3.9,0-7.3-.8-10.3-2.3s-5.3-3.6-6.9-6.3c-1.6-2.7-2.4-5.7-2.4-9.2s.8-6.4,2.4-9.1,3.8-4.8,6.6-6.3,5.9-2.3,9.4-2.3,6.4.7,9.2,2.2c2.7,1.5,4.9,3.5,6.4,6.3,1.6,2.7,2.3,5.9,2.3,9.5,0-.2-.1.7-.2,2.4ZM802.6,129.2c-1.5,1.3-2.5,3-2.8,5.3h17c-.3-2.2-1.3-3.9-2.8-5.2s-3.4-2-5.6-2c-2.4-.1-4.3.6-5.8,1.9Z" style="fill:#001e41;"/><path d="M847,109.8h10.4v36.4h22.5v8.5h-32.9v-44.9Z" style="fill:#001e41;"/><path d="M917.4,140.3h-26.1c.5,2.1,1.6,3.8,3.3,5.1,1.8,1.2,3.9,1.9,6.5,1.9,1.8,0,3.4-.3,4.8-.8,1.4-.5,2.7-1.4,3.9-2.5l5.3,5.8c-3.2,3.7-8,5.6-14.2,5.6-3.9,0-7.3-.8-10.3-2.3s-5.3-3.6-6.9-6.3c-1.6-2.7-2.4-5.7-2.4-9.2s.8-6.4,2.4-9.1c1.6-2.7,3.8-4.8,6.6-6.3s5.9-2.3,9.4-2.3,6.4.7,9.2,2.2c2.7,1.5,4.9,3.5,6.4,6.3,1.6,2.7,2.3,5.9,2.3,9.5,0-.2,0,.7-.2,2.4ZM894,129.2c-1.5,1.3-2.5,3-2.8,5.3h17c-.3-2.2-1.3-3.9-2.8-5.2s-3.4-2-5.6-2c-2.3-.1-4.2.6-5.8,1.9ZM902.3,106.5h10.8l-11.6,9.2h-7.8l8.6-9.2Z" style="fill:#001e41;"/><path d="M958.9,120.2v28.7c0,6.3-1.6,11-4.9,14.1-3.3,3.1-8.1,4.6-14.4,4.6-3.3,0-6.5-.4-9.5-1.2s-5.5-2-7.4-3.5l4-7.2c1.5,1.2,3.3,2.1,5.5,2.9,2.2.7,4.4,1.1,6.7,1.1,3.5,0,6-.8,7.7-2.3,1.6-1.6,2.5-3.9,2.5-7.1v-1.5c-2.6,2.9-6.2,4.3-10.9,4.3-3.2,0-6.1-.7-8.7-2.1-2.6-1.4-4.7-3.3-6.3-5.9-1.5-2.5-2.3-5.4-2.3-8.7s.8-6.2,2.3-8.7,3.6-4.5,6.3-5.9c2.6-1.4,5.5-2.1,8.7-2.1,5,0,8.8,1.6,11.4,4.9v-4.4h9.3ZM946.5,142.5c1.7-1.6,2.5-3.6,2.5-6.1s-.8-4.6-2.5-6.1c-1.7-1.6-3.9-2.3-6.5-2.3s-4.8.8-6.5,2.3c-1.7,1.6-2.6,3.6-2.6,6.1s.9,4.6,2.6,6.1c1.7,1.6,3.9,2.3,6.5,2.3s4.8-.8,6.5-2.3Z" style="fill:#001e41;"/><path d="M993.5,123.5c2.9,2.5,4.3,6.4,4.3,11.5v19.7h-9.4v-4.3c-1.9,3.2-5.4,4.8-10.5,4.8-2.6,0-4.9-.4-6.9-1.3-1.9-.9-3.4-2.1-4.5-3.7-1-1.6-1.5-3.4-1.5-5.4,0-3.2,1.2-5.7,3.6-7.6,2.4-1.8,6.1-2.8,11.2-2.8h7.9c0-2.2-.7-3.9-2-5-1.3-1.2-3.3-1.8-6-1.8-1.8,0-3.6.3-5.4.9-1.8.6-3.3,1.4-4.5,2.3l-3.6-7c1.9-1.3,4.1-2.3,6.8-3.1,2.6-.7,5.3-1.1,8.1-1.1,5.4.1,9.5,1.3,12.4,3.9ZM985,147.3c1.3-.8,2.3-2,2.8-3.5v-3.5h-6.9c-4.1,0-6.2,1.3-6.2,4,0,1.3.5,2.3,1.5,3s2.4,1.1,4.1,1.1c1.8.1,3.3-.3,4.7-1.1Z" style="fill:#001e41;"/><path d="M1005.9,107.1h10v47.6h-10v-47.6Z" style="fill:#001e41;"/><path d="M1057.8,140.3h-26.1c.5,2.1,1.6,3.8,3.3,5.1,1.8,1.2,3.9,1.9,6.5,1.9,1.8,0,3.4-.3,4.8-.8s2.7-1.4,3.9-2.5l5.3,5.8c-3.2,3.7-8,5.6-14.2,5.6-3.9,0-7.3-.8-10.3-2.3s-5.3-3.6-6.9-6.3-2.4-5.7-2.4-9.2.8-6.4,2.4-9.1c1.6-2.7,3.8-4.8,6.6-6.3,2.8-1.5,5.9-2.3,9.4-2.3s6.4.7,9.2,2.2c2.7,1.5,4.9,3.5,6.4,6.3,1.6,2.7,2.3,5.9,2.3,9.5,0-.2-.1.7-.2,2.4ZM1034.4,129.2c-1.5,1.3-2.5,3-2.8,5.3h17c-.3-2.2-1.3-3.9-2.8-5.2s-3.4-2-5.6-2c-2.3-.1-4.2.6-5.8,1.9Z" style="fill:#001e41;"/><rect x="472.2" y="192.3" width="587.8" height="3.1" style="fill:#004996;"/><path d="M476.5,224.6h2.8v26.2h-2.8v-26.2Z" style="fill:#001e41;"/><path d="M504.3,233.1c1.5,1.4,2.2,3.5,2.2,6.3v11.4h-2.7v-11.1c0-2-.5-3.6-1.5-4.7-1-1.1-2.5-1.6-4.4-1.6-2.1,0-3.8.6-5,1.9-1.2,1.3-1.9,3-1.9,5.2v10.3h-2.7v-19.7h2.5v3.6c.7-1.2,1.7-2.1,3-2.8s2.8-1,4.5-1c2.6.1,4.5.8,6,2.2Z" style="fill:#001e41;"/><path d="M525.2,249.6c-.5.4-1.1.8-1.8,1s-1.5.4-2.3.4c-1.8,0-3.3-.5-4.3-1.5s-1.5-2.4-1.5-4.2v-11.9h-3.5v-2.2h3.5v-4.3h2.7v4.3h6v2.2h-6v11.7c0,1.2.3,2.1.9,2.7.6.6,1.4.9,2.5.9.5,0,1.1-.1,1.6-.3s1-.4,1.3-.7l.9,1.9Z" style="fill:#001e41;"/><path d="M547.5,241.8h-16.5c.1,2,.9,3.7,2.4,5,1.4,1.3,3.2,1.9,5.4,1.9,1.2,0,2.3-.2,3.4-.7,1-.4,1.9-1.1,2.7-1.9l1.5,1.7c-.9,1-2,1.8-3.3,2.4-1.3.5-2.8.8-4.3.8-2,0-3.8-.4-5.4-1.3-1.6-.9-2.8-2.1-3.6-3.6-.9-1.5-1.3-3.2-1.3-5.2s.4-3.6,1.3-5.2c.8-1.5,2-2.7,3.4-3.6,1.5-.8,3.1-1.3,4.9-1.3s3.5.4,4.9,1.3c1.4.8,2.6,2,3.4,3.5.8,1.5,1.2,3.2,1.2,5.2l-.1,1ZM533.3,235.1c-1.3,1.2-2,2.8-2.2,4.7h14c-.2-1.9-.9-3.5-2.2-4.7s-2.9-1.8-4.8-1.8c-2-.1-3.6.6-4.8,1.8Z" style="fill:#001e41;"/><path d="M559.4,232c1.2-.7,2.8-1,4.6-1v2.6h-.6c-2.1,0-3.7.6-4.9,1.9-1.2,1.3-1.8,3.1-1.8,5.3v10h-2.7v-19.7h2.5v3.9c.8-1.4,1.7-2.3,2.9-3Z" style="fill:#001e41;"/><path d="M585.9,233.1c1.5,1.4,2.2,3.5,2.2,6.3v11.4h-2.7v-11.1c0-2-.5-3.6-1.5-4.7-1-1.1-2.5-1.6-4.4-1.6-2.1,0-3.8.6-5,1.9-1.2,1.3-1.9,3-1.9,5.2v10.3h-2.7v-19.7h2.5v3.6c.7-1.2,1.7-2.1,3-2.8s2.8-1,4.5-1c2.5.1,4.5.8,6,2.2Z" style="fill:#001e41;"/><path d="M609.2,232.9c1.4,1.3,2.1,3.2,2.1,5.7v12.2h-2.5v-3.1c-.6,1-1.5,1.8-2.6,2.4-1.2.6-2.5.9-4.1.9-2.2,0-3.9-.5-5.2-1.6-1.3-1-1.9-2.4-1.9-4.2,0-1.7.6-3,1.8-4s3.1-1.5,5.8-1.5h6.2v-1.2c0-1.7-.5-3-1.4-3.9s-2.3-1.3-4.2-1.3c-1.2,0-2.4.2-3.6.6-1.1.4-2.1,1-3,1.7l-1.2-2c1-.8,2.2-1.5,3.6-2s2.9-.7,4.4-.7c2.4.1,4.4.7,5.8,2ZM606.2,247.9c1.1-.7,1.9-1.7,2.4-3v-3.2h-6.2c-3.4,0-5.1,1.2-5.1,3.5,0,1.1.4,2.1,1.3,2.7.9.7,2.1,1,3.7,1,1.5,0,2.8-.4,3.9-1Z" style="fill:#001e41;"/><path d="M629.9,249.6c-.5.4-1.1.8-1.8,1s-1.5.4-2.3.4c-1.8,0-3.3-.5-4.3-1.5s-1.5-2.4-1.5-4.2v-11.9h-3.5v-2.2h3.5v-4.3h2.7v4.3h6v2.2h-6v11.7c0,1.2.3,2.1.9,2.7.6.6,1.4.9,2.5.9.5,0,1.1-.1,1.6-.3s1-.4,1.3-.7l.9,1.9Z" style="fill:#001e41;"/><path d="M635.9,226.3c-.4-.4-.6-.8-.6-1.3s.2-.9.6-1.3c.4-.4.8-.6,1.4-.6.5,0,1,.2,1.4.5.4.4.6.8.6,1.3s-.2,1-.6,1.4c-.4.4-.8.6-1.4.6-.6-.1-1.1-.3-1.4-.6ZM635.9,231.1h2.7v19.7h-2.7v-19.7Z" style="fill:#001e41;"/><path d="M650,249.7c-1.5-.9-2.7-2.1-3.6-3.6-.9-1.5-1.3-3.2-1.3-5.2s.4-3.6,1.3-5.2c.9-1.5,2.1-2.7,3.6-3.6,1.5-.8,3.2-1.3,5.1-1.3s3.6.4,5.1,1.3c1.5.8,2.7,2,3.6,3.6.9,1.5,1.3,3.2,1.3,5.2s-.4,3.6-1.3,5.2c-.9,1.5-2,2.7-3.6,3.6-1.5.9-3.2,1.3-5.1,1.3s-3.6-.5-5.1-1.3ZM658.9,247.7c1.1-.6,2-1.5,2.6-2.7s.9-2.5.9-4-.3-2.8-.9-4c-.6-1.2-1.5-2.1-2.6-2.7-1.1-.6-2.4-1-3.8-1s-2.6.3-3.8,1c-1.1.6-2,1.5-2.6,2.7s-1,2.5-1,4,.3,2.8,1,4c.6,1.2,1.5,2.1,2.6,2.7,1.1.6,2.4,1,3.8,1,1.4-.1,2.7-.4,3.8-1Z" style="fill:#001e41;"/><path d="M687.6,233.1c1.5,1.4,2.2,3.5,2.2,6.3v11.4h-2.7v-11.1c0-2-.5-3.6-1.5-4.7-1-1.1-2.5-1.6-4.4-1.6-2.1,0-3.8.6-5,1.9-1.2,1.3-1.9,3-1.9,5.2v10.3h-2.7v-19.7h2.5v3.6c.7-1.2,1.7-2.1,3-2.8s2.8-1,4.5-1c2.5.1,4.5.8,6,2.2Z" style="fill:#001e41;"/><path d="M710.9,232.9c1.4,1.3,2.1,3.2,2.1,5.7v12.2h-2.5v-3.1c-.6,1-1.5,1.8-2.6,2.4-1.2.6-2.5.9-4.1.9-2.2,0-3.9-.5-5.2-1.6-1.3-1-1.9-2.4-1.9-4.2,0-1.7.6-3,1.8-4s3.1-1.5,5.8-1.5h6.2v-1.2c0-1.7-.5-3-1.4-3.9s-2.3-1.3-4.2-1.3c-1.2,0-2.4.2-3.6.6-1.1.4-2.1,1-3,1.7l-1.2-2c1-.8,2.2-1.5,3.6-2s2.9-.7,4.4-.7c2.4.1,4.4.7,5.8,2ZM707.9,247.9c1.1-.7,1.9-1.7,2.4-3v-3.2h-6.2c-3.4,0-5.1,1.2-5.1,3.5,0,1.1.4,2.1,1.3,2.7.9.7,2.1,1,3.7,1,1.5,0,2.8-.4,3.9-1Z" style="fill:#001e41;"/><path d="M721.3,223h2.7v27.8h-2.7v-27.8Z" style="fill:#001e41;"/><path d="M755.6,249.3c-2.1-1.2-3.8-2.7-4.9-4.8-1.2-2-1.8-4.3-1.8-6.8s.6-4.8,1.8-6.8,2.8-3.6,4.9-4.8c2.1-1.2,4.5-1.7,7.1-1.7s4.9.6,7,1.7c2.1,1.1,3.7,2.7,4.9,4.8,1.2,2,1.8,4.3,1.8,6.8s-.6,4.8-1.8,6.8-2.8,3.6-4.9,4.8-4.4,1.7-7,1.7-5-.6-7.1-1.7ZM768.3,247.1c1.7-.9,3-2.2,3.9-3.9s1.4-3.5,1.4-5.6-.5-3.9-1.4-5.6c-.9-1.7-2.3-3-3.9-3.9-1.7-.9-3.5-1.4-5.6-1.4s-3.9.5-5.6,1.4c-1.7.9-3,2.2-4,3.9s-1.4,3.5-1.4,5.6.5,3.9,1.4,5.6c1,1.7,2.3,3,4,3.9s3.6,1.4,5.6,1.4,3.9-.4,5.6-1.4Z" style="fill:#001e41;"/><path d="M788.5,232c1.2-.7,2.8-1,4.6-1v2.6h-.6c-2.1,0-3.7.6-4.9,1.9-1.2,1.3-1.8,3.1-1.8,5.3v10h-2.7v-19.7h2.5v3.9c.7-1.4,1.6-2.3,2.9-3Z" style="fill:#001e41;"/><path d="M817,231.1v17.3c0,3.3-.8,5.8-2.4,7.4-1.6,1.6-4.1,2.4-7.4,2.4-1.8,0-3.5-.3-5.2-.8-1.6-.5-3-1.3-4-2.2l1.3-2c.9.8,2.1,1.5,3.5,2s2.8.7,4.3.7c2.5,0,4.3-.6,5.5-1.7,1.2-1.2,1.8-3,1.8-5.4v-2.5c-.8,1.2-1.9,2.2-3.2,2.8s-2.8,1-4.4,1c-1.8,0-3.5-.4-5-1.2s-2.7-1.9-3.6-3.4c-.9-1.5-1.3-3.1-1.3-5s.4-3.5,1.3-4.9c.9-1.4,2-2.6,3.5-3.4,1.5-.8,3.2-1.2,5.1-1.2,1.7,0,3.2.3,4.5,1s2.4,1.6,3.3,2.9v-3.8h2.4ZM810.8,246.8c1.1-.6,2-1.5,2.7-2.6.6-1.1,1-2.3,1-3.7s-.3-2.6-1-3.7c-.6-1.1-1.5-1.9-2.7-2.5-1.1-.6-2.4-.9-3.9-.9-1.4,0-2.7.3-3.8.9-1.1.6-2,1.4-2.7,2.5-.6,1.1-1,2.3-1,3.7s.3,2.6,1,3.7c.6,1.1,1.5,2,2.7,2.6,1.1.6,2.4.9,3.8.9s2.7-.3,3.9-.9Z" style="fill:#001e41;"/><path d="M838.4,232.9c1.4,1.3,2.1,3.2,2.1,5.7v12.2h-2.5v-3.1c-.6,1-1.5,1.8-2.6,2.4-1.2.6-2.5.9-4.1.9-2.2,0-3.9-.5-5.2-1.6-1.3-1-1.9-2.4-1.9-4.2,0-1.7.6-3,1.8-4s3.1-1.5,5.8-1.5h6.2v-1.2c0-1.7-.5-3-1.4-3.9s-2.3-1.3-4.2-1.3c-1.2,0-2.4.2-3.6.6-1.1.4-2.1,1-3,1.7l-1.2-2c1-.8,2.2-1.5,3.6-2s2.9-.7,4.4-.7c2.4.1,4.4.7,5.8,2ZM835.4,247.9c1.1-.7,1.9-1.7,2.4-3v-3.2h-6.2c-3.4,0-5.1,1.2-5.1,3.5,0,1.1.4,2.1,1.3,2.7.9.7,2.1,1,3.7,1,1.5,0,2.8-.4,3.9-1Z" style="fill:#001e41;"/><path d="M864.7,233.1c1.5,1.4,2.2,3.5,2.2,6.3v11.4h-2.7v-11.1c0-2-.5-3.6-1.5-4.7-1-1.1-2.5-1.6-4.4-1.6-2.1,0-3.8.6-5,1.9-1.2,1.3-1.9,3-1.9,5.2v10.3h-2.7v-19.7h2.5v3.6c.7-1.2,1.7-2.1,3-2.8s2.8-1,4.5-1c2.6.1,4.5.8,6,2.2Z" style="fill:#001e41;"/><path d="M875.2,226.3c-.4-.4-.6-.8-.6-1.3s.2-.9.6-1.3c.4-.4.8-.6,1.4-.6.5,0,1,.2,1.4.5.4.4.6.8.6,1.3s-.2,1-.6,1.4c-.4.4-.8.6-1.4.6-.6-.1-1.1-.3-1.4-.6ZM875.2,231.1h2.7v19.7h-2.7v-19.7Z" style="fill:#001e41;"/><path d="M900.3,248.6v2.2h-16v-1.8l12.4-15.7h-12.2v-2.2h15.5v1.8l-12.4,15.7h12.7Z" style="fill:#001e41;"/><path d="M919.4,232.9c1.4,1.3,2.1,3.2,2.1,5.7v12.2h-2.5v-3.1c-.6,1-1.5,1.8-2.6,2.4-1.2.6-2.5.9-4.1.9-2.2,0-3.9-.5-5.2-1.6-1.3-1-1.9-2.4-1.9-4.2,0-1.7.6-3,1.8-4s3.1-1.5,5.8-1.5h6.2v-1.2c0-1.7-.5-3-1.4-3.9s-2.3-1.3-4.2-1.3c-1.2,0-2.4.2-3.6.6-1.1.4-2.1,1-3,1.7l-1.2-2c1-.8,2.2-1.5,3.6-2s2.9-.7,4.4-.7c2.5.1,4.4.7,5.8,2ZM916.4,247.9c1.1-.7,1.9-1.7,2.4-3v-3.2h-6.2c-3.4,0-5.1,1.2-5.1,3.5,0,1.1.4,2.1,1.3,2.7.9.7,2.1,1,3.7,1s2.9-.4,3.9-1Z" style="fill:#001e41;"/><path d="M940.2,249.6c-.5.4-1.1.8-1.8,1s-1.5.4-2.3.4c-1.8,0-3.3-.5-4.3-1.5s-1.5-2.4-1.5-4.2v-11.9h-3.5v-2.2h3.5v-4.3h2.7v4.3h6v2.2h-6v11.7c0,1.2.3,2.1.9,2.7.6.6,1.4.9,2.5.9.5,0,1.1-.1,1.6-.3s1-.4,1.3-.7l.9,1.9Z" style="fill:#001e41;"/><path d="M946.1,226.3c-.4-.4-.6-.8-.6-1.3s.2-.9.6-1.3c.4-.4.8-.6,1.4-.6.5,0,1,.2,1.4.5.4.4.6.8.6,1.3s-.2,1-.6,1.4c-.4.4-.8.6-1.4.6-.6-.1-1-.3-1.4-.6ZM946.1,231.1h2.7v19.7h-2.7v-19.7Z" style="fill:#001e41;"/><path d="M960.2,249.7c-1.5-.9-2.7-2.1-3.6-3.6-.9-1.5-1.3-3.2-1.3-5.2s.4-3.6,1.3-5.2c.9-1.5,2.1-2.7,3.6-3.6,1.5-.8,3.2-1.3,5.1-1.3s3.6.4,5.1,1.3c1.5.8,2.7,2,3.6,3.6.9,1.5,1.3,3.2,1.3,5.2s-.4,3.6-1.3,5.2c-.9,1.5-2,2.7-3.6,3.6-1.5.9-3.2,1.3-5.1,1.3-1.8,0-3.6-.5-5.1-1.3ZM969.1,247.7c1.1-.6,2-1.5,2.6-2.7s.9-2.5.9-4-.3-2.8-.9-4c-.6-1.2-1.5-2.1-2.6-2.7-1.1-.6-2.4-1-3.8-1s-2.6.3-3.8,1c-1.1.6-2,1.5-2.6,2.7s-1,2.5-1,4,.3,2.8,1,4c.6,1.2,1.5,2.1,2.6,2.7,1.1.6,2.4,1,3.8,1,1.4-.1,2.7-.4,3.8-1Z" style="fill:#001e41;"/><path d="M997.8,233.1c1.5,1.4,2.2,3.5,2.2,6.3v11.4h-2.7v-11.1c0-2-.5-3.6-1.5-4.7-1-1.1-2.5-1.6-4.4-1.6-2.1,0-3.8.6-5,1.9-1.2,1.3-1.9,3-1.9,5.2v10.3h-2.7v-19.7h2.5v3.6c.7-1.2,1.7-2.1,3-2.8s2.8-1,4.5-1c2.6.1,4.5.8,6,2.2Z" style="fill:#001e41;"/><path d="M1029.4,249.7c-1.5-.9-2.7-2.1-3.6-3.6s-1.3-3.2-1.3-5.2.4-3.6,1.3-5.2c.9-1.5,2.1-2.7,3.6-3.6,1.5-.8,3.2-1.3,5.1-1.3s3.6.4,5.1,1.3,2.7,2,3.6,3.6c.9,1.5,1.3,3.2,1.3,5.2s-.4,3.6-1.3,5.2c-.9,1.5-2,2.7-3.6,3.6-1.5.9-3.2,1.3-5.1,1.3s-3.6-.5-5.1-1.3ZM1038.3,247.7c1.1-.6,2-1.5,2.6-2.7s.9-2.5.9-4-.3-2.8-.9-4-1.5-2.1-2.6-2.7c-1.1-.6-2.4-1-3.8-1s-2.6.3-3.8,1c-1.1.6-2,1.5-2.6,2.7s-1,2.5-1,4,.3,2.8,1,4c.6,1.2,1.5,2.1,2.6,2.7,1.1.6,2.4,1,3.8,1,1.4-.1,2.7-.4,3.8-1Z" style="fill:#001e41;"/><path d="M1055,226c-.6.6-.9,1.5-.9,2.8v2.3h6.1v2.2h-6v17.4h-2.7v-17.4h-3.5v-2.2h3.5v-2.4c0-1.8.5-3.2,1.6-4.3,1-1,2.5-1.6,4.4-1.6.7,0,1.5.1,2.2.3s1.3.5,1.8.9l-.9,2c-.8-.6-1.7-1-2.9-1-1.3.1-2.1.4-2.7,1Z" style="fill:#001e41;"/><path d="M477.6,277.2h10.4v36.4h22.5v8.5h-32.9v-44.9Z" style="fill:#001e41;"/><path d="M551.5,307.6h-26.1c.5,2.1,1.6,3.8,3.3,5.1,1.8,1.2,3.9,1.9,6.5,1.9,1.8,0,3.4-.3,4.8-.8,1.4-.5,2.7-1.4,3.9-2.5l5.3,5.8c-3.2,3.7-8,5.6-14.2,5.6-3.9,0-7.3-.8-10.3-2.3s-5.3-3.6-6.9-6.3c-1.6-2.7-2.4-5.7-2.4-9.2s.8-6.4,2.4-9.1c1.6-2.7,3.8-4.8,6.6-6.3s5.9-2.3,9.4-2.3,6.4.7,9.2,2.2c2.7,1.5,4.9,3.5,6.4,6.3,1.6,2.7,2.3,5.9,2.3,9.5,0-.2-.1.7-.2,2.4ZM528.1,296.5c-1.5,1.3-2.5,3-2.8,5.3h17c-.3-2.2-1.3-3.9-2.8-5.2-1.5-1.3-3.4-2-5.6-2-2.4,0-4.3.6-5.8,1.9Z" style="fill:#001e41;"/><path d="M596.5,287.5v28.7c0,6.3-1.6,11-4.9,14.1-3.3,3.1-8.1,4.6-14.4,4.6-3.3,0-6.5-.4-9.5-1.2-3-.8-5.5-2-7.4-3.5l4-7.2c1.5,1.2,3.3,2.1,5.5,2.9,2.2.7,4.4,1.1,6.7,1.1,3.5,0,6-.8,7.7-2.3,1.6-1.6,2.5-3.9,2.5-7.1v-1.5c-2.6,2.9-6.2,4.3-10.9,4.3-3.2,0-6.1-.7-8.7-2.1-2.6-1.4-4.7-3.3-6.3-5.9-1.5-2.5-2.3-5.4-2.3-8.7s.8-6.2,2.3-8.7,3.6-4.5,6.3-5.9c2.6-1.4,5.5-2.1,8.7-2.1,5,0,8.8,1.6,11.4,4.9v-4.4h9.3ZM584.1,309.8c1.7-1.6,2.5-3.6,2.5-6.1s-.8-4.6-2.5-6.1c-1.7-1.6-3.9-2.3-6.5-2.3s-4.8.8-6.5,2.3c-1.7,1.6-2.6,3.6-2.6,6.1s.9,4.6,2.6,6.1c1.7,1.6,3.9,2.3,6.5,2.3s4.8-.7,6.5-2.3Z" style="fill:#001e41;"/><path d="M634.6,290.8c2.9,2.5,4.3,6.4,4.3,11.5v19.7h-9.4v-4.3c-1.9,3.2-5.4,4.8-10.5,4.8-2.6,0-4.9-.4-6.9-1.3-1.9-.9-3.4-2.1-4.5-3.7-1-1.6-1.5-3.4-1.5-5.4,0-3.2,1.2-5.7,3.6-7.6,2.4-1.8,6.1-2.8,11.2-2.8h7.9c0-2.2-.7-3.9-2-5-1.3-1.2-3.3-1.8-6-1.8-1.8,0-3.6.3-5.4.9-1.8.6-3.3,1.4-4.5,2.3l-3.6-7c1.9-1.3,4.1-2.3,6.8-3.1,2.6-.7,5.3-1.1,8.1-1.1,5.4.1,9.5,1.4,12.4,3.9ZM626.1,314.6c1.3-.8,2.3-2,2.8-3.5v-3.5h-6.9c-4.1,0-6.2,1.3-6.2,4,0,1.3.5,2.3,1.5,3s2.4,1.1,4.1,1.1c1.8.1,3.4-.3,4.7-1.1Z" style="fill:#001e41;"/><path d="M650.5,274.5h10v47.5h-10v-47.5Z" style="fill:#001e41;"/><path d="M742.5,322l-.1-26.9-13.2,22.2h-4.7l-13.1-21.6v26.3h-9.7v-44.9h8.6l16.8,27.9,16.5-27.9h8.5l.1,44.9h-9.7Z" style="fill:#001e41;"/><path d="M798.4,307.6h-26.1c.5,2.1,1.6,3.8,3.3,5.1,1.8,1.2,3.9,1.9,6.5,1.9,1.8,0,3.4-.3,4.8-.8,1.4-.5,2.7-1.4,3.9-2.5l5.3,5.8c-3.2,3.7-8,5.6-14.2,5.6-3.9,0-7.3-.8-10.3-2.3s-5.3-3.6-6.9-6.3c-1.6-2.7-2.4-5.7-2.4-9.2s.8-6.4,2.4-9.1c1.6-2.7,3.8-4.8,6.6-6.3s5.9-2.3,9.4-2.3,6.4.7,9.2,2.2c2.7,1.5,4.9,3.5,6.4,6.3,1.6,2.7,2.3,5.9,2.3,9.5,0-.2-.1.7-.2,2.4ZM775,296.5c-1.5,1.3-2.5,3-2.8,5.3h17c-.3-2.2-1.3-3.9-2.8-5.2-1.5-1.3-3.4-2-5.6-2-2.4,0-4.3.6-5.8,1.9Z" style="fill:#001e41;"/><path d="M830,320.4c-1,.7-2.2,1.3-3.6,1.6s-2.9.5-4.5.5c-4.1,0-7.3-1-9.5-3.1s-3.4-5.2-3.4-9.2v-14.2h-5.3v-7.7h5.3v-8.4h10v8.4h8.6v7.7h-8.6v14c0,1.5.4,2.6,1.1,3.4.7.8,1.8,1.2,3.2,1.2,1.6,0,2.9-.4,4-1.3l2.7,7.1Z" style="fill:#001e41;"/><path d="M852.6,288.3c2-.9,4.4-1.3,7-1.3v9.2c-1.1-.1-1.9-.1-2.2-.1-2.9,0-5.1.8-6.7,2.4-1.6,1.6-2.4,4-2.4,7.2v16.3h-10v-34.5h9.6v4.6c1.1-1.7,2.7-2.9,4.7-3.8Z" style="fill:#001e41;"/><path d="M874.5,320.3c-2.9-1.5-5.1-3.6-6.8-6.3-1.6-2.7-2.4-5.7-2.4-9.2s.8-6.5,2.4-9.2c1.6-2.7,3.9-4.8,6.8-6.3,2.9-1.5,6.1-2.3,9.8-2.3s6.9.8,9.7,2.3c2.9,1.5,5.1,3.6,6.7,6.3s2.4,5.8,2.4,9.2-.8,6.5-2.4,9.2-3.9,4.8-6.7,6.3c-2.9,1.5-6.1,2.3-9.7,2.3-3.6,0-6.9-.8-9.8-2.3ZM890.6,311.8c1.6-1.7,2.5-4.1,2.5-7s-.8-5.2-2.5-7c-1.6-1.7-3.7-2.6-6.3-2.6s-4.7.9-6.3,2.6c-1.7,1.7-2.5,4.1-2.5,7s.8,5.2,2.5,7c1.7,1.7,3.8,2.6,6.3,2.6,2.6-.1,4.7-.9,6.3-2.6Z" style="fill:#001e41;"/><path d="M912.4,274.5h10v47.5h-10v-47.5Z" style="fill:#001e41;"/><path d="M940.9,320.3c-2.9-1.5-5.1-3.6-6.8-6.3-1.6-2.7-2.4-5.7-2.4-9.2s.8-6.5,2.4-9.2c1.6-2.7,3.9-4.8,6.8-6.3,2.9-1.5,6.1-2.3,9.8-2.3s6.9.8,9.7,2.3c2.9,1.5,5.1,3.6,6.7,6.3s2.4,5.8,2.4,9.2-.8,6.5-2.4,9.2-3.9,4.8-6.7,6.3c-2.9,1.5-6.1,2.3-9.7,2.3-3.6,0-6.9-.8-9.8-2.3ZM957,311.8c1.6-1.7,2.5-4.1,2.5-7s-.8-5.2-2.5-7c-1.6-1.7-3.7-2.6-6.3-2.6s-4.7.9-6.3,2.6c-1.7,1.7-2.5,4.1-2.5,7s.8,5.2,2.5,7c1.7,1.7,3.8,2.6,6.3,2.6,2.6-.1,4.7-.9,6.3-2.6Z" style="fill:#001e41;"/><path d="M1014.5,287.5v28.7c0,6.3-1.6,11-4.9,14.1-3.3,3.1-8.1,4.6-14.4,4.6-3.3,0-6.5-.4-9.5-1.2-3-.8-5.5-2-7.4-3.5l4-7.2c1.5,1.2,3.3,2.1,5.5,2.9,2.2.7,4.4,1.1,6.7,1.1,3.5,0,6-.8,7.7-2.3,1.6-1.6,2.5-3.9,2.5-7.1v-1.5c-2.6,2.9-6.2,4.3-10.9,4.3-3.2,0-6.1-.7-8.7-2.1-2.6-1.4-4.7-3.3-6.3-5.9-1.5-2.5-2.3-5.4-2.3-8.7s.8-6.2,2.3-8.7,3.6-4.5,6.3-5.9c2.6-1.4,5.5-2.1,8.7-2.1,5,0,8.8,1.6,11.4,4.9v-4.4h9.3ZM1002.1,309.8c1.7-1.6,2.5-3.6,2.5-6.1s-.8-4.6-2.5-6.1c-1.7-1.6-3.9-2.3-6.5-2.3s-4.8.8-6.5,2.3c-1.7,1.6-2.6,3.6-2.6,6.1s.9,4.6,2.6,6.1c1.7,1.6,3.9,2.3,6.5,2.3s4.8-.7,6.5-2.3Z" style="fill:#001e41;"/><path d="M1060.6,287.5l-15.6,36.6c-1.6,4-3.5,6.8-5.9,8.4-2.3,1.6-5.1,2.4-8.4,2.4-1.8,0-3.6-.3-5.3-.8-1.8-.6-3.2-1.3-4.3-2.3l3.7-7.1c.8.7,1.7,1.2,2.7,1.6s2,.6,3,.6c1.4,0,2.5-.3,3.3-1,.9-.7,1.6-1.8,2.3-3.3l.1-.3-14.9-34.8h10.3l9.7,23.4,9.7-23.4h9.6Z" style="fill:#001e41;"/></svg>