<?xml version="1.0" encoding="UTF-8"?><svg xmlns="http://www.w3.org/2000/svg" width="660mm" height="160mm" xmlns:xlink="http://www.w3.org/1999/xlink" viewBox="0 0 1870.87 453.54"><defs><radialGradient id="uuid-cb54a671-d499-4163-af7f-088a707cef55" cx="270.53" cy="282.23" fx="270.53" fy="282.23" r="342.21" gradientUnits="userSpaceOnUse"><stop offset="0" stop-color="#fff"/><stop offset=".2" stop-color="#b7e5e5"/><stop offset=".39" stop-color="#75cecd"/><stop offset=".49" stop-color="#5cc5c4"/></radialGradient></defs><g id="uuid-55a810ff-55e0-4993-898b-078ac72bcf4a"><path d="M547.7,70.52l-3.55,34.76c-9.04-5.02-26.7-10.36-44.79-10.36-11.31,0-20.67,1.74-20.67,10.05,0,5.74,6.78,7.08,14.1,9.13l23.26,6.46c25.3,6.97,40.27,18.35,40.27,40.09,0,26.25-23.58,44.19-61.37,44.19-27.78,0-49.42-6.87-59.65-11.59l4.31-34.86c8.51,4.41,28.85,12.1,52.22,12.1,10.77,0,18.95-2.36,18.95-9.02,0-4.2-3.23-7.08-12.06-9.33l-22.5-5.74c-19.49-4.92-41.34-15.18-41.34-41.94s25.09-43.27,62.34-43.27c21.96,0,38.87,4.1,50.5,9.33Z" style="fill:#231f20;"/><path d="M612.03,165.17v37.43h-42.96V63.35h73.97c36.5,0,56.96,22.05,56.96,50.14s-20.46,51.68-56.96,51.68h-31.01ZM612.03,97.08v34.45h23.69c12.6,0,20.67-5.95,20.67-17.23,0-11.89-7.64-17.23-20.67-17.23h-23.69Z" style="fill:#231f20;"/><path d="M789.8,179.32h-52.97l-9.37,23.28h-45.87l56.2-139.25h51.25l56.09,139.25h-45.87l-9.47-23.28ZM746.63,148.45h33.48l-16.69-46.55-16.8,46.55Z" style="fill:#231f20;"/><path d="M862.1,96.77h-41.67v-33.43h127.37v33.43h-42.74v105.82h-42.96v-105.82Z" style="fill:#231f20;"/><path d="M1000.2,202.59h-42.96V63.35h42.96v139.25Z" style="fill:#231f20;"/><path d="M1117.5,179.32h-52.97l-9.37,23.28h-45.87l56.2-139.25h51.25l56.09,139.25h-45.87l-9.47-23.28ZM1074.33,148.45h33.48l-16.69-46.55-16.8,46.55Z" style="fill:#231f20;"/><path d="M1294.48,202.59h-113.16V63.35h42.96v106.64h70.2v32.61Z" style="fill:#231f20;"/><path d="M1341.47,63.35h42.31l24.55,95.26,29.72-93.31h32.3l29.72,93.31,24.66-95.26h42.21l-38.76,139.25h-50.28l-23.69-66.96-23.58,66.96h-50.39l-38.76-139.25Z" style="fill:#231f20;"/><path d="M1690.5,202.59h-114.02V63.35h113.48v32.81h-70.52v19.58h63.42v32.61h-63.42v21.64h71.06v32.61Z" style="fill:#231f20;"/><path d="M1703.83,202.59V63.35h77.73c23.58,0,44.25,13.23,44.25,36.3,0,13.95-5.71,24.4-18.73,31.48,17.98,5.74,26.06,18.56,26.06,33.43,0,23.89-19.81,38.04-44.57,38.04h-84.73ZM1745.28,94.11v23.69h27.35c7.11,0,11.31-5.02,11.31-12.2,0-6.67-4.52-11.48-12.17-11.48h-26.49ZM1745.28,147.12v26.15h30.04c8.18,0,13.35-5.64,13.35-12.82,0-7.69-5.06-13.33-13.35-13.33h-30.04Z" style="fill:#231f20;"/><path d="M446.03,320.29v67.9h-9.48v-139.91h94.48v8.35h-85v55.33h69.13v8.35h-69.13Z" style="fill:#231f20;"/><path d="M621.45,246.22c43.17,0,73.77,29.88,73.77,72.02s-30.6,72.02-73.77,72.02-73.77-29.88-73.77-72.02,30.6-72.02,73.77-72.02ZM621.45,381.9c37.6,0,64.29-27.1,64.29-63.67s-26.99-63.67-64.29-63.67-64.29,26.48-64.29,63.67,26.68,63.67,64.29,63.67Z" style="fill:#231f20;"/><path d="M731.07,248.28h9.48v89.32c0,26.79,19.78,44.1,51,44.1s50.79-17.31,50.79-44.1v-89.32h9.48v89.32c0,31.84-23.28,52.65-60.27,52.65s-60.48-20.81-60.48-52.65v-89.32Z" style="fill:#231f20;"/><path d="M1025.27,388.19h-10.71l-106.74-126.93v126.93h-9.48v-139.91h10.92l106.53,126.83v-126.72h9.48v139.81Z" style="fill:#231f20;"/><path d="M1128.05,248.28c47.8,0,71.71,29.05,71.71,70.06,0,43.58-24.11,69.85-72.12,69.85h-54.6v-139.91h55.02ZM1082.51,256.62v123.22h46.57c38.22,0,61.2-21.74,61.2-61.51s-22.98-61.71-61.2-61.71h-46.57Z" style="fill:#231f20;"/><path d="M1344.45,388.19h-9.48l-15.35-35.65h-82.32l-15.35,35.65h-9.89l60.27-139.91h12.36l59.76,139.91ZM1240.91,344.2h75.11l-37.5-86.96-37.6,86.96Z" style="fill:#231f20;"/><path d="M1395.36,256.62v131.57h-9.48v-131.57h-49.66v-8.35h108.69v8.35h-49.56Z" style="fill:#231f20;"/><path d="M1474.31,248.28h9.48v139.91h-9.48v-139.91Z" style="fill:#231f20;"/><path d="M1595.54,246.22c43.17,0,73.77,29.88,73.77,72.02s-30.6,72.02-73.77,72.02-73.77-29.88-73.77-72.02,30.6-72.02,73.77-72.02ZM1595.54,381.9c37.6,0,64.29-27.1,64.29-63.67s-26.99-63.67-64.29-63.67-64.29,26.48-64.29,63.67,26.68,63.67,64.29,63.67Z" style="fill:#231f20;"/><path d="M1833.86,388.19h-10.71l-106.74-126.93v126.93h-9.48v-139.91h10.92l106.53,126.83v-126.72h9.48v139.81Z" style="fill:#231f20;"/><rect x="434.87" y="224.67" width="1398.09" height="2.27" style="fill:#231f20;"/></g><g id="uuid-54da35a2-8fe6-4af7-a285-f662911b784f"><path d="M396.47,292.16c-11.42,4.43-27.8,5.09-36.55,5.09-6.3,0-12.85-.33-17.54-.9-17.02-2.5-35.84-6.37-51.64-10.63-3.12-.88-6.08-1.76-8.8-2.61l-.63-.19-.07-.66c-.14-1.4-.68-2.74-1.56-3.89l-.45-.58.41-.6c.05-.07.27-.37.27-.37,4.8-6.42,10.75-15.98,16.32-26.19,8.18-15.48,14.61-32.34,17.71-40.97,4.25-13.25,7.67-27.14,9.05-34.42.66-4.25,1.06-8.45,1.27-13.22l.03-.64.59-.25c2.46-1.03,4.09-3.43,4.16-6.13v-.43s.33-.29.33-.29c7.09-6.35,13.55-13.45,18.7-20.54,5.2-7.67,11.04-18.31,10.03-32.61-1.02-11.83-6.2-19.52-10.2-23.79,8.14,15.01,6.77,28.75,5.67,34.37v.08c-4.01,14.49-14.49,26.78-18.86,31.43-2.39,2.24-4.7,4.34-6.87,6.23l-.64.56-.66-.55c-.42-.34-.88-.63-1.37-.85l-.6-.28v-.66c.22-7.95-.64-27.56-3.62-39-4.4-15.92-8.51-23.81-11.93-29.41-10.69-16.56-22.01-24.52-29.59-29.07-12.88-7.85-25.48-10.26-35.78-11.46,15.31,3.34,23.23,8,30.23,12.12.73.43,1.45.85,2.17,1.27,16.35,9.52,25.85,23.5,30.07,31,6.02,11.35,10.21,26.42,11.7,36.34,1.28,8.63,1.39,16.4,1.48,23.25.02,1.35.04,2.64.06,3.88.01.48.01.97.01,1.45v.57l-.49.29c-2.07,1.25-3.3,3.45-3.3,5.89,0,1.05.23,2.07.68,3.01l.36.75-.66.5c-4.69,3.49-8.97,6.35-13.1,9.12-2.33,1.55-4.73,3.16-7.16,4.85-20.65,13.07-42.37,24.67-56.99,32.12-23.58,11.33-39.55,16.89-51.22,20.95-1.23.43-2.41.83-3.53,1.23-1.91.73-3.94,1.48-6.57,2.42l-.76.28-.43-.68c-1.62-2.56-4.32-4.1-7.22-4.1-1.7,0-3.35.52-4.76,1.52l-.57.4-.58-.38c-4.29-2.88-7.87-5.58-12.82-9.34l-.65-.49c-13.81-10.65-23.43-20.38-29.05-26.67-12.69-13.92-16.89-26.52-19.15-33.29l-.06-.19-.03-.08c-3.88-15.95-2.03-27.64-.29-35.06,3.98-15.41,11.92-26.79,16.32-32.26,8.92-9.76,19.96-18.62,31.92-25.6,20.33-11.67,38.32-17.3,45.09-19.17,20.3-5.98,35.21-6.62,40.68-6.62.4,0,.79,0,1.18.01-2.61-.14-5.24-.21-7.86-.21-21.79,0-38.82,4.86-49.71,8.52-25.8,9.02-41.64,21.17-49.22,26.99-11.97,9.84-18.2,17.04-26.33,26.87-8.85,11.05-15.98,21.81-21.18,31.96-6.08,11.84-8.86,20.17-11.6,30.55-2.53,9.58-3.8,19.19-4.24,32.14-.65,13.28,1.03,25.32,2.02,32.51l.09.6c.02.14.04.31.06.51,0,0,.04.24.03.24.11,1.06.22,2.59.15,3.24-.85-.9-1.64-2.07-2-2.63h-.02c-.05-.09-.1-.18-.15-.27-.01-.02-.02-.04-.02-.04-5.95-11.11-8.44-28.43-8.66-37.46-.14-11.77.21-20.19,2.46-30.98,2.17-10.4,6.84-23.29,9.45-29.12,5.13-11.66,12.59-23.65,18.48-31.95-3.82,4.89-7.64,10.68-12.34,18.16-7.13,11.6-13.09,27.04-15.84,37.21-2.81,10.41-4.17,19.85-4.39,30.58-.09,10.95.75,19.86,2.56,27.24,3.01,13.27,9.14,23.01,12.08,27.69l.26.41.02.05c.1.2.19.38.28.6l.28.6-.44.49c-.63.71-1.15,1.61-1.49,2.59l-.33.95-.95-.33c-.71-.25-1.42-.51-2.16-.77-.56-.2-1.12-.4-1.7-.61-14.45-5.24-21.2-17.55-24.4-25.63.41,3.35,1.39,7.26,3.75,11.69,5.78,10.31,12.59,14.23,19.03,16.92,2.07.75,3.97,1.37,5.78,1.89l.58.16.13.59c.68,3.16,2.93,5.38,5.48,5.4h.71s.24.68.24.68l.13.39c3.92,11.7,10.06,26.13,13.84,33.76,4.39,8.84,12.4,21.6,18.4,30.33,5.44,7.9,14.02,18.15,26.22,31.3,7.8,7.97,13.65,12.91,20.56,18.3l1.61,1.25-1.97.52c-7.13,1.87-13.8,2.71-21.63,2.71-1.4,0-2.86-.03-4.4-.09-21.79-1.6-37.27-9.98-45.84-15.72,6.11,5.85,14.74,11.01,24.72,14.68,8.46,2.9,17.42,4.37,26.63,4.37,6.23,0,11.34-.7,14.52-1.27,2.96-.55,6.03-1.21,9.12-1.97l.41-.1.36.23c.46.28,1,.43,1.55.43.25,0,.49-.03.72-.09l.47-.13.4.29c14.99,11.13,27.22,17.37,36.16,21.55,24.94,10.66,39.12,12.6,50.52,14.16,1.25.17,2.46.34,3.63.51,4.45.62,9.07.92,14.15.92,6.57,0,12.54-.51,17.8-.95l1.2-.1c6.43-.68,12.13-2.06,16.76-3.52-6.65,1.38-14.01,2.56-19.69,2.82-2.7.14-5.48.21-8.26.21-21.73,0-39.58-4.34-46.25-6.21-25.81-7.32-43.69-18.36-53.3-24.3-3.21-2.02-6.18-4.01-9.07-6.09l-1.66-1.2,1.96-.59c3.53-1.05,7.14-2.27,10.66-3.6,19.01-8.15,28.89-15.42,36.1-20.73,1.03-.76,2.01-1.47,2.93-2.14l2.07-1.51.45.11c.54.12,1.08.19,1.59.19,1.7,0,3.3-.63,4.5-1.79l.3-.28h.52l.11.03c14.79,3.3,32.32,6.02,41.3,6.89,7.44.74,14.24,1.08,21.37,1.08,9.99,0,20.6-.66,35.51-2.23,24.65-2.48,45.23-13.59,52.94-18.25,17.45-10.19,26.84-23.33,31.87-30.38,2.18-3.19,4-6.3,5.53-9.24-2.69,4.61-7.25,11.75-12.65,17.26-7.74,7.49-19.91,18.29-36.13,25.5-12.41,5.17-23.7,9.1-38.4,11.5-5.09.78-18.35,2.58-31.35,2.58-.92,0-1.82-.01-2.72-.03h-.36c-11.3-.24-24.1-.49-37.71-2.67-8.22-1.32-16.42-2.94-22.41-4.12-1.94-.38-3.63-.72-5.01-.98l-.83-.16v-.93l-.06-.52.4-.35c3.47-3.02,8.42-7.36,12.3-10.83,5.66-5.07,11.54-11.13,20.26-20.89,5.79-6.48,9.87-12.04,11.79-14.78l.41-.59.69.2c.7.2,1.45.3,2.22.3,2.49,0,4.81-1.07,6.37-2.93l.43-.51.63.19c4.37,1.27,23.68,6.4,27.19,7.23,2.32.56,23.22,5.47,42.41,7.02h.4c3.5.1,6.82.18,10.14.18,6.54,0,14.58-.28,24.64-2.34,5.74-1.5,12.59-3.69,19.86-8.55,2.78-2.06,5.51-4.19,8.15-6.43s4.13-5.36,4.63-6.87c-5.85,6.07-12.48,10.4-21.45,14.11ZM70.27,217.99c-.54-5.25-.81-18.85-.65-23.19.2-4.96.87-17.4,2.86-25.88,2.09-8.92,3.9-15.22,6.44-22.46,2.59-7.36,7.12-16.87,10.46-23.02,3.28-6.03,7.91-13.57,11.45-17.41,0-.01.01-.03.03-.04.34-.38,3.1-3.4,4.01-4.27.85-.85-.96,3.08-1.72,4.72-.08.16-.14.31-.19.41l-.08.17s-.02.04-.03.06l-.26.56c-2,4.29-5.01,10.78-6.3,17.9-1.24,6.85-2.41,16.05-.41,26.42,2.01,10.41,5.02,17.84,11.52,28.4,5.55,8.49,10.19,13.37,16.61,20.12.92.96,1.87,1.96,2.81,2.97,7.63,7.36,16.99,14.76,22.02,18.75l.61.48c4.34,3.44,8.06,6.05,10.83,7.95l.61.41-.21.7c-.26.89-.38,1.82-.38,2.79v.75l-.73.21c-16.97,5.05-32.66,8.5-42.87,10.5-12.69,2.12-22.05,3.11-29.44,3.11-2.29,0-4.38-.1-6.37-.29l-.9-.09v-.9c-.07-3.62-2.22-6.67-5.01-7.13h-.54l-.28-.54c-.21-.41-.41-.81-.58-1.21-1.34-3.22-2.47-12.89-3.3-20.96ZM212.32,341.65c-1.79,1.45-3.4,2.7-4.79,3.73-12.83,9.29-23.35,14.6-33.1,19.27-5.01,2.06-9.03,3.6-12.66,4.83l-.45.16-.41-.25c-.48-.3-1.02-.45-1.56-.45-.28,0-.56.04-.83.12l-.51.15-.42-.33c-5.58-4.47-10.87-9.24-15.79-13.75-11.42-11.36-23.13-24.87-31.32-36.16-10.63-15.19-17.81-29.03-21.15-35.93-3.65-7.55-7.76-19.04-9.98-25.21-.56-1.55-1-2.79-1.3-3.59l-.21-.61.35-.36.58-1.22,1.02,1.1c.67.73,1.96,2.44,3.74,4.79,3.33,4.39,7.88,10.4,11.73,14.49,5.75,6.12,15.44,14.42,28.03,24,10.41,7.92,26.5,17.64,43.03,26,13.55,6.84,26.45,11.17,41.9,16.11,1.11.35,2.3.71,3.64,1.08l.57.16.14.57c.01.06.04.12.05.18l.23.66-.55.44ZM265.43,287.39c-1.43,1.77-3.73,4.6-5.36,6.64-2.34,2.93-11.44,13.86-18.48,21.3-5.43,5.73-15.08,14.29-18.98,17.71l-.5.43-.61-.28c-.85-.42-1.83-.63-2.81-.63-2.26,0-4.37,1.16-5.51,3.04l-.41.66-.75-.22c-5.49-1.65-10.14-3.18-13.82-4.53-6.95-2.55-24.43-9.21-36.57-15.83-14.37-7.83-25.41-14.56-33.79-20.57-10.66-7.93-18.05-13.92-22.56-18.34l-1.5-1.46c-4.76-4.63-10.7-10.39-14.59-15.39-2.19-2.8-3.92-4.62-5.33-6.04l-1.89-1.88,2.66.16c1.72.1,3.48.15,5.36.15,3.87,0,7.71-.21,11.77-.44l.66-.04c17.75-1.08,36.25-4.47,55-10.07,1.18-.36,2.56-.78,4.1-1.27l.16-.05h.62l.3.35c1.65,1.91,3.98,3,6.41,3,2.26,0,4.4-.92,6.03-2.59l.57-.58.69.43c2.38,1.49,4.7,2.9,6.72,4.1,6.3,3.73,17.17,9.54,31.4,16.77,11.31,5.49,19.78,9,32.37,13.95,8.43,3.27,13.95,5.04,17.37,6.1l.77.26-.06.81v.09c0,1.13.24,2.21.71,3.23l.26.57-.4.48ZM266.24,277.64c-1.14-.43-2.24-.87-3.35-1.3-1.87-.73-3.8-1.49-5.87-2.26-10.77-4.1-21.38-8.5-34.42-14.3-18.6-8.7-28.85-14.79-37.07-19.69l-2.36-1.4c-.98-.54-1.91-1.07-2.81-1.57l-3.23-1.81,2.14-.73c11.84-4.07,27.91-9.79,37.51-13.65,10.96-4.38,29.52-12.78,55.66-27.88,15.56-8.7,29.19-18.18,39.14-25.1,1.37-.95,2.66-1.84,3.88-2.69.41-.28.82-.57,1.23-.86l1.85-1.34-.26,2.27c-.12,1.08-.24,2.15-.38,3.25-1.14,7.9-3.13,16.75-5.9,26.32-3.22,11.09-7.24,22.25-11.94,33.16-5.47,12.68-10.53,21.73-14.33,28.2-1.11,1.89-2.41,4.16-3.77,6.57-2.23,3.91-4.75,8.33-6.94,11.9l-.34.56-.64-.08c-.31-.04-.63-.06-.95-.06-2.19,0-4.23.81-5.78,2.29l-.46.45-.6-.24Z" style="fill:url(#uuid-cb54a671-d499-4163-af7f-088a707cef55); stroke:#8cd3d5; stroke-miterlimit:10;"/><path d="M322.33,150.02c2.57,0,4.66,2.14,4.66,4.77s-2.09,4.77-4.66,4.77-4.66-2.14-4.66-4.77,2.09-4.77,4.66-4.77Z" style="fill:#fff;"/><path d="M168.99,227.3c3.65,0,6.63,3.23,6.63,7.21s-2.97,7.21-6.63,7.21-6.63-3.23-6.63-7.21,2.97-7.21,6.63-7.21Z" style="fill:#fff;"/><path d="M74.23,253.26c-1.98,0-3.66-2.41-3.66-5.27s1.68-5.27,3.66-5.27,3.66,2.41,3.66,5.27-1.68,5.27-3.66,5.27Z" style="fill:#fff;"/><path d="M159.36,373.44c-.75,0-1.36-.63-1.36-1.4s.61-1.4,1.36-1.4,1.36.63,1.36,1.4-.61,1.4-1.36,1.4Z" style="fill:#fff;"/><path d="M218.69,342.66c-2.36,0-4.29-1.8-4.29-4.02s1.92-4.02,4.29-4.02,4.29,1.8,4.29,4.02-1.92,4.02-4.29,4.02Z" style="fill:#fff;"/><ellipse cx="273.08" cy="283.1" rx="6.15" ry="5.89" style="fill:#fff;"/></g></svg>